<svg xmlns="http://www.w3.org/2000/svg" width="20" height="20" viewBox="0 0 20 20">
  <g id="组_1773" data-name="组 1773" transform="translate(-508.584 -870)">
    <g id="组_1757" data-name="组 1757">
      <path id="路径_1326" data-name="路径 1326" d="M525.587,890H511.58a3,3,0,0,1-3-3V873a3,3,0,0,1,3-3h14.007a3,3,0,0,1,3,3V887A3,3,0,0,1,525.587,890ZM511.58,872a1,1,0,0,0-1,1V887a1,1,0,0,0,1,1h14.007a1,1,0,0,0,1-1V873a1,1,0,0,0-1-1Z"/>
    </g>
    <path id="路径_1327" data-name="路径 1327" d="M524.583,879h-5v-5h-2v5h-5v2h5v5h2v-5h5Z"/>
  </g>
</svg>
