<svg xmlns="http://www.w3.org/2000/svg" xmlns:xlink="http://www.w3.org/1999/xlink" width="180" height="180" viewBox="0 0 180 180">
  <defs>
    <style>
      .cls-1 {
        fill: #fde5ff;
      }

      .cls-2 {
        fill: url(#linear-gradient);
      }

      .cls-3 {
        fill: url(#linear-gradient-2);
      }

      .cls-4 {
        fill: #fff;
        opacity: 0.15;
      }

      .cls-5 {
        fill: #8e00c9;
      }

      .cls-6 {
        fill: #231815;
      }
    </style>
    <linearGradient id="linear-gradient" x1="0.042" y1="0.052" x2="1.087" y2="1.074" gradientUnits="objectBoundingBox">
      <stop offset="0" stop-color="#d300ff"/>
      <stop offset="0.157" stop-color="#b017fb"/>
      <stop offset="0.742" stop-color="#326eee"/>
      <stop offset="1" stop-color="#0091e9"/>
    </linearGradient>
    <linearGradient id="linear-gradient-2" x1="0.5" x2="0.5" y2="1" gradientUnits="objectBoundingBox">
      <stop offset="0" stop-color="#8e00bf"/>
      <stop offset="1" stop-color="#1832ff" stop-opacity="0"/>
    </linearGradient>
  </defs>
  <g id="组_2179" data-name="组 2179" transform="translate(-1000.346 -115.022)">
    <circle id="椭圆_260" data-name="椭圆 260" class="cls-1" cx="90" cy="90" r="90" transform="translate(1000.346 115.022)"/>
    <g id="组_2177" data-name="组 2177" transform="translate(1041.076 149.024)">
      <rect id="矩形_878" data-name="矩形 878" class="cls-2" width="80.93" height="108.065" transform="translate(8.805 1.966)"/>
      <g id="组_2175" data-name="组 2175" transform="translate(17.085 28.379)">
        <rect id="矩形_879" data-name="矩形 879" width="17.623" height="25.215"/>
        <rect id="矩形_880" data-name="矩形 880" width="17.623" height="25.215" transform="translate(23.374)"/>
        <rect id="矩形_881" data-name="矩形 881" width="17.623" height="25.215" transform="translate(46.747)"/>
      </g>
      <g id="组_2176" data-name="组 2176" transform="translate(56.211 78.787)">
        <rect id="矩形_882" data-name="矩形 882" width="23.24" height="30.903" transform="translate(0.341 0.341)"/>
        <path id="路径_1441" data-name="路径 1441" class="cls-3" d="M1166.448,312.031h-23.922V280.446h23.922Zm-23.24-.682h22.559V281.128h-22.559Z" transform="translate(-1142.526 -280.446)"/>
      </g>
      <rect id="矩形_883" data-name="矩形 883" class="cls-4" width="80.93" height="56.312" transform="translate(7.414 14.71)"/>
      <path id="路径_1442" data-name="路径 1442" d="M1090.184,280.872l-9.024.273-9.024.232-.494.012-.012-.518-.507-23.83-.372-23.83-.277-23.83-.168-23.83-.013-1.824,1.844-.008,20.233-.081,20.232-.048,40.465.095,1.879,0-.014,1.861-.17,23.83c-.046,7.944-.175,15.887-.258,23.83s-.228,15.887-.355,23.83-.314,15.887-.472,23.83l-.013.627-.6-.016-11.05-.279-11.05-.332,11.05-.332,11.05-.279-.611.611c-.158-7.943-.359-15.887-.472-23.83s-.277-15.887-.354-23.83-.211-15.886-.258-23.83l-.17-23.83,1.865,1.865-40.465.095-20.232-.048-20.233-.081,1.831-1.831-.169,23.83-.278,23.83-.372,23.83-.507,23.83-.506-.506,9.024.232Z" transform="translate(-1063.332 -170.842)"/>
      <rect id="矩形_884" data-name="矩形 884" class="cls-5" width="94.608" height="12.744" transform="translate(1.966 1.966)"/>
      <path id="路径_1443" data-name="路径 1443" d="M1158.624,181.568h-98.541V164.892h98.541Zm-94.608-3.932h90.676v-8.812h-90.676Z" transform="translate(-1060.083 -164.892)"/>
      <path id="路径_1444" data-name="路径 1444" class="cls-6" d="M1114.6,175.773c-3.293.451-6.586.688-9.879.848-1.647.1-3.293.123-4.94.182l-4.939.06-4.94-.057c-1.646-.061-3.292-.08-4.939-.181-3.293-.16-6.586-.4-9.879-.852,3.293-.454,6.586-.692,9.879-.852,1.647-.1,3.293-.121,4.939-.182l4.94-.057,4.939.061c1.646.059,3.293.081,4.94.182C1108.018,175.085,1111.311,175.322,1114.6,175.773Z" transform="translate(-1064.858 -168.007)"/>
    </g>
    <g id="组_2178" data-name="组 2178" transform="translate(1020.835 175.336)">
      <path id="路径_1445" data-name="路径 1445" d="M1036.123,217.916a9.11,9.11,0,0,1,1.417-2.053,21.855,21.855,0,0,1-4.129-4.323,5.423,5.423,0,0,1-.995-2.484,2.356,2.356,0,0,1,.959-2.044,7.488,7.488,0,0,1,2.579-1.291,19.545,19.545,0,0,1,3.054-.665,47.789,47.789,0,0,1,6.4-.393c2.155-.007,4.317.089,6.477.24s4.323.34,6.481.583a98.674,98.674,0,0,0-12.922-1.872,43.865,43.865,0,0,0-6.6-.016,21.143,21.143,0,0,0-3.338.522,9.155,9.155,0,0,0-3.284,1.434,4.569,4.569,0,0,0-1.336,1.514,4.194,4.194,0,0,0-.488,2.045,7.378,7.378,0,0,0,1.169,3.576,24.364,24.364,0,0,0,4.475,5.156Z" transform="translate(-1030.397 -203.482)"/>
      <path id="路径_1446" data-name="路径 1446" d="M1179.258,262.478a14.489,14.489,0,0,0-2.069-2.741,35.373,35.373,0,0,0-5.016-4.323,89.182,89.182,0,0,0-11.168-6.77c1.827,1.174,3.629,2.384,5.388,3.647s3.492,2.557,5.136,3.944a37.552,37.552,0,0,1,4.563,4.465,12.99,12.99,0,0,1,1.7,2.545,3.983,3.983,0,0,1,.477,2.566,2.844,2.844,0,0,1-1.553,1.791,9.746,9.746,0,0,1-2.767.935,30.009,30.009,0,0,1-6.235.452,92.629,92.629,0,0,1-12.75-1.233,234.768,234.768,0,0,1-25.2-5.648q-12.473-3.441-24.689-7.784-12.23-4.258-24.113-9.413c-6.378-2.74-12.652-5.725-18.739-9.015a9.088,9.088,0,0,1-1.7,2.6c13.746,7.967,28.422,14.054,43.3,19.392,16.477,5.693,33.336,10.505,50.735,12.779a87.824,87.824,0,0,0,13.183.788,32.194,32.194,0,0,0,6.7-.812,11.713,11.713,0,0,0,3.312-1.316,5.729,5.729,0,0,0,1.481-1.274,4.09,4.09,0,0,0,.859-1.895A5.68,5.68,0,0,0,1179.258,262.478Z" transform="translate(-1039.983 -213.796)"/>
    </g>
    <circle id="椭圆_261" data-name="椭圆 261" cx="6.478" cy="6.478" r="6.478" transform="translate(1028.219 187.378)"/>
    <path id="路径_1447" data-name="路径 1447" d="M1048.879,325.447c9.408-.813,18.815-1.239,28.224-1.528,4.7-.181,9.408-.222,14.112-.328l14.112-.108,14.112.1c4.7.11,9.408.145,14.112.327,9.408.288,18.816.716,28.223,1.534-9.408.819-18.815,1.246-28.223,1.534-4.7.183-9.408.218-14.112.327l-14.112.1-14.112-.108c-4.7-.107-9.408-.147-14.112-.328C1067.694,326.687,1058.287,326.261,1048.879,325.447Z" transform="translate(-15.442 -66.328)"/>
  </g>
</svg>
