<svg xmlns="http://www.w3.org/2000/svg" width="20.007" height="20" viewBox="0 0 20.007 20">
  <g id="组_2080" data-name="组 2080" transform="translate(-761.778 -871.25)">
    <g id="组_1757" data-name="组 1757">
      <path id="路径_1326" data-name="路径 1326" d="M778.785,891.25H764.778a3,3,0,0,1-3-3h0v-14a3,3,0,0,1,3-3h14.007a3,3,0,0,1,3,3v14a3,3,0,0,1-3,3Zm-14.007-18a1,1,0,0,0-1,1v14a1,1,0,0,0,1,1h14.007a1,1,0,0,0,1-1v-14a1,1,0,0,0-1-1Z"/>
    </g>
    <g id="组_2078" data-name="组 2078">
      <path id="路径_1369" data-name="路径 1369" d="M771.989,876.552h-2v6.854h4.625v-2h-2.625Z"/>
    </g>
  </g>
</svg>
