<svg xmlns="http://www.w3.org/2000/svg" xmlns:xlink="http://www.w3.org/1999/xlink" width="180" height="180" viewBox="0 0 180 180">
  <defs>
    <style>
      .cls-1 {
        fill: #e1e8ff;
      }

      .cls-2 {
        fill: url(#linear-gradient);
      }

      .cls-3 {
        fill: #fff;
        opacity: 0.15;
      }

      .cls-4 {
        fill: url(#linear-gradient-2);
      }

      .cls-5 {
        fill: url(#linear-gradient-3);
      }
    </style>
    <linearGradient id="linear-gradient" x1="-0.087" y1="0.033" x2="0.817" y2="0.842" gradientUnits="objectBoundingBox">
      <stop offset="0" stop-color="#15ffe1"/>
      <stop offset="1" stop-color="#1e28ff"/>
    </linearGradient>
    <linearGradient id="linear-gradient-2" x1="-0.118" y1="0.015" x2="0.668" y2="0.88" xlink:href="#linear-gradient"/>
    <linearGradient id="linear-gradient-3" y1="0.5" x2="1" y2="0.5" gradientUnits="objectBoundingBox">
      <stop offset="0" stop-color="#15dbff"/>
      <stop offset="1" stop-color="#1531ff" stop-opacity="0"/>
    </linearGradient>
  </defs>
  <g id="组_2182" data-name="组 2182" transform="translate(-124.031 -623.325)">
    <circle id="椭圆_262" data-name="椭圆 262" class="cls-1" cx="90" cy="90" r="90" transform="translate(124.031 623.325)"/>
    <path id="路径_1448" data-name="路径 1448" class="cls-2" d="M292.833,779.349h-52.5l6.818-115.682h38.864Z" transform="translate(-37.005 -12.836)"/>
    <path id="路径_1449" data-name="路径 1449" d="M213.871,802.8h-14.2V734.5l14.2,8.786Z" transform="translate(-24.066 -35.374)"/>
    <path id="路径_1450" data-name="路径 1450" d="M297.29,729.087c-.519-4.092-.79-8.183-.975-12.275s-.281-8.183-.279-12.275.093-8.183.275-12.275.456-8.183.978-12.275c.522,4.092.8,8.183.978,12.275s.282,8.183.275,12.275-.1,8.183-.279,12.275S297.809,725,297.29,729.087Z" transform="translate(-54.729 -18.029)"/>
    <path id="路径_1451" data-name="路径 1451" class="cls-3" d="M296.811,780.258H278.629l-25.8-115.682,37.159-.909Z" transform="translate(-40.982 -12.836)"/>
    <path id="路径_1452" data-name="路径 1452" d="M240.333,779.341q.318-14.606.861-29.2l.552-14.591c.2-4.863.37-9.727.6-14.589.443-9.723.852-19.448,1.365-29.167.486-9.721.967-19.442,1.53-29.158l.1-1.8,1.8,0,19.432-.053,19.432.05,1.807,0,.1,1.8c.563,9.716,1.05,19.437,1.533,29.158.511,9.719.925,19.444,1.365,29.167l.6,14.588.55,14.592q.52,14.593.856,29.2-1.391-14.542-2.552-29.1l-1.154-14.556-1.1-14.559c-.7-9.708-1.418-19.415-2.043-29.128-.653-9.711-1.3-19.422-1.876-29.138l1.911,1.8-19.432.05-19.432-.052,1.909-1.8c-.573,9.715-1.229,19.426-1.878,29.138-.624,9.712-1.351,19.419-2.044,29.127-.338,4.855-.735,9.706-1.1,14.56l-1.154,14.556Q241.7,764.8,240.333,779.341Z" transform="translate(-37.005 -11.919)"/>
    <path id="路径_1453" data-name="路径 1453" class="cls-4" d="M239.636,788.365H186V692l53.636,37.554Z" transform="translate(-19.717 -21.852)"/>
    <g id="组_2180" data-name="组 2180" transform="translate(175.26 698.515)">
      <path id="路径_1454" data-name="路径 1454" d="M213.871,802.8h-14.2V734.5l14.2,8.786Z" transform="translate(-199.326 -733.888)"/>
      <path id="路径_1455" data-name="路径 1455" class="cls-5" d="M214.053,802.851H199.167V733.6l14.886,9.207Zm-14.2-.682h13.522V743.19l-13.522-8.364Z" transform="translate(-199.167 -733.603)"/>
    </g>
    <path id="路径_1456" data-name="路径 1456" d="M238.72,786.63l-26.519.725-13.507.331-13.61.267-1.305.026-.018-1.349-.327-24.09-.2-24.091-.087-24.09-.03-12.045.033-12.045.01-3.718,3.031,2.135,13.383,9.425,13.341,9.485,13.325,9.509,13.283,9.568.606.437-.008.713c-.053,4.984-.172,9.959-.271,14.917l-.346,14.811Zm0,0-.785-29.728-.347-14.593c-.1-4.843-.217-9.669-.271-14.486l.6,1.15-13.535-9.209L210.886,710.5,197.409,701.2l-13.435-9.353,3.041-1.582.033,12.045-.03,12.045-.087,24.09-.2,24.091-.327,24.09-1.323-1.323,13.207.267,13.31.331Z" transform="translate(-18.8 -20.117)"/>
    <path id="路径_1457" data-name="路径 1457" d="M157.167,833.75c10.871-.814,21.743-1.24,32.613-1.529,5.435-.181,10.871-.222,16.307-.328l16.306-.109,16.307.1c5.435.11,10.871.145,16.307.328,10.871.288,21.742.715,32.613,1.534-10.871.818-21.742,1.246-32.613,1.534-5.436.183-10.872.218-16.307.327l-16.307.1-16.306-.108c-5.436-.106-10.872-.146-16.307-.328C178.91,834.989,168.038,834.563,157.167,833.75Z" transform="translate(-10.543 -66.328)"/>
    <g id="组_2181" data-name="组 2181" transform="translate(135.408 702.616)">
      <path id="路径_1458" data-name="路径 1458" d="M268.538,759.353q-1.529.315-3.068.594a234.674,234.674,0,0,1-25.652,2.985q-12.91.867-25.875.8-12.95.017-25.868-.927a222.825,222.825,0,0,1-25.617-3.18,81.134,81.134,0,0,1-12.348-3.276,22.26,22.26,0,0,1-5.485-2.78,5.412,5.412,0,0,1-1.758-2.017,2.355,2.355,0,0,1,.23-2.245,7.458,7.458,0,0,1,2.009-2.07,19.648,19.648,0,0,1,2.663-1.636,47.886,47.886,0,0,1,5.913-2.483c2.031-.717,4.1-1.34,6.192-1.91s4.193-1.106,6.31-1.589a98.652,98.652,0,0,0-12.815,2.5,43.858,43.858,0,0,0-6.236,2.163,21.219,21.219,0,0,0-2.979,1.594,9.154,9.154,0,0,0-2.626,2.438,4.562,4.562,0,0,0-.762,1.87,4.2,4.2,0,0,0,.214,2.091,7.387,7.387,0,0,0,2.285,2.99,24.359,24.359,0,0,0,5.926,3.389,78.432,78.432,0,0,0,12.657,3.862c17.15,3.782,34.656,4.857,52.087,5,17.433-.065,34.936-1.085,52.11-4.681q1.746-.385,3.487-.807A9.05,9.05,0,0,1,268.538,759.353Z" transform="translate(-140.717 -739.618)"/>
      <path id="路径_1459" data-name="路径 1459" d="M346.591,750.289a5.678,5.678,0,0,0-2-3.2,14.471,14.471,0,0,0-2.858-1.9,35.388,35.388,0,0,0-6.162-2.425,89.248,89.248,0,0,0-12.776-2.705c2.112.505,4.212,1.053,6.289,1.665s4.14,1.261,6.15,2.028a37.512,37.512,0,0,1,5.781,2.709,12.965,12.965,0,0,1,2.446,1.841,3.98,3.98,0,0,1,1.3,2.265,2.842,2.842,0,0,1-.875,2.2,6.858,6.858,0,0,1-.518.515,9.079,9.079,0,0,1,.821,2.028,9.778,9.778,0,0,0,1.238-1.253,5.732,5.732,0,0,0,.978-1.69A4.092,4.092,0,0,0,346.591,750.289Z" transform="translate(-198.652 -739.755)"/>
    </g>
    <circle id="椭圆_263" data-name="椭圆 263" cx="6.478" cy="6.478" r="6.478" transform="translate(265.685 714.085)"/>
  </g>
</svg>
