<svg xmlns="http://www.w3.org/2000/svg" xmlns:xlink="http://www.w3.org/1999/xlink" width="20" height="20" viewBox="0 0 20 20">
  <defs>
    <style>
      .cls-1 {
        fill: url(#linear-gradient);
      }

      .cls-2 {
        fill: #fff;
      }
    </style>
    <linearGradient id="linear-gradient" x1="0.5" x2="0.5" y2="1" gradientUnits="objectBoundingBox">
      <stop offset="0" stop-color="#0bcdff"/>
      <stop offset="1" stop-color="#00ca72"/>
    </linearGradient>
  </defs>
  <g id="组_1941" data-name="组 1941" transform="translate(-886 -464)">
    <g id="组_1888" data-name="组 1888" transform="translate(-897 324)">
      <circle id="椭圆_201" data-name="椭圆 201" class="cls-1" cx="10" cy="10" r="10" transform="translate(1783 140)"/>
    </g>
    <path id="路径_417" data-name="路径 417" class="cls-2" d="M377.488,892.762l-1.722.822-.019-.029c-.056-.078-.119-.144-.177-.218-.12-.152-.238-.307-.366-.446-.077-.083-.161-.155-.241-.234-.118-.117-.234-.237-.358-.343-.09-.077-.184-.143-.276-.215-.121-.094-.239-.193-.363-.278-.1-.069-.2-.127-.3-.19-.122-.078-.245-.158-.369-.229-.1-.058-.208-.108-.312-.162-.124-.064-.246-.13-.37-.187-.107-.049-.214-.091-.321-.136s-.242-.1-.362-.149-.213-.075-.319-.111-.237-.082-.353-.118-.207-.059-.31-.088-.226-.063-.335-.09-.2-.045-.3-.067-.21-.046-.311-.066-.182-.033-.273-.049-.191-.034-.282-.047-.162-.022-.242-.033-.17-.022-.249-.031l-.2-.021-.2-.018-.166-.012-.15-.008-.118,0-.094,0h-.088a7.961,7.961,0,0,1,1.483.758c.222.144.431.3.63.455A9.431,9.431,0,0,1,372.806,895l-1.968.94,5.553,3.329h0Z" transform="translate(523.062 -420)"/>
  </g>
</svg>
