<svg xmlns="http://www.w3.org/2000/svg" xmlns:xlink="http://www.w3.org/1999/xlink" width="180" height="180" viewBox="0 0 180 180">
  <defs>
    <style>
      .cls-1 {
        fill: #e0fdfa;
      }

      .cls-2 {
        fill: url(#linear-gradient);
      }

      .cls-3 {
        fill: #231815;
      }

      .cls-4 {
        fill: #fff;
        opacity: 0.15;
      }

      .cls-5 {
        fill: #002212;
      }

      .cls-6 {
        fill: url(#linear-gradient-2);
      }
    </style>
    <linearGradient id="linear-gradient" y1="0.5" x2="1" y2="0.5" gradientUnits="objectBoundingBox">
      <stop offset="0" stop-color="#fff21f"/>
      <stop offset="0.02" stop-color="#f4ee26"/>
      <stop offset="0.135" stop-color="#bbdb4e"/>
      <stop offset="0.254" stop-color="#89ca72"/>
      <stop offset="0.373" stop-color="#5fbc90"/>
      <stop offset="0.493" stop-color="#3cb0a8"/>
      <stop offset="0.615" stop-color="#22a7bb"/>
      <stop offset="0.738" stop-color="#0fa1c9"/>
      <stop offset="0.865" stop-color="#039dd1"/>
      <stop offset="1" stop-color="#009cd4"/>
    </linearGradient>
    <linearGradient id="linear-gradient-2" y1="0.5" x2="1" y2="0.5" gradientUnits="objectBoundingBox">
      <stop offset="0" stop-color="#15ff79"/>
      <stop offset="1" stop-color="#187fc4" stop-opacity="0"/>
    </linearGradient>
  </defs>
  <g id="组_1855" data-name="组 1855" transform="translate(-1337.333 -314.174)">
    <path id="路径_1345" data-name="路径 1345" class="cls-1" d="M90,0A90,90,0,1,1,0,90,90,90,0,0,1,90,0Z" transform="translate(1337.333 314.174)"/>
    <g id="组_1854" data-name="组 1854" transform="translate(1363.786 350.348)">
      <g id="组_1851" data-name="组 1851" transform="translate(16.186 0)">
        <path id="路径_1337" data-name="路径 1337" class="cls-2" d="M1400.881,379.146c-.693,9.316-1.765,36.841,7.535,56.348,9.616,20.171,32.523,34.791,39,38.623,6.473-3.832,29.381-18.453,39-38.623,9.31-19.528,8.232-47.035,7.537-56.348a84.349,84.349,0,0,1-13.661,1.16,63.157,63.157,0,0,1-9.586-.7,47.947,47.947,0,0,1-23.286-10.277,47.936,47.936,0,0,1-23.285,10.277,63.155,63.155,0,0,1-9.586.7A84.489,84.489,0,0,1,1400.881,379.146Z" transform="translate(-1400.053 -367.898)"/>
        <path id="路径_1338" data-name="路径 1338" class="cls-3" d="M1427.75,392.719a41.057,41.057,0,0,1-4.8.836c-1.619.171-3.249.288-4.881.309s-3.267,0-4.9-.119-3.259-.273-4.882-.5l1.075-.843c-.2,3.939-.251,7.89-.19,11.832.046,1.972.1,3.942.2,5.91s.271,3.93.423,5.894a108.887,108.887,0,0,0,1.692,11.686,75.962,75.962,0,0,0,3.211,11.417,49.982,49.982,0,0,1-4.547-11.09,76.823,76.823,0,0,1-2.363-11.8c-.25-1.99-.425-3.989-.55-5.988s-.218-4-.22-6.005.011-4,.087-6.005c.1-2,.227-4,.412-5.993l.1-1.034.978.19c1.565.3,3.143.567,4.729.77s3.178.385,4.777.492,3.2.194,4.812.187Q1425.324,392.888,1427.75,392.719Z" transform="translate(-1402.144 -374.866)"/>
        <path id="路径_1339" data-name="路径 1339" class="cls-4" d="M1418.754,416.666a69.808,69.808,0,0,1,8.271-33.059c-.942.2-1.9.391-2.9.545a63.155,63.155,0,0,1-9.586.7,84.489,84.489,0,0,1-13.66-1.16c-.693,9.316-1.765,36.841,7.535,56.348,9.616,20.171,32.523,34.791,39,38.623,1.022-.605,2.455-1.48,4.178-2.6A70.064,70.064,0,0,1,1418.754,416.666Z" transform="translate(-1400.053 -372.44)"/>
        <path id="路径_1340" data-name="路径 1340" d="M1400.7,378.476a173.968,173.968,0,0,0,1.085,28.143,113.688,113.688,0,0,0,2.588,13.769,68.171,68.171,0,0,0,4.607,13.1,65.351,65.351,0,0,0,7.364,11.672,88.251,88.251,0,0,0,9.463,10.159,132.287,132.287,0,0,0,22.34,16.581h-1.831a134.52,134.52,0,0,0,11.495-7.849,120.814,120.814,0,0,0,10.606-8.984,87.746,87.746,0,0,0,9.275-10.235,64.99,64.99,0,0,0,7.124-11.65,67.555,67.555,0,0,0,4.379-13.006,111.754,111.754,0,0,0,2.324-13.678,163.461,163.461,0,0,0,.55-27.895l1.977,1.551a82.226,82.226,0,0,1-12.462,1.055,63.275,63.275,0,0,1-12.509-1.051c-1.038-.175-2.058-.44-3.083-.672-1.014-.283-2.033-.543-3.03-.88a46.386,46.386,0,0,1-5.866-2.305,47.5,47.5,0,0,1-10.571-6.789h1.415a46.223,46.223,0,0,1-10.739,6.419,48.242,48.242,0,0,1-5.879,2.09c-.994.3-2.009.528-3.016.777-1.019.2-2.031.428-3.058.569a61.64,61.64,0,0,1-12.343.605A83.1,83.1,0,0,1,1400.7,378.476Zm0,0a86.732,86.732,0,0,0,12.218.793,61.743,61.743,0,0,0,12.1-1.173c1-.176,1.971-.442,2.952-.672.969-.281,1.944-.538,2.9-.871a47.143,47.143,0,0,0,15.655-8.737l.684-.587.731.587a45.118,45.118,0,0,0,10.227,6.121,48.674,48.674,0,0,0,11.418,3.367,60.25,60.25,0,0,0,11.937.728,87.787,87.787,0,0,0,11.961-1.233l1.83-.314.148,1.865q.564,7.126.522,14.265c-.031,4.759-.233,9.525-.713,14.277a115.657,115.657,0,0,1-2.343,14.169,71.357,71.357,0,0,1-4.565,13.745,64.448,64.448,0,0,1-7.579,12.4,91.607,91.607,0,0,1-9.723,10.638,128.315,128.315,0,0,1-22.911,17.147l-.927.547-.905-.547a134.441,134.441,0,0,1-11.819-8.075,117.421,117.421,0,0,1-10.853-9.324,91.188,91.188,0,0,1-9.536-10.715,64.085,64.085,0,0,1-7.338-12.38,70.337,70.337,0,0,1-4.332-13.653,113.637,113.637,0,0,1-2.076-14.078A155.222,155.222,0,0,1,1400.7,378.476Z" transform="translate(-1399.871 -367.229)"/>
      </g>
      <g id="组_1852" data-name="组 1852" transform="translate(54.513 34.216)">
        <path id="路径_1341" data-name="路径 1341" class="cls-5" d="M1465.278,417.912c-.162,0-.324,0-.488.013a8.807,8.807,0,0,0-8.206,8.606,8.7,8.7,0,0,0,5.12,7.992,2.727,2.727,0,0,1,1.6,2.485V447.88a1.97,1.97,0,1,0,3.94,0V437.007a2.727,2.727,0,0,1,1.6-2.485,8.688,8.688,0,0,0-3.572-16.61Z" transform="translate(-1456.242 -417.571)"/>
        <path id="路径_1342" data-name="路径 1342" class="cls-6" d="M1465.117,450.032a2.314,2.314,0,0,1-2.311-2.311V436.848a2.39,2.39,0,0,0-1.4-2.174,9.043,9.043,0,0,1-5.32-8.305,9.152,9.152,0,0,1,8.528-8.943,9.03,9.03,0,0,1,4.218,17.249,2.39,2.39,0,0,0-1.4,2.174v10.873A2.314,2.314,0,0,1,1465.117,450.032Zm0-31.938q-.234,0-.47.013a8.459,8.459,0,0,0-7.883,8.268,8.362,8.362,0,0,0,4.919,7.679,3.072,3.072,0,0,1,1.8,2.795v10.873a1.63,1.63,0,0,0,3.259,0V436.848a3.072,3.072,0,0,1,1.8-2.795,8.35,8.35,0,0,0-3.431-15.959Z" transform="translate(-1456.083 -417.413)"/>
      </g>
      <circle id="椭圆_231" data-name="椭圆 231" cx="6.007" cy="6.007" r="6.007" transform="translate(119.97 10.417)"/>
      <g id="组_1853" data-name="组 1853" transform="translate(0 0.546)">
        <path id="路径_1343" data-name="路径 1343" d="M1528.088,369.8a21.862,21.862,0,0,1,6.671,1.846,10.535,10.535,0,0,1,4.6,4.019,8.5,8.5,0,0,1,2.076-.265c.11,0,.218.012.327.016-.089-.171-.172-.345-.27-.511a12.453,12.453,0,0,0-5.915-5.028,23.25,23.25,0,0,0-7.309-1.733,53.151,53.151,0,0,0-14.6,1.163,97.489,97.489,0,0,0-13.947,4.063,111.871,111.871,0,0,1,14.11-3.138A53.41,53.41,0,0,1,1528.088,369.8Z" transform="translate(-1415.455 -368.029)"/>
        <path id="路径_1344" data-name="路径 1344" d="M1498.263,402.435c-.642,1.232-1.341,2.442-2.109,3.614a70.1,70.1,0,0,1-4.14,5.755,105.04,105.04,0,0,1-9.7,10.464,165.68,165.68,0,0,1-22.484,17.766,192.19,192.19,0,0,1-24.963,14.175,136.825,136.825,0,0,1-26.911,9.715q-3.479.809-7.006,1.312a58.971,58.971,0,0,1-7.063.518,29.529,29.529,0,0,1-6.953-.695,14.68,14.68,0,0,1-6.1-2.885,4.4,4.4,0,0,1-.612-.569c-.19-.2-.4-.393-.577-.606a10.43,10.43,0,0,1-.944-1.379,9.544,9.544,0,0,1-1.14-3.169l-.138-.848-.05-.863a16.9,16.9,0,0,1,.018-1.741,22.265,22.265,0,0,1,.592-3.478,33.814,33.814,0,0,1,2.551-6.683,58.18,58.18,0,0,1,3.613-6.262,42.81,42.81,0,0,0-7.074,12.689,21.406,21.406,0,0,0-.821,3.62,18.159,18.159,0,0,0-.112,1.877l.01.947.106.948a10.952,10.952,0,0,0,1.125,3.671,12.02,12.02,0,0,0,1.022,1.657c.2.258.423.492.635.739a5.555,5.555,0,0,0,.679.7,16.326,16.326,0,0,0,6.734,3.533,31.593,31.593,0,0,0,7.4,1.034,54.8,54.8,0,0,0,7.4-.31q3.665-.424,7.273-1.154a110.4,110.4,0,0,0,14.129-3.929c4.618-1.593,9.138-3.443,13.578-5.459a189.958,189.958,0,0,0,25.493-14.268,164.58,164.58,0,0,0,22.827-18.282,108.285,108.285,0,0,0,9.811-10.945,58.677,58.677,0,0,0,6.532-10.375A8.449,8.449,0,0,1,1498.263,402.435Z" transform="translate(-1376.131 -378.977)"/>
      </g>
    </g>
  </g>
</svg>
