<svg xmlns="http://www.w3.org/2000/svg" width="24" height="24" viewBox="0 0 24 24">
  <defs>
    <style>
      .cls-1 {
        fill: #1a1a1a;
      }
    </style>
  </defs>
  <g id="组_625" data-name="组 625" transform="translate(-406.596 -939.893)">
    <path id="路径_766" data-name="路径 766" class="cls-1" d="M423.64,948.264l1.409,1.409,1.548-5.779-5.779,1.548,1.408,1.408-8.673,8.673-1.408-1.408-1.548,5.779,5.779-1.548-1.409-1.409Z"/>
    <path id="路径_767" data-name="路径 767" class="cls-1" d="M426.6,939.893h-5v2h5a2,2,0,0,1,2,2v5h2v-5A4,4,0,0,0,426.6,939.893Z"/>
    <path id="路径_768" data-name="路径 768" class="cls-1" d="M408.6,943.893a2,2,0,0,1,2-2h5v-2h-5a4,4,0,0,0-4,4v5h2Z"/>
    <path id="路径_769" data-name="路径 769" class="cls-1" d="M428.6,959.893a2,2,0,0,1-2,2h-5v2h5a4,4,0,0,0,4-4v-5h-2Z"/>
    <path id="路径_770" data-name="路径 770" class="cls-1" d="M408.6,959.893v-5h-2v5a4,4,0,0,0,4,4h5v-2h-5A2,2,0,0,1,408.6,959.893Z"/>
  </g>
</svg>
