<svg xmlns="http://www.w3.org/2000/svg" width="20" height="20" viewBox="0 0 20 20">
  <g id="组_1934" data-name="组 1934" transform="translate(-550.865 -871.73)">
    <path id="路径_1360" data-name="路径 1360" d="M555.365,873.73a2.5,2.5,0,1,1-2.5,2.5,2.5,2.5,0,0,1,2.5-2.5m0-2a4.5,4.5,0,1,0,4.5,4.5,4.5,4.5,0,0,0-4.5-4.5Z"/>
    <path id="路径_1361" data-name="路径 1361" d="M555.365,884.73a2.5,2.5,0,1,1-2.5,2.5,2.5,2.5,0,0,1,2.5-2.5m0-2a4.5,4.5,0,1,0,4.5,4.5,4.5,4.5,0,0,0-4.5-4.5Z"/>
    <g id="组_1900" data-name="组 1900">
      <rect id="矩形_790" data-name="矩形 790" width="9" height="2" transform="translate(561.844 872.835)"/>
      <rect id="矩形_791" data-name="矩形 791" width="9" height="2" transform="translate(561.865 888.626)"/>
      <rect id="矩形_792" data-name="矩形 792" width="9" height="2" transform="translate(561.865 883.362)"/>
      <rect id="矩形_793" data-name="矩形 793" width="9" height="2" transform="translate(561.865 878.099)"/>
    </g>
  </g>
</svg>
