<svg xmlns="http://www.w3.org/2000/svg" xmlns:xlink="http://www.w3.org/1999/xlink" width="180" height="180" viewBox="0 0 180 180">
  <defs>
    <style>
      .cls-1 {
        fill: #ffdbdb;
      }

      .cls-2 {
        fill: url(#linear-gradient);
      }

      .cls-3 {
        fill: #231815;
      }

      .cls-4, .cls-6 {
        fill: none;
        stroke-miterlimit: 10;
      }

      .cls-4 {
        stroke: #231815;
        stroke-width: 3.201px;
      }

      .cls-5 {
        fill: #fff;
        opacity: 0.15;
      }

      .cls-6 {
        stroke: #000;
        stroke-width: 5.767px;
      }
    </style>
    <linearGradient id="linear-gradient" y1="0.5" x2="1" y2="0.5" gradientUnits="objectBoundingBox">
      <stop offset="0" stop-color="#fff21f"/>
      <stop offset="0.116" stop-color="#f5ba38"/>
      <stop offset="0.235" stop-color="#ec894e"/>
      <stop offset="0.357" stop-color="#e45f62"/>
      <stop offset="0.48" stop-color="#de3c72"/>
      <stop offset="0.605" stop-color="#da227e"/>
      <stop offset="0.732" stop-color="#d60f87"/>
      <stop offset="0.862" stop-color="#d4038c"/>
      <stop offset="1" stop-color="#d4008e"/>
    </linearGradient>
  </defs>
  <g id="组_1868" data-name="组 1868" transform="translate(-1318.29 -564.418)">
    <circle id="椭圆_233" data-name="椭圆 233" class="cls-1" cx="90" cy="90" r="90" transform="translate(1318.29 564.418)"/>
    <circle id="椭圆_234" data-name="椭圆 234" cx="14.162" cy="14.162" r="14.162" transform="translate(1394.256 602.012)"/>
    <circle id="椭圆_235" data-name="椭圆 235" class="cls-2" cx="45.727" cy="45.727" r="45.727" transform="translate(1362.909 609.099)"/>
    <path id="路径_1346" data-name="路径 1346" class="cls-3" d="M1458.561,734.244a32.211,32.211,0,0,1-13.371,7.387,34.73,34.73,0,0,1-15.466.679,37.471,37.471,0,0,1-7.475-2.244,35.755,35.755,0,0,1-6.74-3.886,32.5,32.5,0,0,1-9.891-11.641,41.761,41.761,0,0,0,10.857,10.239,39.871,39.871,0,0,0,6.564,3.379,37.323,37.323,0,0,0,7.076,2.008,36.184,36.184,0,0,0,7.332.621,37.581,37.581,0,0,0,7.341-.8A41.1,41.1,0,0,0,1458.561,734.244Z" transform="translate(-27.786 -50.947)"/>
    <path id="路径_1347" data-name="路径 1347" class="cls-4" d="M1450.8,644.122" transform="translate(-42.161 -25.36)"/>
    <rect id="矩形_783" data-name="矩形 783" width="7.85" height="13.222" transform="translate(1404.493 590.262)"/>
    <path id="路径_1348" data-name="路径 1348" class="cls-5" d="M1449.482,715.027a53.212,53.212,0,0,1-51.444-66.713,45.716,45.716,0,1,0,64.088,65.189A53.285,53.285,0,0,1,1449.482,715.027Z" transform="translate(-20.822 -26.694)"/>
    <path id="路径_1349" data-name="路径 1349" d="M1428.992,629.949a46.7,46.7,0,0,1,33.526,79.254,47.175,47.175,0,0,1-15.3,10.469,46.824,46.824,0,0,1-36.45,0,46.717,46.717,0,0,1,18.226-89.727Zm0,0a45.744,45.744,0,0,0-17.472,3.545,44.735,44.735,0,0,0-13.662,73.316,44.747,44.747,0,0,0,63.275-63.275,45.11,45.11,0,0,0-14.669-10.041A45.741,45.741,0,0,0,1428.992,629.949Z" transform="translate(-20.356 -20.851)"/>
    <path id="路径_1350" data-name="路径 1350" class="cls-6" d="M1450.8,609.931" transform="translate(-42.161 -14.482)"/>
    <path id="路径_1351" data-name="路径 1351" class="cls-3" d="M1483.785,665.513l-31.569.547-31.875.509-32.107.369-32.213.209-1.63.011,0-1.644a65.052,65.052,0,0,1,65.515-65.362,64.511,64.511,0,0,1,45.853,19.51A63.62,63.62,0,0,1,1483.785,665.513Zm0,0a65.264,65.264,0,0,0-5.352-24.243,63.846,63.846,0,0,0-34.565-33.616,62.749,62.749,0,0,0-81.438,34.054,62.3,62.3,0,0,0-4.776,23.8l-1.633-1.633,31.67.209,31.776.369Z" transform="translate(-11.486 -11.369)"/>
    <circle id="椭圆_236" data-name="椭圆 236" cx="6.007" cy="6.007" r="6.007" transform="translate(1360.011 690.171)"/>
    <g id="组_1866" data-name="组 1866" transform="translate(1349.926 663.757)">
      <path id="路径_1352" data-name="路径 1352" d="M1376.792,735.393a66.09,66.09,0,0,1-4.176-6.078,71.361,71.361,0,0,1-7.925-19.2,50.73,50.73,0,0,0,5.6,20.492,53.783,53.783,0,0,0,4.111,6.81A8.218,8.218,0,0,1,1376.792,735.393Z" transform="translate(-1364.69 -710.115)"/>
      <path id="路径_1353" data-name="路径 1353" d="M1412.977,772.656a65.1,65.1,0,0,1-15.35-9.006,8.22,8.22,0,0,1-2.274,2.53,55.09,55.09,0,0,0,16.7,8.962,51.07,51.07,0,0,0,21.1,2.452A71.686,71.686,0,0,1,1412.977,772.656Z" transform="translate(-1374.446 -727.149)"/>
    </g>
  </g>
</svg>
