<svg xmlns="http://www.w3.org/2000/svg" width="98.417" height="21.909" viewBox="0 0 98.417 21.909">
  <defs>
    <style>
      .cls-1 {
        fill: #0BA29A;
      }
    </style>
  </defs>
  <g id="组_55" data-name="组 55" transform="translate(-621.491 -320.265)">
    <path id="路径_75" data-name="路径 75" class="cls-1" d="M784.965,331.815h-4.653v18.477h12.645v-3.873h-7.992Z" transform="translate(-111.671 -8.121)"/>
    <path id="路径_76" data-name="路径 76" class="cls-1" d="M919.428,354.4l-5.284-6.826,5.033-5.286h-5.713L910,346.308v-8.63h-4.744V354.4H910l-.135-5.655L914.2,354.4Z" transform="translate(-199.519 -12.244)"/>
    <g id="组_52" data-name="组 52" transform="translate(648.001 325.41)">
      <rect id="矩形_74" data-name="矩形 74" class="cls-1" width="4.641" height="10.581" transform="translate(0.112 6.163)"/>
      <path id="路径_77" data-name="路径 77" class="cls-1" d="M713.777,337.656a2.439,2.439,0,0,0-2.928,2.928,2.414,2.414,0,0,0,1.815,1.815,2.439,2.439,0,0,0,2.928-2.928A2.414,2.414,0,0,0,713.777,337.656Z" transform="translate(-710.787 -337.594)"/>
    </g>
    <g id="组_53" data-name="组 53" transform="translate(683.535 325.462)">
      <rect id="矩形_75" data-name="矩形 75" class="cls-1" width="4.641" height="10.51" transform="translate(0.112 6.163)"/>
      <path id="路径_78" data-name="路径 78" class="cls-1" d="M833.47,337.832a2.439,2.439,0,0,0-2.928,2.928,2.414,2.414,0,0,0,1.815,1.814,2.439,2.439,0,0,0,2.928-2.928A2.414,2.414,0,0,0,833.47,337.832Z" transform="translate(-830.48 -337.77)"/>
    </g>
    <g id="组_54" data-name="组 54" transform="translate(621.491 320.265)">
      <path id="路径_79" data-name="路径 79" class="cls-1" d="M621.594,320.265l-.1,10.777,8.914-10.743Z" transform="translate(-621.491 -320.265)"/>
      <path id="路径_80" data-name="路径 80" class="cls-1" d="M621.511,368.391l-.021,3.829h11.726L626.668,363Z" transform="translate(-621.491 -350.311)"/>
      <path id="路径_81" data-name="路径 81" class="cls-1" d="M660.795,320.5h-5.246l-8.246,9.96,8.435,11.841,8.242.018-10.386-13.248Z" transform="translate(-639.64 -320.428)"/>
    </g>
    <path id="路径_82" data-name="路径 82" class="cls-1" d="M854.333,365.308h4.641s-.008-8.179.014-8.2c0,0,2.249-.389,3.023.336.486.455.4,2.069.4,2.069l.066,5.8h4.664v-8.775a4.1,4.1,0,0,0-.55-2.144,3.912,3.912,0,0,0-2.854-1.192h-9.4Z" transform="translate(-163.717 -23.155)"/>
    <path id="路径_83" data-name="路径 83" class="cls-1" d="M745.787,350.665c-.845-.015-2.224-.039-2.468-.039a.884.884,0,0,1-.83-.4,2.4,2.4,0,0,1-.154-1.065v-4.545h2.656v-2.58h-2.656V337.07l-4.837-.013v4.977h-2.864v2.58H737.5v4.761a8.239,8.239,0,0,0,.409,3.049,1.816,1.816,0,0,0,.772,1.039,3.366,3.366,0,0,0,2.216.5l4.893-.005Z" transform="translate(-79.554 -11.807)"/>
  </g>
</svg>
