<svg xmlns="http://www.w3.org/2000/svg" width="24" height="24" viewBox="0 0 24 24">
  <defs>
    <style>
      .cls-1 {
        fill: #1a1a1a;
      }
    </style>
  </defs>
  <path id="路径_765" data-name="路径 765" class="cls-1" d="M449.973,943.29l1.288.193a8.043,8.043,0,0,1,6.8,7.91v6.191a3.493,3.493,0,0,0,.893,2.327h-6.589l-.579.989a1.994,1.994,0,0,1-3.449,0l-.579-.989h-6.582a3.491,3.491,0,0,0,.885-2.327v-6.191a8.044,8.044,0,0,1,6.8-7.91l1.108-.193m.09-3.4a1.5,1.5,0,0,0-1.5,1.5c0,.038,0,.075.006.112a10,10,0,0,0-8.506,9.888v6.191a1.5,1.5,0,0,1-1.027,1.424,1.5,1.5,0,0,0,.527,2.9h7.051a3.993,3.993,0,0,0,6.9,0h7.05a1.5,1.5,0,0,0,.491-2.916,1.5,1.5,0,0,1-.991-1.411v-6.191a10,10,0,0,0-8.5-9.888c0-.037,0-.074,0-.112a1.5,1.5,0,0,0-1.5-1.5Z" transform="translate(-438.063 -939.893)"/>
</svg>
