<svg xmlns="http://www.w3.org/2000/svg" xmlns:xlink="http://www.w3.org/1999/xlink" width="180" height="180" viewBox="0 0 180 180">
  <defs>
    <style>
      .cls-1 {
        fill: #fbddd1;
      }

      .cls-2, .cls-6 {
        fill: none;
      }

      .cls-3 {
        fill: url(#linear-gradient);
      }

      .cls-4 {
        fill: url(#linear-gradient-2);
      }

      .cls-5 {
        fill: #fff;
        opacity: 0.15;
      }

      .cls-6 {
        stroke: #000;
        stroke-miterlimit: 10;
        stroke-width: 5.767px;
      }
    </style>
    <linearGradient id="linear-gradient" x1="0.346" y1="0.118" x2="0.609" y2="1.097" gradientUnits="objectBoundingBox">
      <stop offset="0" stop-color="#1545ff"/>
      <stop offset="1" stop-color="#ff5f2a"/>
    </linearGradient>
    <linearGradient id="linear-gradient-2" x1="0.5" x2="0.5" y2="1" gradientUnits="objectBoundingBox">
      <stop offset="0" stop-color="#ff5c00" stop-opacity="0.969"/>
      <stop offset="1" stop-color="#1525ff" stop-opacity="0"/>
    </linearGradient>
  </defs>
  <g id="组_2186" data-name="组 2186" transform="translate(-574.761 -623.325)">
    <circle id="椭圆_264" data-name="椭圆 264" class="cls-1" cx="90" cy="90" r="90" transform="translate(574.761 623.325)"/>
    <circle id="椭圆_265" data-name="椭圆 265" cx="6.478" cy="6.478" r="6.478" transform="translate(658.282 635.32)"/>
    <g id="组_2183" data-name="组 2183" transform="translate(593.17 640.488)">
      <path id="路径_1460" data-name="路径 1460" d="M777.805,693.6A71.582,71.582,0,0,0,719.864,648.5a8.651,8.651,0,0,1-.228,3.723A71.408,71.408,0,0,1,760.39,671.8a72.311,72.311,0,0,1,15.7,22.514,74.31,74.31,0,0,1,6.3,27.019A69.119,69.119,0,0,0,777.805,693.6Z" transform="translate(-639.266 -648.498)"/>
      <path id="路径_1461" data-name="路径 1461" d="M664.239,649.809a9.164,9.164,0,0,1,.1-1.307,71.577,71.577,0,0,0-42.61,21.217,71.191,71.191,0,0,0-15.326,23.888,69.122,69.122,0,0,0-4.583,27.729,74.264,74.264,0,0,1,6.29-27.021,72.289,72.289,0,0,1,15.7-22.516,71.393,71.393,0,0,1,40.758-19.578A9.086,9.086,0,0,1,664.239,649.809Z" transform="translate(-601.761 -648.499)"/>
    </g>
    <path id="路径_1462" data-name="路径 1462" d="M611.094,833.75c10.871-.814,21.742-1.24,32.613-1.529,5.436-.181,10.872-.222,16.307-.328l16.307-.109,16.306.1c5.436.11,10.872.145,16.307.328,10.871.288,21.742.715,32.613,1.534-10.871.818-21.743,1.246-32.613,1.534-5.435.183-10.871.218-16.307.327l-16.306.1-16.307-.108c-5.435-.106-10.871-.146-16.307-.328C632.836,834.989,621.965,834.563,611.094,833.75Z" transform="translate(-11.561 -66.328)"/>
    <path id="路径_1463" data-name="路径 1463" class="cls-2" d="M646,841.333" transform="translate(-22.667 -69.366)"/>
    <path id="路径_1464" data-name="路径 1464" class="cls-2" d="M641.049,840.079" transform="translate(-21.092 -68.967)"/>
    <g id="组_2185" data-name="组 2185" transform="translate(607.369 670.699)">
      <path id="路径_1465" data-name="路径 1465" class="cls-3" d="M736.617,765.132l-1.16-15.505a16.069,16.069,0,0,0-3.022-8.2,16.91,16.91,0,0,0-6.855-5.562.554.554,0,0,1-.306-.372l-5.146-24.177c-1.818-8.618-10.469-15.625-19.272-15.625H660.341c-8.8,0-17.454,7.008-19.282,15.614l-5.146,24.177a.525.525,0,0,1-.306.373,16.971,16.971,0,0,0-6.854,5.562,16.165,16.165,0,0,0-3.023,8.2l-1.15,15.515a14.476,14.476,0,0,0,8.913,14.574.555.555,0,0,1,.318.361,11.789,11.789,0,0,0,18.22,6.713,11.634,11.634,0,0,0,4.237-5.595.534.534,0,0,1,.5-.351h47.675a.545.545,0,0,1,.5.351,11.771,11.771,0,0,0,22.469-1.107.523.523,0,0,1,.318-.361,14.5,14.5,0,0,0,8.88-14.585Z" transform="translate(-623.207 -693.724)"/>
      <g id="组_2184" data-name="组 2184" transform="translate(26.966 16.844)">
        <path id="路径_1466" data-name="路径 1466" d="M662.686,741.27a.842.842,0,0,1,.044-.2l4.193-18.209v-.023a6.191,6.191,0,0,1,5.77-4.829h40.066a6.168,6.168,0,0,1,5.759,4.829v.023l4.183,18.2a1.277,1.277,0,0,0,.044.2v.022a3.472,3.472,0,0,1-.712,2.825,3.389,3.389,0,0,1-2.672,1.117H666.069a3.425,3.425,0,0,1-2.7-1.15,3.513,3.513,0,0,1-.678-2.8Z" transform="translate(-662.296 -717.671)"/>
        <path id="路径_1467" data-name="路径 1467" class="cls-4" d="M719.2,745.4H665.91a3.774,3.774,0,0,1-2.966-1.271,3.857,3.857,0,0,1-.755-3.072,1.132,1.132,0,0,1,.065-.276l4.174-18.166a6.553,6.553,0,0,1,6.106-5.107H712.6a6.524,6.524,0,0,1,6.095,5.109l.005.044,4.174,18.16a1.115,1.115,0,0,0,.036.166l.017.108a3.8,3.8,0,0,1-.793,3.068A3.726,3.726,0,0,1,719.2,745.4Zm-46.668-27.21a5.833,5.833,0,0,0-5.435,4.55l-4.2,18.245a.917.917,0,0,0-.039.168v0a3.18,3.18,0,0,0,.6,2.532,3.106,3.106,0,0,0,2.444,1.028H719.2a3.056,3.056,0,0,0,2.408-.991,3.155,3.155,0,0,0,.639-2.559l0-.02a1.988,1.988,0,0,1-.04-.2L718.019,722.7a5.8,5.8,0,0,0-5.418-4.51Z" transform="translate(-662.137 -717.512)"/>
      </g>
      <path id="路径_1468" data-name="路径 1468" d="M658.15,791.423a7.293,7.293,0,1,1,7.293-7.293,7.3,7.3,0,0,1-7.293,7.293Z" transform="translate(-631.582 -719.544)"/>
      <path id="路径_1469" data-name="路径 1469" d="M748.566,791.423a7.293,7.293,0,1,1,7.292-7.293,7.3,7.3,0,0,1-7.292,7.293Z" transform="translate(-660.35 -719.544)"/>
      <path id="路径_1470" data-name="路径 1470" d="M741.328,800.866" transform="translate(-660.368 -727.189)"/>
      <rect id="矩形_885" data-name="矩形 885" class="cls-2" width="99.815" height="83.13" transform="translate(4.023 16.302)"/>
      <path id="路径_1471" data-name="路径 1471" class="cls-5" d="M726.259,735.492l-5.146-24.177c-1.818-8.618-10.469-15.625-19.272-15.625H661.326c-8.8,0-17.454,7.008-19.283,15.614L636.9,735.48a.525.525,0,0,1-.306.373,16.972,16.972,0,0,0-6.854,5.562,16.548,16.548,0,0,0-2.1,3.974H735.524a16.346,16.346,0,0,0-2.1-3.963,16.91,16.91,0,0,0-6.855-5.562A.554.554,0,0,1,726.259,735.492Z" transform="translate(-624.192 -693.724)"/>
      <path id="路径_1472" data-name="路径 1472" d="M680.2,779.917l22.345-.477.7-.014.35-.006a2.149,2.149,0,0,1,.457.017,1.055,1.055,0,0,1,.571.331,1.03,1.03,0,0,1,.185.292l.07.172c.082.209.174.411.267.614a11.276,11.276,0,0,0,1.407,2.249A11.013,11.013,0,0,0,720.7,785.72a11.518,11.518,0,0,0,2.045-1.55,12.307,12.307,0,0,0,1.622-1.973,11.664,11.664,0,0,0,1.1-2.291c.081-.2.121-.408.185-.612l.088-.307.022-.076s.039-.144.064-.2a1.584,1.584,0,0,1,.671-.8,1.726,1.726,0,0,1,.22-.109l.072-.035.289-.14.58-.276a13.306,13.306,0,0,0,7.021-12.714l-.463-5.536-.475-5.567-.237-2.783c-.085-.91-.145-1.906-.255-2.7a14.8,14.8,0,0,0-4.643-8.75,15.627,15.627,0,0,0-4.182-2.761l-.156-.071a2.2,2.2,0,0,1-.622-.419,2.275,2.275,0,0,1-.633-1.118l-.15-.683-.3-1.366-.6-2.733-2.4-10.933-1.2-5.467-.6-2.733a17.018,17.018,0,0,0-.7-2.419,19.11,19.11,0,0,0-15.249-11.825,23.652,23.652,0,0,0-2.59-.08l-2.793.005-5.587.012-11.172.024-11.173-.021-5.587-.012-2.793-.005c-.492,0-.856.005-1.282.027s-.824.066-1.236.119a19.115,19.115,0,0,0-14.89,12.275,20.481,20.481,0,0,0-.654,2.5l-.6,2.727-1.2,5.454-2.395,10.908-.6,2.727-.3,1.364-.018.085a2.725,2.725,0,0,1-.08.3,2.218,2.218,0,0,1-.894,1.133,2.294,2.294,0,0,1-.317.17l-.07.032c-.186.087-.372.165-.56.263a15.577,15.577,0,0,0-4.081,2.919,14.748,14.748,0,0,0-4.306,8.909l-.945,11.11-.236,2.783c-.077.922-.169,1.888-.2,2.7a13.261,13.261,0,0,0,7.574,12.374l.294.14.147.07a1.751,1.751,0,0,1,.412.249,1.642,1.642,0,0,1,.545.856l.088.307c.06.2.112.412.177.614l.225.6a10.85,10.85,0,0,0,2.937,4.118,10.018,10.018,0,0,0,2.115,1.447,11.038,11.038,0,0,0,15.277-5.652l.063-.155.033-.082a1.119,1.119,0,0,1,.077-.158,1.063,1.063,0,0,1,.515-.445,1.028,1.028,0,0,1,.333-.075c.132,0,.137,0,.211,0l.349.007,1.4.027,22.346.481-22.346.481-1.4.027-.349.006c-.042,0-.153,0-.138,0l0,0a.021.021,0,0,0,0,.009h0l-.029.082-.061.171a12.147,12.147,0,0,1-5.6,6.576,12.634,12.634,0,0,1-11.5.329,12.592,12.592,0,0,1-4.644-3.775,12.492,12.492,0,0,1-1.533-2.613l-.288-.7c-.086-.237-.155-.48-.233-.72l-.114-.361a.536.536,0,0,0,.174.278.6.6,0,0,0,.113.072l-.171-.075-.341-.15a15.515,15.515,0,0,1-8.187-8.461,15.863,15.863,0,0,1-1.15-5.93c.009-1.05.087-1.939.143-2.875l.177-2.787.714-11.174a17.89,17.89,0,0,1,5-10.926,18.226,18.226,0,0,1,4.906-3.631c.225-.119.465-.227.7-.338l.089-.042a1.188,1.188,0,0,0-.164.087,1.15,1.15,0,0,0-.277.249,1.169,1.169,0,0,0-.191.347c-.02.042-.052.2-.037.126l.018-.085.282-1.368.565-2.737,2.257-10.948,1.129-5.474.565-2.737a24.237,24.237,0,0,1,.73-2.91,21.855,21.855,0,0,1,6.887-9.9,22.339,22.339,0,0,1,10.988-5c.511-.07,1.026-.125,1.543-.156s1.07-.04,1.51-.039l2.793-.006,5.587-.012,11.173-.022,11.172.024,5.587.012,2.793.005a27.317,27.317,0,0,1,2.99.113,22.751,22.751,0,0,1,18.317,14.349,20.875,20.875,0,0,1,.822,2.95l.563,2.73,1.126,5.461,2.253,10.923.563,2.731.282,1.366.14.682a1.125,1.125,0,0,0-.3-.513,1.184,1.184,0,0,0-.334-.224l.16.076a18.232,18.232,0,0,1,5.042,3.451,17.936,17.936,0,0,1,5.4,10.724c.119,1.055.144,1.922.213,2.867l.179,2.787L737,758.9c.112,1.873.254,3.685.344,5.608a16.172,16.172,0,0,1-.891,5.97,15.566,15.566,0,0,1-7.806,8.823l-.69.306-.345.152-.086.038a.451.451,0,0,0,.062-.033.57.57,0,0,0,.142-.123.523.523,0,0,0,.087-.15s.028-.092.01-.035l-.028.091-.114.361c-.082.239-.14.484-.242.717a12.567,12.567,0,0,1-3.387,4.962,13.4,13.4,0,0,1-2.463,1.727,12.7,12.7,0,0,1-11.5.249,12.244,12.244,0,0,1-4.492-3.737,12.466,12.466,0,0,1-1.437-2.543c-.091-.225-.182-.451-.26-.68l-.055-.153,0,0a.052.052,0,0,0-.018-.02l-1.287-.028Z" transform="translate(-622.586 -692.807)"/>
      <path id="路径_1473" data-name="路径 1473" d="M673.266,811.743c3.806-.451,7.613-.688,11.418-.848,1.9-.1,3.807-.123,5.71-.182l5.71-.061,5.709.057c1.9.061,3.807.08,5.71.182,3.806.16,7.612.4,11.418.852-3.806.454-7.612.691-11.418.852-1.9.1-3.806.121-5.71.181l-5.709.057-5.71-.06c-1.9-.059-3.806-.082-5.71-.182C680.879,812.431,677.072,812.194,673.266,811.743Z" transform="translate(-638.712 -730.303)"/>
      <path id="路径_1474" data-name="路径 1474" class="cls-6" d="M628.487,716.717" transform="translate(-624.464 -700.415)"/>
    </g>
  </g>
</svg>
