<svg xmlns="http://www.w3.org/2000/svg" xmlns:xlink="http://www.w3.org/1999/xlink" width="180" height="180" viewBox="0 0 180 180">
  <defs>
    <style>
      .cls-1 {
        fill: #e0fdfa;
      }

      .cls-2 {
        fill: url(#linear-gradient);
      }

      .cls-3 {
        fill: #fff;
        opacity: 0.15;
      }

      .cls-4 {
        fill: #002212;
      }

      .cls-5 {
        fill: url(#linear-gradient-2);
      }
    </style>
    <linearGradient id="linear-gradient" y1="0.5" x2="1" y2="0.5" gradientUnits="objectBoundingBox">
      <stop offset="0" stop-color="#fff21f"/>
      <stop offset="0.02" stop-color="#f4ee26"/>
      <stop offset="0.135" stop-color="#bbdb4e"/>
      <stop offset="0.254" stop-color="#89ca72"/>
      <stop offset="0.373" stop-color="#5fbc90"/>
      <stop offset="0.493" stop-color="#3cb0a8"/>
      <stop offset="0.615" stop-color="#22a7bb"/>
      <stop offset="0.738" stop-color="#0fa1c9"/>
      <stop offset="0.865" stop-color="#039dd1"/>
      <stop offset="1" stop-color="#009cd4"/>
    </linearGradient>
    <linearGradient id="linear-gradient-2" y1="0.5" x2="1" y2="0.5" gradientUnits="objectBoundingBox">
      <stop offset="0" stop-color="#15ff79"/>
      <stop offset="1" stop-color="#187fc4" stop-opacity="0"/>
    </linearGradient>
  </defs>
  <g id="组_2228" data-name="组 2228" transform="translate(-124.031 -101.325)">
    <circle id="椭圆_266" data-name="椭圆 266" class="cls-1" cx="90" cy="90" r="90" transform="translate(124.031 101.325)"/>
    <g id="组_2226" data-name="组 2226" transform="translate(166.67 137.498)">
      <path id="路径_1475" data-name="路径 1475" class="cls-2" d="M187.579,166.3c-.693,9.317-1.765,36.842,7.535,56.348,9.616,20.171,32.523,34.791,39,38.623,6.473-3.832,29.381-18.453,39-38.623,9.31-19.527,8.232-47.035,7.537-56.348a84.272,84.272,0,0,1-13.661,1.16,63.159,63.159,0,0,1-9.586-.7,47.956,47.956,0,0,1-23.286-10.276,47.944,47.944,0,0,1-23.285,10.276,63.15,63.15,0,0,1-9.586.7A84.408,84.408,0,0,1,187.579,166.3Z" transform="translate(-186.751 -155.049)"/>
      <path id="路径_1476" data-name="路径 1476" d="M214.448,179.869a40.913,40.913,0,0,1-4.8.836c-1.619.171-3.249.288-4.881.309s-3.267,0-4.9-.119-3.259-.273-4.882-.5l1.075-.843c-.2,3.94-.25,7.89-.189,11.833.046,1.971.1,3.942.2,5.91s.271,3.93.422,5.894a108.9,108.9,0,0,0,1.692,11.687,76,76,0,0,0,3.211,11.417,50,50,0,0,1-4.547-11.09,76.743,76.743,0,0,1-2.363-11.8c-.25-1.99-.425-3.989-.551-5.989s-.218-4-.22-6.005.011-4.005.087-6.005c.1-2,.227-4,.413-5.992l.1-1.034.979.19c1.565.3,3.143.567,4.728.77s3.178.385,4.777.492,3.2.194,4.812.187Q212.022,180.038,214.448,179.869Z" transform="translate(-188.842 -162.016)"/>
      <path id="路径_1477" data-name="路径 1477" class="cls-3" d="M205.452,203.817a69.8,69.8,0,0,1,8.272-33.059c-.942.2-1.9.39-2.9.544a63.151,63.151,0,0,1-9.586.7,84.408,84.408,0,0,1-13.66-1.16c-.693,9.317-1.765,36.842,7.535,56.348,9.616,20.171,32.523,34.791,39,38.623,1.022-.6,2.455-1.48,4.178-2.6A70.064,70.064,0,0,1,205.452,203.817Z" transform="translate(-186.751 -159.59)"/>
      <path id="路径_1478" data-name="路径 1478" d="M187.4,165.626a173.984,173.984,0,0,0,1.085,28.143,113.693,113.693,0,0,0,2.588,13.769,68.175,68.175,0,0,0,4.607,13.1,65.386,65.386,0,0,0,7.364,11.673,88.186,88.186,0,0,0,9.463,10.158,132.244,132.244,0,0,0,22.34,16.581h-1.831a134.487,134.487,0,0,0,11.5-7.849,120.815,120.815,0,0,0,10.6-8.984,87.815,87.815,0,0,0,9.276-10.235,65,65,0,0,0,7.123-11.65,67.46,67.46,0,0,0,4.379-13.006,111.742,111.742,0,0,0,2.324-13.679,163.389,163.389,0,0,0,.55-27.894l1.977,1.551a82.308,82.308,0,0,1-12.462,1.055,63.281,63.281,0,0,1-12.509-1.051c-1.038-.175-2.058-.44-3.083-.672-1.014-.282-2.033-.543-3.03-.88a46.387,46.387,0,0,1-5.866-2.3,47.493,47.493,0,0,1-10.571-6.79h1.415A46.2,46.2,0,0,1,223.9,163.08a48.4,48.4,0,0,1-5.878,2.09c-.995.3-2.009.528-3.016.776-1.019.2-2.03.428-3.058.569a61.639,61.639,0,0,1-12.343.605A83.1,83.1,0,0,1,187.4,165.626Zm0,0a86.637,86.637,0,0,0,12.218.793,61.688,61.688,0,0,0,12.1-1.173c1-.176,1.971-.442,2.952-.672.97-.281,1.944-.539,2.9-.871a47.105,47.105,0,0,0,15.655-8.737l.684-.587.731.587a45.07,45.07,0,0,0,10.227,6.121,48.642,48.642,0,0,0,11.418,3.367,60.256,60.256,0,0,0,11.937.727,87.569,87.569,0,0,0,11.961-1.233l1.83-.314.148,1.865q.565,7.126.522,14.265c-.031,4.759-.233,9.525-.713,14.278a115.513,115.513,0,0,1-2.343,14.168,71.324,71.324,0,0,1-4.565,13.745,64.434,64.434,0,0,1-7.578,12.4A91.56,91.56,0,0,1,257.755,245a128.317,128.317,0,0,1-22.911,17.148l-.927.547-.905-.547a134.292,134.292,0,0,1-11.819-8.075,117.394,117.394,0,0,1-10.853-9.324A91.182,91.182,0,0,1,200.8,234.03a64.064,64.064,0,0,1-7.338-12.38A70.389,70.389,0,0,1,189.135,208a113.738,113.738,0,0,1-2.076-14.078A155.212,155.212,0,0,1,187.4,165.626Z" transform="translate(-186.569 -154.379)"/>
    </g>
    <path id="路径_1479" data-name="路径 1479" class="cls-4" d="M251.976,205.062c-.162,0-.325,0-.488.014a8.806,8.806,0,0,0-8.206,8.606,8.7,8.7,0,0,0,5.12,7.992,2.726,2.726,0,0,1,1.6,2.484V235.03a1.97,1.97,0,1,0,3.94,0V224.157a2.726,2.726,0,0,1,1.6-2.484,8.689,8.689,0,0,0-3.571-16.611Z" transform="translate(-37.943 -33.007)"/>
    <path id="路径_1480" data-name="路径 1480" class="cls-5" d="M251.815,237.183a2.313,2.313,0,0,1-2.311-2.311V224a2.391,2.391,0,0,0-1.4-2.174,9.043,9.043,0,0,1-5.32-8.305,9.152,9.152,0,0,1,8.528-8.943,9.03,9.03,0,0,1,4.219,17.249,2.39,2.39,0,0,0-1.4,2.174v10.874A2.314,2.314,0,0,1,251.815,237.183Zm0-31.938c-.156,0-.312,0-.47.012a8.46,8.46,0,0,0-7.883,8.268,8.361,8.361,0,0,0,4.919,7.678,3.073,3.073,0,0,1,1.8,2.795v10.874a1.629,1.629,0,0,0,3.258,0V224a3.074,3.074,0,0,1,1.8-2.795,8.349,8.349,0,0,0-3.431-15.959Z" transform="translate(-37.784 -32.849)"/>
    <circle id="椭圆_267" data-name="椭圆 267" cx="6.007" cy="6.007" r="6.007" transform="translate(270.454 147.915)"/>
    <g id="组_2227" data-name="组 2227" transform="translate(150.484 138.044)">
      <path id="路径_1481" data-name="路径 1481" d="M314.786,156.952a21.843,21.843,0,0,1,6.67,1.847,10.535,10.535,0,0,1,4.6,4.019,8.475,8.475,0,0,1,2.076-.266c.11,0,.217.012.327.016-.089-.171-.173-.344-.27-.511a12.456,12.456,0,0,0-5.915-5.028,23.248,23.248,0,0,0-7.309-1.732,53.127,53.127,0,0,0-14.6,1.163,97.492,97.492,0,0,0-13.947,4.064,111.762,111.762,0,0,1,14.11-3.138A53.415,53.415,0,0,1,314.786,156.952Z" transform="translate(-202.153 -155.18)"/>
      <path id="路径_1482" data-name="路径 1482" d="M284.961,189.585c-.642,1.233-1.341,2.442-2.108,3.614a70.366,70.366,0,0,1-4.141,5.754,105.149,105.149,0,0,1-9.7,10.465,165.681,165.681,0,0,1-22.484,17.765,192.124,192.124,0,0,1-24.963,14.175,136.83,136.83,0,0,1-26.911,9.716q-3.479.808-7.006,1.311a58.828,58.828,0,0,1-7.063.518,29.561,29.561,0,0,1-6.953-.7,14.687,14.687,0,0,1-6.1-2.885,4.36,4.36,0,0,1-.611-.57c-.19-.2-.4-.392-.577-.605a10.447,10.447,0,0,1-.944-1.379,9.538,9.538,0,0,1-1.14-3.169l-.138-.848-.05-.864a16.866,16.866,0,0,1,.018-1.741,22.324,22.324,0,0,1,.592-3.478,33.819,33.819,0,0,1,2.551-6.684,58.231,58.231,0,0,1,3.613-6.261,42.811,42.811,0,0,0-7.074,12.689,21.386,21.386,0,0,0-.821,3.62,18.116,18.116,0,0,0-.112,1.877l.01.948.106.948a10.946,10.946,0,0,0,1.125,3.671,12.076,12.076,0,0,0,1.022,1.658c.2.259.423.492.635.74a5.562,5.562,0,0,0,.679.7,16.335,16.335,0,0,0,6.734,3.534,31.589,31.589,0,0,0,7.4,1.033,54.69,54.69,0,0,0,7.4-.309q3.665-.425,7.273-1.155a110.289,110.289,0,0,0,14.129-3.929c4.618-1.592,9.138-3.443,13.578-5.459a189.961,189.961,0,0,0,25.493-14.268,164.543,164.543,0,0,0,22.827-18.282,108.285,108.285,0,0,0,9.811-10.945,58.582,58.582,0,0,0,6.533-10.375A8.419,8.419,0,0,1,284.961,189.585Z" transform="translate(-162.829 -166.127)"/>
    </g>
  </g>
</svg>
