<svg xmlns="http://www.w3.org/2000/svg" width="20" height="20" viewBox="0 0 20 20">
  <g id="组_1933" data-name="组 1933" transform="translate(-530.052 -871.73)">
    <path id="路径_1358" data-name="路径 1358" d="M542.354,875.6v2.464a4.944,4.944,0,0,1,0,7.329v2.464a6.993,6.993,0,0,0,0-12.257Z"/>
    <path id="路径_1359" data-name="路径 1359" d="M539.281,875.828v11.8l-3.176-2.478a1.994,1.994,0,0,0-1.23-.424h-2.823v-6h2.823a2,2,0,0,0,1.23-.423l3.176-2.479m2-4.1-6.406,5h-4.823v10h4.823l6.406,5v-20Z"/>
    <g id="组_1898" data-name="组 1898">
      <rect id="矩形_787" data-name="矩形 787" width="2.641" height="2" transform="translate(546.771 874.436) rotate(-45)"/>
      <rect id="矩形_788" data-name="矩形 788" width="2" height="2.641" transform="translate(546.771 889.025) rotate(-45)"/>
      <rect id="矩形_789" data-name="矩形 789" width="2.641" height="2" transform="translate(547.411 880.73)"/>
    </g>
  </g>
</svg>
