<svg xmlns="http://www.w3.org/2000/svg" width="50" height="49.999" viewBox="0 0 50 49.999">
  <defs>
    <style>
      .cls-1 {
        fill: #01c1ae;
      }
    </style>
  </defs>
  <g id="组_539" data-name="组 539" transform="translate(-1553.351 -119.491)">
    <path id="路径_564" data-name="路径 564" class="cls-1" d="M1578.338,169.49a25,25,0,0,1-.424-50l.443,0a25.028,25.028,0,0,1,24.99,24.562h0a25.03,25.03,0,0,1-24.56,25.432C1578.638,169.489,1578.488,169.49,1578.338,169.49Zm.018-47.272-.395,0a22.273,22.273,0,1,0,22.658,21.88h0A22.3,22.3,0,0,0,1578.356,122.218Z" transform="translate(0 0)"/>
    <path id="路径_565" data-name="路径 565" class="cls-1" d="M1576.025,146.132h8.047v-4.7h4l-8.025-12.56-8.026,12.56h4Z" transform="translate(-1.698 -0.853)"/>
    <rect id="矩形_445" data-name="矩形 445" class="cls-1" width="8.047" height="3.788" transform="translate(1574.327 152.324)"/>
    <rect id="矩形_446" data-name="矩形 446" class="cls-1" width="8.047" height="3.788" transform="translate(1574.327 146.907)"/>
    <path id="路径_566" data-name="路径 566" class="cls-1" d="M1576.425,166.362a18.256,18.256,0,0,0,8.047.019v-4.815h-8.047Z" transform="translate(-2.098 -3.825)"/>
    <path id="路径_567" data-name="路径 567" class="cls-1" d="M1598.819,150.092a3.3,3.3,0,0,0-5.03,0c-.458.442-.7.655-1.253.655s-.795-.213-1.252-.655a3.364,3.364,0,0,0-2.515-1.164c-.027,0-.051,0-.078,0v1.822c.028,0,.048-.008.078-.008.55,0,.795.212,1.253.655a3.3,3.3,0,0,0,5.03,0c.458-.443.7-.655,1.253-.655s.794.212,1.252.654a3.673,3.673,0,0,0,1.736,1.071q.259-.865.433-1.763A1.978,1.978,0,0,1,1598.819,150.092Z" transform="translate(-3.213 -2.676)"/>
    <path id="路径_568" data-name="路径 568" class="cls-1" d="M1596.3,155.442a3.365,3.365,0,0,0-2.516,1.165c-.458.442-.7.654-1.253.654s-.795-.212-1.252-.654a3.364,3.364,0,0,0-2.515-1.165c-.027,0-.051,0-.078.005v1.822c.028,0,.048-.009.078-.009.55,0,.795.213,1.253.655a3.3,3.3,0,0,0,5.03,0c.458-.442.7-.655,1.253-.655a1.278,1.278,0,0,1,.916.348q.488-.776.9-1.6A3.03,3.03,0,0,0,1596.3,155.442Z" transform="translate(-3.213 -3.269)"/>
    <path id="路径_569" data-name="路径 569" class="cls-1" d="M1591.285,163.121a3.364,3.364,0,0,0-2.515-1.164c-.027,0-.051,0-.078,0v1.822c.028,0,.048-.008.078-.008.55,0,.795.212,1.253.654.078.075.163.155.252.236a18.637,18.637,0,0,0,1.689-1.016A2.687,2.687,0,0,1,1591.285,163.121Z" transform="translate(-3.213 -3.861)"/>
    <path id="路径_570" data-name="路径 570" class="cls-1" d="M1571.922,163.775a1.224,1.224,0,0,1,.73.213v-1.947a3.267,3.267,0,0,0-.73-.084,3.361,3.361,0,0,0-2.514,1.164c-.123.119-.229.218-.331.3a18.318,18.318,0,0,0,1.587,1.012l.008-.007C1571.13,163.987,1571.373,163.775,1571.922,163.775Z" transform="translate(-1.43 -3.861)"/>
    <path id="路径_571" data-name="路径 571" class="cls-1" d="M1565.046,157.915a3.3,3.3,0,0,0,5.028,0c.456-.442.7-.655,1.249-.655a1.23,1.23,0,0,1,.73.213v-1.946a3.263,3.263,0,0,0-.73-.085,3.361,3.361,0,0,0-2.514,1.165c-.456.442-.7.654-1.249.654s-.795-.212-1.252-.654a3.36,3.36,0,0,0-2.514-1.165,3.075,3.075,0,0,0-1.306.275q.4.832.872,1.614a1.348,1.348,0,0,1,.435-.07C1564.345,157.26,1564.589,157.473,1565.046,157.915Z" transform="translate(-0.831 -3.269)"/>
    <path id="路径_572" data-name="路径 572" class="cls-1" d="M1563.644,150.746c.55,0,.794.212,1.251.654a3.3,3.3,0,0,0,5.028,0c.456-.442.7-.654,1.249-.654a1.224,1.224,0,0,1,.73.213v-1.947a3.266,3.266,0,0,0-.73-.084,3.358,3.358,0,0,0-2.514,1.165c-.456.441-.7.654-1.249.654s-.795-.213-1.252-.654a3.293,3.293,0,0,0-5.026,0c-.113.109-.212.2-.306.285a18.386,18.386,0,0,0,.43,1.88,4.411,4.411,0,0,0,1.14-.857C1562.852,150.958,1563.1,150.746,1563.644,150.746Z" transform="translate(-0.68 -2.676)"/>
  </g>
</svg>
