<svg xmlns="http://www.w3.org/2000/svg" width="50" height="49.999" viewBox="0 0 50 49.999">
  <defs>
    <style>
      .cls-1 {
        fill: #01c1ae;
      }
    </style>
  </defs>
  <g id="组_582" data-name="组 582" transform="translate(-350.551 -644.418)">
    <path id="路径_700" data-name="路径 700" class="cls-1" d="M375.537,694.417a25,25,0,0,1-.423-50c.147,0,.3,0,.442,0a25.03,25.03,0,0,1,24.991,24.562h0a25.031,25.031,0,0,1-24.56,25.433C375.836,694.417,375.686,694.417,375.537,694.417Zm.018-47.272c-.132,0-.262,0-.394,0a22.272,22.272,0,1,0,22.658,21.88h0A22.3,22.3,0,0,0,375.555,647.145Z"/>
    <path id="路径_701" data-name="路径 701" class="cls-1" d="M395.11,671.428h-.022a.908.908,0,0,1-.887-.93c.005-.216.006-.436,0-.655a16.2,16.2,0,0,0-15.272-15.849.91.91,0,0,1,.1-1.817,18.026,18.026,0,0,1,16.993,17.633q.007.365,0,.731A.909.909,0,0,1,395.11,671.428Z" transform="translate(-2.502 -0.705)"/>
    <path id="路径_702" data-name="路径 702" class="cls-1" d="M376.245,688.343a17.974,17.974,0,0,1-17.961-17.658,18.061,18.061,0,0,1,8.564-15.629.909.909,0,1,1,.954,1.548,16.233,16.233,0,0,0-7.7,14.049,16.153,16.153,0,0,0,16.433,15.869,16.232,16.232,0,0,0,2.985-.328.909.909,0,0,1,.365,1.781,18.156,18.156,0,0,1-3.317.365Z" transform="translate(-0.703 -0.955)"/>
    <path id="路径_703" data-name="路径 703" class="cls-1" d="M366.826,673.222a.91.91,0,0,1-.9-.776,11.131,11.131,0,1,1,22.091-2.7.909.909,0,0,1-.819.991.893.893,0,0,1-.991-.819,9.313,9.313,0,1,0-18.483,2.262.911.911,0,0,1-.765,1.034A.95.95,0,0,1,366.826,673.222Z" transform="translate(-1.387 -1.387)"/>
    <path id="路径_704" data-name="路径 704" class="cls-1" d="M377.4,683.814a11.066,11.066,0,0,1-6.078-1.808.909.909,0,0,1,.994-1.522,9.207,9.207,0,0,0,5.252,1.51,9.481,9.481,0,0,0,.971-.066.9.9,0,0,1,1.012.792.907.907,0,0,1-.792,1.012,11.064,11.064,0,0,1-1.159.081Z" transform="translate(-1.851 -3.266)"/>
    <circle id="椭圆_214" data-name="椭圆 214" class="cls-1" cx="3.632" cy="3.632" r="3.632" transform="translate(371.919 665.786)"/>
    <circle id="椭圆_215" data-name="椭圆 215" class="cls-1" cx="2.698" cy="2.698" r="2.698" transform="translate(368.643 650.25)"/>
    <circle id="椭圆_216" data-name="椭圆 216" class="cls-1" cx="2.093" cy="2.093" r="2.093" transform="translate(364.912 672.726)"/>
    <path id="路径_705" data-name="路径 705" class="cls-1" d="M378.051,671.918l7.51,16.277a17.95,17.95,0,0,0,10-12.492Z" transform="translate(-2.5 -2.5)"/>
  </g>
</svg>
