<svg xmlns="http://www.w3.org/2000/svg" width="50" height="49.999" viewBox="0 0 50 49.999">
  <defs>
    <style>
      .cls-1 {
        fill: #01c1ae;
      }
    </style>
  </defs>
  <g id="组_530" data-name="组 530" transform="translate(-694.208 -119.491)">
    <path id="路径_531" data-name="路径 531" class="cls-1" d="M719.2,169.49a25,25,0,0,1-.43-50l.443,0a25,25,0,0,1,.431,50C719.5,169.489,719.349,169.49,719.2,169.49Zm.012-47.272-.394,0a22.273,22.273,0,0,0,.384,44.542c.132,0,.263,0,.395,0a22.272,22.272,0,0,0-.384-44.541Z" transform="translate(0)"/>
    <path id="路径_532" data-name="路径 532" class="cls-1" d="M731.952,133s-8.511-7.842-23.8,6.642l-8.454,7.915a20.106,20.106,0,0,0,.713,3.655l5.044-4.834s6.985,2.336,7.933,1.574Z" transform="translate(-0.499 -1.035)"/>
    <rect id="矩形_442" data-name="矩形 442" class="cls-1" width="1.818" height="10.247" transform="translate(725.626 146.777) rotate(-39.19)"/>
    <rect id="矩形_443" data-name="矩形 443" class="cls-1" width="1.818" height="7.969" transform="matrix(0.974, -0.226, 0.226, 0.974, 717.421, 149.887)"/>
    <rect id="矩形_444" data-name="矩形 444" class="cls-1" width="1.818" height="7.969" transform="translate(731.511 141.023) rotate(-61.725)"/>
    <path id="路径_533" data-name="路径 533" class="cls-1" d="M718.014,148.3c2.335-.481,5.558-2.2,8.685-4.79s5.408-5.444,6.312-7.649Z" transform="translate(-2.164 -1.488)"/>
  </g>
</svg>
