<svg xmlns="http://www.w3.org/2000/svg" width="50" height="49.999" viewBox="0 0 50 49.999">
  <defs>
    <style>
      .cls-1 {
        fill: #01c1ae;
      }
    </style>
  </defs>
  <g id="组_538" data-name="组 538" transform="translate(-1381.522 -119.491)">
    <path id="路径_552" data-name="路径 552" class="cls-1" d="M1390.018,142.359a.905.905,0,0,1-.889-1.1,18.487,18.487,0,0,1,36.149,0,.909.909,0,1,1-1.777.379,16.67,16.67,0,0,0-32.594,0A.909.909,0,0,1,1390.018,142.359Z" transform="translate(-0.69 -0.652)"/>
    <path id="路径_553" data-name="路径 553" class="cls-1" d="M1406.51,169.49a25,25,0,0,1-.425-50l.443,0a25.029,25.029,0,0,1,24.99,24.562h0a25.031,25.031,0,0,1-24.56,25.432C1406.809,169.488,1406.659,169.49,1406.51,169.49Zm.017-47.271-.394,0a22.272,22.272,0,1,0,22.658,21.879h0A22.3,22.3,0,0,0,1406.527,122.218Z" transform="translate(0)"/>
    <g id="组_537" data-name="组 537" transform="translate(1390.392 126.006)">
      <g id="组_536" data-name="组 536">
        <path id="路径_554" data-name="路径 554" class="cls-1" d="M1408.932,130.13a.908.908,0,0,1-.909-.909v-1.654a.909.909,0,0,1,1.818,0v1.654A.909.909,0,0,1,1408.932,130.13Z" transform="translate(-1392.801 -126.658)"/>
        <path id="路径_555" data-name="路径 555" class="cls-1" d="M1400.093,132.5a.909.909,0,0,1-.788-.455l-.828-1.434a.909.909,0,0,1,1.575-.909l.827,1.434a.909.909,0,0,1-.786,1.364Z" transform="translate(-1391.922 -126.893)"/>
        <path id="路径_556" data-name="路径 556" class="cls-1" d="M1393.621,138.969a.9.9,0,0,1-.454-.122l-1.433-.827a.909.909,0,1,1,.909-1.575l1.433.826a.91.91,0,0,1-.455,1.7Z" transform="translate(-1391.279 -127.537)"/>
        <path id="路径_557" data-name="路径 557" class="cls-1" d="M1424.1,138.969a.909.909,0,0,1-.455-1.7l1.433-.826a.909.909,0,1,1,.909,1.575l-1.433.827A.906.906,0,0,1,1424.1,138.969Z" transform="translate(-1394.181 -127.537)"/>
        <path id="路径_558" data-name="路径 558" class="cls-1" d="M1417.686,132.5a.909.909,0,0,1-.786-1.364l.827-1.434a.909.909,0,0,1,1.575.909l-.827,1.434A.912.912,0,0,1,1417.686,132.5Z" transform="translate(-1393.598 -126.893)"/>
      </g>
    </g>
    <path id="路径_559" data-name="路径 559" class="cls-1" d="M1408.935,134.626l-3.371,11.271,3.371,6.7,3.371-6.7Z" transform="translate(-2.186 -1.376)"/>
    <path id="路径_560" data-name="路径 560" class="cls-1" d="M1422.093,155.442a3.36,3.36,0,0,0-2.515,1.164c-.458.443-.7.655-1.253.655s-.795-.212-1.253-.655a3.3,3.3,0,0,0-5.03,0c-.458.442-.7.654-1.252.654s-.794-.212-1.252-.654a3.3,3.3,0,0,0-5.027,0c-.457.442-.7.654-1.251.654s-.795-.212-1.253-.655a3.3,3.3,0,0,0-5.028,0c-.456.442-.7.654-1.249.654s-.795-.212-1.252-.654a3.355,3.355,0,0,0-2.513-1.165,3.076,3.076,0,0,0-1.307.275q.4.832.872,1.614a1.349,1.349,0,0,1,.435-.07c.549,0,.794.213,1.251.654a3.3,3.3,0,0,0,5.027,0c.456-.441.7-.654,1.249-.654s.794.213,1.252.654a3.3,3.3,0,0,0,5.028,0c.457-.441.7-.654,1.251-.654s.794.213,1.252.654a3.3,3.3,0,0,0,5.028,0c.458-.442.7-.655,1.253-.655s.795.213,1.253.655a3.3,3.3,0,0,0,5.03,0c.458-.442.7-.655,1.253-.655a1.275,1.275,0,0,1,.916.348q.49-.776.9-1.6A3.034,3.034,0,0,0,1422.093,155.442Z" transform="translate(-0.831 -3.269)"/>
    <path id="路径_561" data-name="路径 561" class="cls-1" d="M1417.672,163.121a3.3,3.3,0,0,0-5.03,0c-.458.441-.7.654-1.252.654s-.794-.213-1.252-.654a3.3,3.3,0,0,0-5.027,0c-.457.441-.7.654-1.251.654s-.795-.213-1.253-.655a3.3,3.3,0,0,0-5.028,0c-.122.118-.229.217-.33.3a18.458,18.458,0,0,0,1.586,1.013l.008-.008c.456-.442.7-.654,1.249-.654s.794.212,1.252.654a3.3,3.3,0,0,0,5.028,0c.457-.442.7-.654,1.251-.654s.794.212,1.252.654a3.3,3.3,0,0,0,5.028,0c.458-.443.7-.655,1.253-.655s.795.212,1.253.655c.078.075.163.155.252.235a18.2,18.2,0,0,0,1.689-1.016A2.7,2.7,0,0,1,1417.672,163.121Z" transform="translate(-1.43 -3.862)"/>
    <path id="路径_562" data-name="路径 562" class="cls-1" d="M1426.677,150.092a3.3,3.3,0,0,0-5.029,0c-.458.442-.7.655-1.253.655s-.795-.213-1.253-.655a3.362,3.362,0,0,0-2.515-1.164,3.027,3.027,0,0,0-1.755.525l-1.455,3.063a3.533,3.533,0,0,0,1.958-1.115c.458-.442.7-.654,1.253-.654s.795.212,1.253.654a3.3,3.3,0,0,0,5.03,0c.458-.442.7-.654,1.253-.654s.794.212,1.252.654a3.677,3.677,0,0,0,1.737,1.071q.258-.865.432-1.763A1.977,1.977,0,0,1,1426.677,150.092Z" transform="translate(-2.9 -2.677)"/>
    <path id="路径_563" data-name="路径 563" class="cls-1" d="M1398.094,151.4c.456-.442.7-.654,1.249-.654s.794.212,1.252.654a3.362,3.362,0,0,0,2.515,1.165,3.279,3.279,0,0,0,.668-.072l-1.147-1.834a2.309,2.309,0,0,1-.774-.567,3.3,3.3,0,0,0-5.028,0c-.456.442-.7.655-1.249.655s-.795-.213-1.252-.655a3.294,3.294,0,0,0-5.025,0c-.113.109-.212.2-.306.285a18.2,18.2,0,0,0,.431,1.88,4.407,4.407,0,0,0,1.14-.858c.456-.441.7-.653,1.248-.653s.794.212,1.251.654a3.3,3.3,0,0,0,5.027,0Z" transform="translate(-0.68 -2.677)"/>
  </g>
</svg>
