<svg xmlns="http://www.w3.org/2000/svg" width="50" height="49.999" viewBox="0 0 50 49.999">
  <defs>
    <style>
      .cls-1 {
        fill: #01C1AE;
      }
    </style>
  </defs>
  <g id="组_523" data-name="组 523" transform="translate(-350.551 -119.491)">
    <path id="路径_517" data-name="路径 517" class="cls-1" d="M375.544,169.49a25,25,0,0,1-.43-50l.443,0a25,25,0,0,1,.43,50C375.84,169.489,375.692,169.49,375.544,169.49Zm.012-47.272-.395,0a22.31,22.31,0,1,0,.395,0Z" transform="translate(0)"/>
    <path id="路径_518" data-name="路径 518" class="cls-1" d="M391.65,134.843H361.089a1.605,1.605,0,0,0-1.605,1.6v.774c0,.886-.069.912.086.9H393.21s.045-.01.045-.9v-.774A1.605,1.605,0,0,0,391.65,134.843Z" transform="translate(-0.811 -1.396)"/>
    <path id="路径_519" data-name="路径 519" class="cls-1" d="M359.485,141.09v3.572a1.606,1.606,0,0,0,1.605,1.605h4.21c-.008.071-.039,7.854-.039,7.854a1.659,1.659,0,0,0,1.605,1.706h19.008a1.659,1.659,0,0,0,1.605-1.706v-7.835l4.171-.019a1.606,1.606,0,0,0,1.605-1.605v-3.6ZM372,152.794h-3.636v-6.531H372Zm6.337,0H374.7v-6.531h3.636Zm6.044,0h-3.636v-6.531h3.636Z" transform="translate(-0.812 -1.962)"/>
    <g id="组_522" data-name="组 522" transform="translate(370.104 154.921)">
      <path id="路径_520" data-name="路径 520" class="cls-1" d="M377.969,166.514a.909.909,0,0,1-.909-.909v-6.232a.909.909,0,0,1,1.818,0V165.6A.909.909,0,0,1,377.969,166.514Z" transform="translate(-372.515 -158.464)"/>
      <path id="路径_521" data-name="路径 521" class="cls-1" d="M372.969,163.824a.909.909,0,0,1-.909-.909v-3.542a.909.909,0,0,1,1.818,0v3.542A.909.909,0,0,1,372.969,163.824Z" transform="translate(-372.06 -158.464)"/>
      <path id="路径_522" data-name="路径 522" class="cls-1" d="M382.969,163.824a.909.909,0,0,1-.909-.909v-3.542a.909.909,0,0,1,1.818,0v3.542A.909.909,0,0,1,382.969,163.824Z" transform="translate(-372.969 -158.464)"/>
    </g>
  </g>
</svg>
