<svg xmlns="http://www.w3.org/2000/svg" width="50" height="50" viewBox="0 0 50 50">
  <defs>
    <style>
      .cls-1 {
        fill: #01c1ae;
      }
    </style>
  </defs>
  <g id="组_532" data-name="组 532" transform="translate(-1037.865 -119.491)">
    <path id="路径_540" data-name="路径 540" class="cls-1" d="M1068.089,149.373V132.164a3.289,3.289,0,0,0-3.289-3.289h-.207a3.289,3.289,0,0,0-3.289,3.289v3.686h1.8a.87.87,0,1,1,0,1.739h-1.8v1.686h1.8a.87.87,0,0,1,0,1.74h-1.8v2.143h1.8a.87.87,0,0,1,0,1.74h-1.8v4.475a6.685,6.685,0,1,0,6.785,0Zm-3.393,9.048a3.295,3.295,0,1,1,3.3-3.295A3.295,3.295,0,0,1,1064.7,158.421Z" transform="translate(-1.832 -0.853)"/>
    <path id="路径_541" data-name="路径 541" class="cls-1" d="M1062.853,169.491a25,25,0,0,1-.425-50l.443,0a25.028,25.028,0,0,1,24.99,24.563h0a25.03,25.03,0,0,1-24.56,25.432C1063.152,169.489,1063,169.491,1062.853,169.491Zm.017-47.272-.394,0a22.273,22.273,0,0,0,.378,44.542c.132,0,.266,0,.4,0a22.3,22.3,0,0,0,21.881-22.659h0A22.3,22.3,0,0,0,1062.87,122.218Z"/>
    <path id="路径_542" data-name="路径 542" class="cls-1" d="M1053.937,143.018a.909.909,0,0,1-.909-.909V134.2a.909.909,0,1,1,1.818,0v7.906A.909.909,0,0,1,1053.937,143.018Z" transform="translate(-1.379 -1.255)"/>
    <path id="路径_543" data-name="路径 543" class="cls-1" d="M1048.187,149.548a.909.909,0,0,1-.909-.909v-4.271a.909.909,0,1,1,1.818,0v4.271A.909.909,0,0,1,1048.187,149.548Z" transform="translate(-0.856 -2.179)"/>
    <path id="路径_544" data-name="路径 544" class="cls-1" d="M1073.979,138.568a.909.909,0,0,1-.909-.909V134.2a.909.909,0,1,1,1.818,0v3.455A.909.909,0,0,1,1073.979,138.568Z" transform="translate(-3.201 -1.255)"/>
    <path id="路径_545" data-name="路径 545" class="cls-1" d="M1081.44,149.459a.909.909,0,0,1-.909-.909v-6.7a.909.909,0,1,1,1.818,0v6.7A.908.908,0,0,1,1081.44,149.459Z" transform="translate(-3.879 -1.95)"/>
  </g>
</svg>
