<svg xmlns="http://www.w3.org/2000/svg" width="50" height="50" viewBox="0 0 50 50">
  <defs>
    <style>
      .cls-1 {
        fill: #01c1ae;
      }
    </style>
  </defs>
  <g id="组_535" data-name="组 535" transform="translate(-1209.694 -119.491)">
    <path id="路径_546" data-name="路径 546" class="cls-1" d="M1234.687,169.491a25,25,0,0,1-.431-50l.444,0a25,25,0,0,1,.43,50C1234.983,169.489,1234.835,169.491,1234.687,169.491Zm.012-47.272-.395,0a22.273,22.273,0,0,0,.384,44.542c.132,0,.263,0,.395,0a22.272,22.272,0,0,0-.384-44.541Z"/>
    <g id="组_533" data-name="组 533" transform="translate(1219.167 132.331)">
      <path id="路径_547" data-name="路径 547" class="cls-1" d="M1246.56,136.554a.621.621,0,0,0-.587-.42h-6.533v-2.519h-6.714v2.519h-6.532a.621.621,0,0,0-.588.42l-.629,1.847h22.213Z" transform="translate(-1220.557 -133.615)"/>
      <path id="路径_548" data-name="路径 548" class="cls-1" d="M1250.378,140.214H1220.9a.789.789,0,0,0-.789.788v7.854a.79.79,0,0,0,.789.789h1.105v-5.511a.407.407,0,0,1,.407-.407h3.314a.407.407,0,0,1,.408.407v5.511l5.144.593v-5.918a.592.592,0,0,1,.593-.593h7.533a.592.592,0,0,1,.593.593v5.325h5.144v-5.511a.407.407,0,0,1,.408-.407h3.314a.407.407,0,0,1,.408.407v5.511h1.1a.789.789,0,0,0,.789-.789V141A.788.788,0,0,0,1250.378,140.214Z" transform="translate(-1220.115 -134.215)"/>
    </g>
    <g id="组_534" data-name="组 534" transform="translate(1216.489 146.252)">
      <path id="路径_549" data-name="路径 549" class="cls-1" d="M1245.844,163.122a3.3,3.3,0,0,0-5.03,0c-.458.442-.7.655-1.253.655s-.794-.213-1.252-.654a3.3,3.3,0,0,0-5.027,0c-.457.441-.7.654-1.251.654s-.793-.213-1.252-.654a3.3,3.3,0,0,0-5.028,0c-.123.118-.229.217-.331.3a18.449,18.449,0,0,0,1.586,1.012l.007-.007c.457-.442.7-.654,1.251-.654s.793.212,1.252.654a3.3,3.3,0,0,0,5.028,0c.457-.442.7-.654,1.251-.654s.794.212,1.252.654a3.3,3.3,0,0,0,5.029,0c.458-.443.7-.655,1.253-.655s.795.212,1.253.655c.078.075.163.155.251.235a18.423,18.423,0,0,0,1.689-1.016A2.73,2.73,0,0,1,1245.844,163.122Z" transform="translate(-1217.919 -150.113)"/>
      <path id="路径_550" data-name="路径 550" class="cls-1" d="M1250.265,155.442a3.362,3.362,0,0,0-2.516,1.164c-.458.443-.7.655-1.253.655s-.794-.212-1.252-.654a3.3,3.3,0,0,0-5.03,0c-.458.443-.7.655-1.253.655s-.794-.212-1.252-.654a3.3,3.3,0,0,0-5.027,0c-.457.442-.7.654-1.251.654s-.794-.212-1.252-.654a3.3,3.3,0,0,0-5.028,0c-.456.442-.7.654-1.249.654s-.794-.212-1.251-.654a3.359,3.359,0,0,0-2.515-1.165,3.082,3.082,0,0,0-1.307.275q.4.832.873,1.614a1.347,1.347,0,0,1,.435-.07c.55,0,.794.213,1.252.654a3.293,3.293,0,0,0,5.025,0c.457-.441.7-.654,1.251-.654s.794.213,1.252.654a3.3,3.3,0,0,0,5.028,0c.457-.441.7-.654,1.251-.654s.794.213,1.252.654a3.3,3.3,0,0,0,5.029,0c.458-.442.7-.655,1.253-.655s.795.213,1.253.655a3.3,3.3,0,0,0,5.029,0c.458-.442.7-.655,1.253-.655a1.277,1.277,0,0,1,.916.348c.326-.517.625-1.053.9-1.6A3.034,3.034,0,0,0,1250.265,155.442Z" transform="translate(-1217.32 -149.52)"/>
      <path id="路径_551" data-name="路径 551" class="cls-1" d="M1252.629,150.093a3.3,3.3,0,0,0-5.03,0c-.458.443-.7.655-1.253.655s-.794-.212-1.252-.654a3.3,3.3,0,0,0-5.03,0c-.458.443-.7.655-1.253.655s-.794-.212-1.252-.654a3.3,3.3,0,0,0-5.027,0c-.457.442-.7.654-1.251.654s-.794-.212-1.252-.654a3.3,3.3,0,0,0-5.028,0c-.456.442-.7.654-1.249.654s-.794-.212-1.251-.654a3.3,3.3,0,0,0-5.027,0c-.112.109-.211.2-.305.285a18.386,18.386,0,0,0,.43,1.88,4.407,4.407,0,0,0,1.14-.857c.456-.442.7-.654,1.248-.654s.794.212,1.252.654a3.293,3.293,0,0,0,5.025,0c.457-.442.7-.654,1.251-.654s.794.212,1.252.654a3.3,3.3,0,0,0,5.028,0c.457-.442.7-.654,1.251-.654s.794.212,1.252.654a3.3,3.3,0,0,0,5.029,0c.458-.443.7-.655,1.253-.655s.795.212,1.253.655a3.3,3.3,0,0,0,5.029,0c.458-.443.7-.655,1.253-.655s.794.212,1.253.655a3.681,3.681,0,0,0,1.735,1.07q.259-.865.433-1.763A1.979,1.979,0,0,1,1252.629,150.093Z" transform="translate(-1217.169 -148.928)"/>
    </g>
  </g>
</svg>
