<svg xmlns="http://www.w3.org/2000/svg" width="50" height="49.999" viewBox="0 0 50 49.999">
  <defs>
    <style>
      .cls-1 {
        fill: #FFF;
      }
    </style>
  </defs>
  <g id="组_521" data-name="组 521" transform="translate(-178.722 -119.491)">
    <path id="路径_511" data-name="路径 511" class="cls-1" d="M203.716,169.49a25,25,0,0,1-.431-50l.443,0a25,25,0,0,1,.431,49.995C204.011,169.488,203.863,169.49,203.716,169.49Zm.011-47.271-.394,0a22.31,22.31,0,1,0,.394,0Z"/>
    <g id="组_519" data-name="组 519" transform="translate(185.455 138.655)">
      <path id="路径_512" data-name="路径 512" class="cls-1" d="M186.128,148.963l3.594-.225a2.745,2.745,0,0,0,.475,1.335,2,2,0,0,0,1.668.743,1.847,1.847,0,0,0,1.246-.379,1.138,1.138,0,0,0,.438-.881,1.123,1.123,0,0,0-.416-.85A4.834,4.834,0,0,0,191.2,148a8.24,8.24,0,0,1-3.545-1.485,2.985,2.985,0,0,1-1.066-2.361,3.211,3.211,0,0,1,.545-1.781,3.628,3.628,0,0,1,1.644-1.317,7.658,7.658,0,0,1,3.006-.48,6.15,6.15,0,0,1,3.574.872,3.761,3.761,0,0,1,1.464,2.774l-3.562.208a1.663,1.663,0,0,0-1.851-1.576,1.516,1.516,0,0,0-.992.279.855.855,0,0,0-.335.68.68.68,0,0,0,.275.525,3.085,3.085,0,0,0,1.268.451,15.806,15.806,0,0,1,3.548,1.08,3.735,3.735,0,0,1,1.56,1.354,3.438,3.438,0,0,1,.488,1.811,3.87,3.87,0,0,1-.651,2.168,4.07,4.07,0,0,1-1.818,1.505,7.348,7.348,0,0,1-2.944.513q-3.12,0-4.321-1.2A4.735,4.735,0,0,1,186.128,148.963Z" transform="translate(-186.128 -140.572)"/>
      <path id="路径_513" data-name="路径 513" class="cls-1" d="M199.429,146.9a5.788,5.788,0,0,1,6.313-6.331,6.392,6.392,0,0,1,4.7,1.639A6.181,6.181,0,0,1,212.1,146.8a7.538,7.538,0,0,1-.721,3.515,5.147,5.147,0,0,1-2.085,2.135,6.888,6.888,0,0,1-3.4.763,7.824,7.824,0,0,1-3.424-.659,5.152,5.152,0,0,1-2.2-2.085A6.922,6.922,0,0,1,199.429,146.9Zm3.778.016a4.1,4.1,0,0,0,.689,2.661,2.6,2.6,0,0,0,3.756.016,4.519,4.519,0,0,0,.667-2.844,3.78,3.78,0,0,0-.7-2.524,2.381,2.381,0,0,0-1.889-.8,2.3,2.3,0,0,0-1.835.809A4.118,4.118,0,0,0,203.207,146.919Z" transform="translate(-187.338 -140.572)"/>
      <path id="路径_514" data-name="路径 514" class="cls-1" d="M214.409,148.963l3.594-.225a2.745,2.745,0,0,0,.475,1.335,2,2,0,0,0,1.668.743,1.851,1.851,0,0,0,1.247-.379,1.139,1.139,0,0,0,.437-.881,1.12,1.12,0,0,0-.416-.85A4.834,4.834,0,0,0,219.48,148a8.23,8.23,0,0,1-3.544-1.485,2.983,2.983,0,0,1-1.067-2.361,3.211,3.211,0,0,1,.545-1.781,3.628,3.628,0,0,1,1.644-1.317,7.662,7.662,0,0,1,3.007-.48,6.149,6.149,0,0,1,3.573.872,3.762,3.762,0,0,1,1.465,2.774l-3.562.208a1.664,1.664,0,0,0-1.851-1.576,1.517,1.517,0,0,0-.993.279.857.857,0,0,0-.334.68.679.679,0,0,0,.275.525,3.091,3.091,0,0,0,1.268.451,15.807,15.807,0,0,1,3.548,1.08,3.729,3.729,0,0,1,1.56,1.354,3.438,3.438,0,0,1,.488,1.811,3.87,3.87,0,0,1-.651,2.168,4.06,4.06,0,0,1-1.818,1.505,7.345,7.345,0,0,1-2.944.513q-3.12,0-4.321-1.2A4.735,4.735,0,0,1,214.409,148.963Z" transform="translate(-188.7 -140.572)"/>
    </g>
    <g id="组_520" data-name="组 520" transform="translate(188.268 126.158)">
      <path id="路径_515" data-name="路径 515" class="cls-1" d="M219.21,136.48a.908.908,0,0,1-.759-.408,16.5,16.5,0,0,0-27.561,0,.909.909,0,0,1-1.518-1,18.313,18.313,0,0,1,30.6,0,.909.909,0,0,1-.757,1.41Z" transform="translate(-189.222 -126.825)"/>
      <path id="路径_516" data-name="路径 516" class="cls-1" d="M204.673,166.191a18.255,18.255,0,0,1-15.286-8.246.909.909,0,0,1,1.516-1,16.493,16.493,0,0,0,27.56,0,.91.91,0,0,1,1.518,1A18.343,18.343,0,0,1,205,166.188Z" transform="translate(-189.224 -129.527)"/>
    </g>
  </g>
</svg>
