<svg xmlns="http://www.w3.org/2000/svg" width="20" height="20" viewBox="0 0 20 20">
  <g id="组_613" data-name="组 613" transform="translate(-407.938 -870)">
    <path id="路径_759" data-name="路径 759" d="M424.938,890h-14a3,3,0,0,1-3-3v-7h2v7a1,1,0,0,0,1,1h14a1,1,0,0,0,1-1V873a1,1,0,0,0-1-1h-7v-2h7a3,3,0,0,1,3,3v14A3,3,0,0,1,424.938,890Z"/>
    <path id="路径_760" data-name="路径 760" d="M419.875,873.453l-2.153,1.028-.024-.036c-.07-.1-.149-.18-.221-.273-.15-.191-.3-.384-.458-.558-.1-.1-.2-.194-.3-.292-.147-.146-.292-.3-.447-.429-.112-.1-.23-.179-.345-.269-.151-.118-.3-.241-.454-.348-.123-.086-.249-.159-.374-.238-.153-.1-.3-.2-.461-.286-.13-.073-.26-.135-.39-.2-.155-.08-.308-.162-.463-.234-.134-.061-.267-.114-.4-.17-.151-.063-.3-.13-.453-.186-.135-.051-.266-.094-.4-.139-.148-.05-.3-.1-.441-.147s-.259-.074-.388-.11-.282-.079-.419-.113-.247-.056-.37-.084-.263-.058-.389-.083-.228-.041-.341-.061-.239-.042-.352-.059-.2-.028-.3-.041-.213-.028-.311-.039l-.255-.026-.255-.022-.207-.015-.187-.01-.149-.006-.117,0h-.11a9.952,9.952,0,0,1,1.854.947c.277.18.539.371.787.569a11.788,11.788,0,0,1,3.444,4.73l-2.46,1.175,6.941,4.161h0Z"/>
  </g>
</svg>
