<svg xmlns="http://www.w3.org/2000/svg" width="20" height="20" viewBox="0 0 20 20">
  <g id="组_615" data-name="组 615" transform="translate(-483.938 -870)">
    <path id="路径_763" data-name="路径 763" d="M500.941,890H486.934a3,3,0,0,1-3-3V873a3,3,0,0,1,3-3h14.007a3,3,0,0,1,3,3V887A3,3,0,0,1,500.941,890Zm-14.007-18a1,1,0,0,0-1,1V887a1,1,0,0,0,1,1h14.007a1,1,0,0,0,1-1V873a1,1,0,0,0-1-1Z"/>
    <path id="路径_764" data-name="路径 764" d="M494.938,877.33h2.539l-3.539-4.034L490.4,877.33h2.539v5.339H490.4l3.539,4.034,3.539-4.034h-2.539Z"/>
  </g>
</svg>
