<svg xmlns="http://www.w3.org/2000/svg" width="20" height="20" viewBox="0 0 20 20">
  <g id="组_611" data-name="组 611" transform="translate(-330 -870)">
    <g id="组_609" data-name="组 609">
      <rect id="矩形_465" data-name="矩形 465" width="20" height="2" transform="translate(330 874)"/>
      <path id="路径_756" data-name="路径 756" d="M345,890H335a3.005,3.005,0,0,1-3-3V874h2v13a1,1,0,0,0,1,1h10a1,1,0,0,0,1-1V874h2v13A3.005,3.005,0,0,1,345,890Z"/>
    </g>
    <path id="路径_757" data-name="路径 757" d="M344.5,874.5h-2a2.5,2.5,0,0,0-5,0h-2a4.5,4.5,0,0,1,9,0Z"/>
    <g id="组_610" data-name="组 610">
      <rect id="矩形_466" data-name="矩形 466" width="2" height="7.521" transform="translate(335.573 878.239)"/>
      <rect id="矩形_467" data-name="矩形 467" width="2" height="7.521" transform="translate(339 878.239)"/>
      <rect id="矩形_468" data-name="矩形 468" width="2" height="7.521" transform="translate(342.427 878.239)"/>
    </g>
  </g>
</svg>
