<svg xmlns="http://www.w3.org/2000/svg" width="20" height="20" viewBox="0 0 20 20">
  <g id="组_612" data-name="组 612" transform="translate(-370 -870)">
    <path id="路径_758" data-name="路径 758" d="M387,872a1,1,0,0,1,1,1v14a1,1,0,0,1-1,1H373a1,1,0,0,1-1-1V873a1,1,0,0,1,1-1h14m0-2H373a3,3,0,0,0-3,3v14a3,3,0,0,0,3,3h14a3,3,0,0,0,3-3V873a3,3,0,0,0-3-3Z"/>
    <rect id="矩形_469" data-name="矩形 469" width="10" height="2" transform="translate(375 878.5)"/>
    <rect id="矩形_470" data-name="矩形 470" width="10" height="2" transform="translate(375 881.453)"/>
    <rect id="矩形_471" data-name="矩形 471" width="10" height="2" transform="translate(375 884.406)"/>
    <rect id="矩形_472" data-name="矩形 472" width="17.584" height="2" transform="translate(371.333 874.75)"/>
  </g>
</svg>
