<svg xmlns="http://www.w3.org/2000/svg" width="20" height="20" viewBox="0 0 20 20">
  <g id="组_614" data-name="组 614" transform="translate(-447.855 -870)">
    <path id="路径_761" data-name="路径 761" d="M464.855,890h-14a3,3,0,0,1-3-3V873a3,3,0,0,1,3-3h7v2h-7a1,1,0,0,0-1,1v14a1,1,0,0,0,1,1h14a1,1,0,0,0,1-1v-7h2v7A3,3,0,0,1,464.855,890Z"/>
    <path id="路径_762" data-name="路径 762" d="M465.773,874.842l2.081-3.471L459.725,870h0l1.028,2.154a8.879,8.879,0,0,0-.887.718,9.416,9.416,0,0,0-1.347,1.569,14.58,14.58,0,0,0-2.247,7.5h0a10.983,10.983,0,0,1,6.246-6.085l1.174,2.46h0Z"/>
  </g>
</svg>
