<svg xmlns="http://www.w3.org/2000/svg" xmlns:xlink="http://www.w3.org/1999/xlink" width="62" height="78" viewBox="0 0 62 78">
  <defs>
    <style>
      .cls-1, .cls-2 {
        fill: #11A9E3;
      }

      .cls-1 {
        opacity: 0.6;
      }

      .cls-3 {
        fill: #fff;
      }

      .cls-4 {
        filter: url(#路径_184);
      }
    </style>
    <filter id="路径_184" x="0" y="0" width="62" height="62" filterUnits="userSpaceOnUse">
      <feOffset input="SourceAlpha"/>
      <feGaussianBlur stdDeviation="2" result="blur"/>
      <feFlood flood-opacity="0.329"/>
      <feComposite operator="in" in2="blur"/>
      <feComposite in="SourceGraphic"/>
    </filter>
  </defs>
  <g id="组_2015" data-name="组 2015" transform="translate(-517 -505)">
    <g id="组_2014" data-name="组 2014">
      <g id="组_2010" data-name="组 2010">
        <g id="组件_27_4" data-name="组件 27 – 4" transform="translate(523 511)">
          <path id="多边形_2" data-name="多边形 2" class="cls-1" d="M20,0,40,32H0Z" transform="translate(45 72) rotate(180)"/>
          <g class="cls-4" transform="matrix(1, 0, 0, 1, -6, -6)">
            <path id="路径_184-2" data-name="路径 184" class="cls-2" d="M25,0A25,25,0,1,1,0,25,25,25,0,0,1,25,0Z" transform="translate(6 6)"/>
          </g>
        </g>
        <g id="组_1957" data-name="组 1957" transform="translate(-166.208 396.509)">
          <path id="路径_531" data-name="路径 531" class="cls-3" d="M714.2,159.491a20,20,0,0,1-.344-40l.354,0a20,20,0,0,1,.345,40Zm.009-37.818-.316,0a17.818,17.818,0,0,0,.307,35.634c.105,0,.21,0,.316,0a17.818,17.818,0,0,0-.307-35.633Z" transform="translate(0)"/>
          <path id="路径_532" data-name="路径 532" class="cls-3" d="M725.5,132.573s-6.809-6.273-19.037,5.313l-6.764,6.332a16.092,16.092,0,0,0,.57,2.924l4.036-3.867s5.588,1.869,6.346,1.259Z" transform="translate(-1.498 -3.106)"/>
          <rect id="矩形_442" data-name="矩形 442" class="cls-3" width="1.455" height="8.198" transform="translate(719.342 141.32) rotate(-39.19)"/>
          <rect id="矩形_443" data-name="矩形 443" class="cls-3" width="1.455" height="6.375" transform="matrix(0.974, -0.226, 0.226, 0.974, 712.779, 143.808)"/>
          <rect id="矩形_444" data-name="矩形 444" class="cls-3" width="1.455" height="6.375" transform="translate(724.05 136.716) rotate(-61.725)"/>
          <path id="路径_533" data-name="路径 533" class="cls-3" d="M718.014,145.81a21.178,21.178,0,0,0,12-9.951Z" transform="translate(-6.493 -4.464)"/>
        </g>
      </g>
    </g>
  </g>
</svg>
