<svg xmlns="http://www.w3.org/2000/svg" width="50" height="49.999" viewBox="0 0 50 49.999">
  <defs>
    <style>
      .cls-1, .cls-2 {
        fill: #FFF;
      }

      .cls-2 {
        fill-rule: evenodd;
      }
    </style>
  </defs>
  <g id="组_541" data-name="组 541" transform="translate(-178.722 -294.619)">
    <path id="路径_575" data-name="路径 575" class="cls-1" d="M203.709,344.618a25,25,0,0,1-.425-49.995c.147,0,.3,0,.443,0a25.029,25.029,0,0,1,24.99,24.563h0a25.031,25.031,0,0,1-24.56,25.433Zm.017-47.271c-.131,0-.263,0-.394,0a22.272,22.272,0,1,0,22.658,21.879h0A22.3,22.3,0,0,0,203.727,297.346Z" transform="translate(0)"/>
    <path id="路径_576" data-name="路径 576" class="cls-2" d="M204.96,302.258,194.8,320.681l10.466-.4-3.855,15.2,15.525-24.791-12.975,3.239Z" transform="translate(-1.462 -0.695)"/>
    <path id="路径_577" data-name="路径 577" class="cls-1" d="M219.342,333.339a4.8,4.8,0,0,1-.252,1.517,4.724,4.724,0,0,1-4.484,3.217c-.136,0-.285-.012-.422-.023a3.7,3.7,0,0,1-.765-2.259,2.121,2.121,0,0,1,.012-.274,3.653,3.653,0,0,1,.148-.8.876.876,0,0,1,.068-.182.911.911,0,0,0-.205.216h-.011a3.435,3.435,0,0,0-.594.9,3.588,3.588,0,0,0-.354,1.574,1.739,1.739,0,0,0,.023.343,4.646,4.646,0,0,1-2.167-2.191,4.435,4.435,0,0,1-.4-1.289,3.949,3.949,0,0,1-.069-.753,4.74,4.74,0,0,1,1.8-3.719,3.428,3.428,0,0,0,1.494-2.818,3.074,3.074,0,0,0-.034-.445,4.727,4.727,0,0,1,3.24,2.59,4.656,4.656,0,0,1,.456,2.031,4.5,4.5,0,0,1-.137,1.118,2.226,2.226,0,0,1-.1.365,3.878,3.878,0,0,0,.194-.377,4.542,4.542,0,0,0,.434-1.974,5.721,5.721,0,0,0-.056-.764,4.769,4.769,0,0,1,2.144,3.4A5.058,5.058,0,0,1,219.342,333.339Z" transform="translate(-2.833 -2.886)"/>
    <path id="路径_578" data-name="路径 578" class="cls-1" d="M219.651,323.525a.817.817,0,0,1-.7-1.247l3.447-5.594a.818.818,0,0,1,1.394.858l-3.447,5.594A.821.821,0,0,1,219.651,323.525Z" transform="translate(-3.648 -1.971)"/>
    <path id="路径_579" data-name="路径 579" class="cls-1" d="M193.16,336.882a.818.818,0,0,1-.7-1.247l6.033-9.79a.818.818,0,0,1,1.394.858l-6.033,9.79A.82.82,0,0,1,193.16,336.882Z" transform="translate(-1.239 -2.804)"/>
    <path id="路径_580" data-name="路径 580" class="cls-1" d="M186.873,325.332a.818.818,0,0,1-.7-1.247l2.507-4.068a.818.818,0,0,1,1.394.858l-2.507,4.068A.817.817,0,0,1,186.873,325.332Z" transform="translate(-0.667 -2.274)"/>
  </g>
</svg>
