<svg xmlns="http://www.w3.org/2000/svg" width="50" height="49.999" viewBox="0 0 50 49.999">
  <defs>
    <style>
      .cls-1 {
        fill: #fff;
      }
    </style>
  </defs>
  <g id="组_2096" data-name="组 2096" transform="translate(-174.768 -821.773)">
    <path id="路径_1405" data-name="路径 1405" class="cls-1" d="M199.755,871.772a25,25,0,1,1,25.009-25.436h0a25.032,25.032,0,0,1-24.56,25.433Zm.017-47.271c-.131,0-.262,0-.393,0a22.272,22.272,0,1,0,22.658,21.88h0A22.3,22.3,0,0,0,199.772,824.5Z"/>
    <g id="组_2094" data-name="组 2094" transform="translate(183.744 829.119)">
      <path id="路径_1406" data-name="路径 1406" class="cls-1" d="M191.3,839.578a.908.908,0,0,1-.909-.909v-7.906a.909.909,0,0,1,1.818,0v7.906A.909.909,0,0,1,191.3,839.578Z" transform="translate(-185.165 -829.854)"/>
      <path id="路径_1407" data-name="路径 1407" class="cls-1" d="M185.551,846.109a.908.908,0,0,1-.909-.909v-4.271a.909.909,0,0,1,1.818,0V845.2A.909.909,0,0,1,185.551,846.109Z" transform="translate(-184.642 -830.778)"/>
      <path id="路径_1408" data-name="路径 1408" class="cls-1" d="M211.343,835.128a.908.908,0,0,1-.909-.909v-3.455a.909.909,0,0,1,1.818,0v3.455A.909.909,0,0,1,211.343,835.128Z" transform="translate(-186.987 -829.854)"/>
      <path id="路径_1409" data-name="路径 1409" class="cls-1" d="M218.8,846.02a.908.908,0,0,1-.909-.909v-6.7a.909.909,0,1,1,1.818,0v6.7A.909.909,0,0,1,218.8,846.02Z" transform="translate(-187.666 -830.549)"/>
    </g>
    <g id="组_2095" data-name="组 2095" transform="translate(191.008 836.635)">
      <path id="路径_1410" data-name="路径 1410" class="cls-1" d="M200.625,846.168a8.893,8.893,0,0,0-7.993.887v5.039a.711.711,0,0,0,.538.689v4.3H193.1a.467.467,0,0,0-.466.467v2.059a4.034,4.034,0,0,0,2.928,3.867.961.961,0,0,0-.006.1v.9a.954.954,0,0,0,.951.951h.238a.954.954,0,0,0,.951-.951v-.856h7.375v.856a.953.953,0,0,0,.951.951h.238a.954.954,0,0,0,.951-.951v-.9a.961.961,0,0,0-.006-.1,4.035,4.035,0,0,0,2.928-3.867V857.55a.467.467,0,0,0-.466-.467h-.072v-4.3a.711.711,0,0,0,.538-.689v-5.469C208.919,847.319,206.253,847.923,200.625,846.168Zm.756,16.144a2.029,2.029,0,1,1,2.029-2.029A2.029,2.029,0,0,1,201.381,862.312Zm-6.47-5.229V852.8h13.014v4.279Z" transform="translate(-192.632 -838.805)"/>
      <path id="路径_1411" data-name="路径 1411" class="cls-1" d="M205.858,838.883H202.82a.012.012,0,0,1-.012-.012.752.752,0,0,0-.749-.749H200.7a.752.752,0,0,0-.749.749.012.012,0,0,1-.012.012H196.9a4.285,4.285,0,0,0-4.273,4.273v.742a.012.012,0,0,0,.018.01,8.9,8.9,0,0,1,7.974-.875c5.62,1.753,8.286,1.154,9.5.461a.012.012,0,0,0,.005-.011v-.326A4.285,4.285,0,0,0,205.858,838.883Z" transform="translate(-192.632 -838.122)"/>
      <path id="路径_1412" data-name="路径 1412" class="cls-1" d="M202.088,860.516l-1.063,1.063a.8.8,0,1,0,1.133,1.133l1.063-1.063a.8.8,0,1,0-1.133-1.133Z" transform="translate(-193.374 -840.137)"/>
    </g>
  </g>
</svg>
