<svg xmlns="http://www.w3.org/2000/svg" width="50" height="50" viewBox="0 0 50 50">
  <defs>
    <style>
      .cls-1 {
        fill: #FFF;
      }
    </style>
  </defs>
  <g id="组_529" data-name="组 529" transform="translate(-522.38 -119.491)">
    <path id="路径_523" data-name="路径 523" class="cls-1" d="M547.373,169.491a25,25,0,0,1-.431-50l.443,0a25.029,25.029,0,0,1,24.991,24.563h0a25.031,25.031,0,0,1-24.56,25.432C547.669,169.489,547.521,169.491,547.373,169.491Zm.011-47.272-.394,0a22.273,22.273,0,0,0,.384,44.542c.131,0,.263,0,.394,0A22.3,22.3,0,0,0,569.649,144.1h0A22.3,22.3,0,0,0,547.384,122.218Z" transform="translate(0)"/>
    <g id="组_524" data-name="组 524" transform="translate(539.69 128.909)">
      <path id="路径_524" data-name="路径 524" class="cls-1" d="M549.391,130.072a.287.287,0,0,0-.558,0c-1.223,9.853-7.412,11.866-7.412,18.581a7.69,7.69,0,0,0,15.379,0c0-6.714-6.188-8.728-7.409-18.581Zm1.643,23.442a.71.71,0,0,1,0-1.419,1.743,1.743,0,0,0,1.711-1.77.7.7,0,0,1,.685-.709.686.686,0,0,1,.632.433.73.73,0,0,1,.055.278,3.143,3.143,0,0,1-3.082,3.187Zm0,0" transform="translate(-541.421 -129.851)"/>
    </g>
    <g id="组_527" data-name="组 527" transform="translate(531.017 128.001)">
      <g id="组_525" data-name="组 525" transform="translate(0)">
        <path id="路径_525" data-name="路径 525" class="cls-1" d="M539.191,137.07h-6.4a.909.909,0,0,1,0-1.818h5.492v-5.491a.909.909,0,1,1,1.818,0v6.4A.909.909,0,0,1,539.191,137.07Z" transform="translate(-531.881 -128.852)"/>
        <path id="路径_526" data-name="路径 526" class="cls-1" d="M566.147,137.07h-6.4a.908.908,0,0,1-.909-.909v-6.4a.909.909,0,0,1,1.818,0v5.491h5.491a.909.909,0,0,1,0,1.818Z" transform="translate(-534.332 -128.852)"/>
      </g>
      <g id="组_526" data-name="组 526" transform="translate(0 24.76)">
        <path id="路径_527" data-name="路径 527" class="cls-1" d="M539.191,164.307a.909.909,0,0,1-.909-.909v-5.492H532.79a.909.909,0,0,1,0-1.818h6.4a.909.909,0,0,1,.909.909v6.4A.909.909,0,0,1,539.191,164.307Z" transform="translate(-531.881 -156.088)"/>
        <path id="路径_528" data-name="路径 528" class="cls-1" d="M559.747,164.307a.909.909,0,0,1-.909-.909V157a.909.909,0,0,1,.909-.909h6.4a.909.909,0,0,1,0,1.818h-5.491V163.4A.909.909,0,0,1,559.747,164.307Z" transform="translate(-534.332 -156.088)"/>
      </g>
    </g>
    <g id="组_528" data-name="组 528" transform="translate(527.138 143.582)">
      <path id="路径_529" data-name="路径 529" class="cls-1" d="M536.733,147.809h-8.21a.909.909,0,0,1,0-1.818h8.21a.909.909,0,0,1,0,1.818Z" transform="translate(-527.614 -145.991)"/>
      <path id="路径_530" data-name="路径 530" class="cls-1" d="M570.233,147.809h-8.21a.909.909,0,0,1,0-1.818h8.21a.909.909,0,0,1,0,1.818Z" transform="translate(-530.66 -145.991)"/>
    </g>
  </g>
</svg>
