<svg xmlns="http://www.w3.org/2000/svg" width="50" height="50" viewBox="0 0 50 50">
  <defs>
    <style>
      .cls-1 {
        fill: #fff;
      }
    </style>
  </defs>
  <g id="组_577" data-name="组 577" transform="translate(-1209.694 -469.621)">
    <path id="路径_681" data-name="路径 681" class="cls-1" d="M1234.681,519.621a25,25,0,0,1-.424-50l.442,0a25.03,25.03,0,0,1,24.991,24.563h0a25.03,25.03,0,0,1-24.56,25.433C1234.98,519.62,1234.83,519.621,1234.681,519.621Zm.017-47.272-.394,0a22.273,22.273,0,0,0,.383,44.542c.133,0,.263,0,.4,0a22.3,22.3,0,0,0,21.88-22.658h0A22.3,22.3,0,0,0,1234.7,472.348Z" transform="translate(0 0)"/>
    <path id="路径_682" data-name="路径 682" class="cls-1" d="M1236.251,481.384a9.423,9.423,0,0,0-9.423,9.424c0,7.009,7.605,14.136,9.423,14.136s9.424-7.127,9.424-14.136A9.424,9.424,0,0,0,1236.251,481.384Zm3.255,12.679a4.6,4.6,0,1,1,1.349-3.255A4.6,4.6,0,0,1,1239.506,494.063Z" transform="translate(-1.558 -1.069)"/>
    <path id="路径_683" data-name="路径 683" class="cls-1" d="M1243.164,515.606H1229.7a.909.909,0,0,1,0-1.818h13.469a.909.909,0,0,1,0,1.818Z" transform="translate(-1.736 -4.016)"/>
    <path id="路径_684" data-name="路径 684" class="cls-1" d="M1226.2,508.564h-6.439a.909.909,0,0,1,0-1.818h6.439a.909.909,0,0,1,0,1.818Z" transform="translate(-0.833 -3.375)"/>
    <path id="路径_685" data-name="路径 685" class="cls-1" d="M1254.13,508.564h-7.666a.909.909,0,0,1,0-1.818h7.666a.909.909,0,0,1,0,1.818Z" transform="translate(-3.26 -3.375)"/>
    <g id="组_576" data-name="组 576" transform="translate(1214.633 496.25)">
      <path id="路径_686" data-name="路径 686" class="cls-1" d="M1257.575,500.731h-5.951a.909.909,0,0,1,0-1.818h5.951a.909.909,0,1,1,0,1.818Z" transform="translate(-1218.363 -498.913)"/>
      <path id="路径_687" data-name="路径 687" class="cls-1" d="M1221.986,500.731h-5.95a.909.909,0,1,1,0-1.818h5.95a.909.909,0,0,1,0,1.818Z" transform="translate(-1215.127 -498.913)"/>
    </g>
  </g>
</svg>
