<svg xmlns="http://www.w3.org/2000/svg" width="50" height="50" viewBox="0 0 50 50">
  <defs>
    <style>
      .cls-1 {
        fill: #fff;
      }
    </style>
  </defs>
  <g id="组_548" data-name="组 548" transform="translate(-866.037 -294.619)">
    <path id="路径_602" data-name="路径 602" class="cls-1" d="M891.03,344.619a25,25,0,0,1-.431-50c.147,0,.3,0,.444,0a25,25,0,0,1,.43,50Zm.012-47.272c-.132,0-.263,0-.395,0a22.259,22.259,0,1,0,.395,0Z"/>
    <g id="组_547" data-name="组 547" transform="translate(879.4 306.163)">
      <path id="路径_603" data-name="路径 603" class="cls-1" d="M887.955,307.725a5.544,5.544,0,0,0-2.2-.407h-5.015v12.464h3.38V315.3h1.635a5.6,5.6,0,0,0,2.2-.4,3.374,3.374,0,0,0,1.52-1.214,3.275,3.275,0,0,0,.538-1.867v-.985a3.327,3.327,0,0,0-.537-1.882A3.375,3.375,0,0,0,887.955,307.725Zm-1.491,2.832a.879.879,0,0,1,.1.426v.683a.785.785,0,0,1-.1.4.583.583,0,0,1-.253.236.985.985,0,0,1-.451.1h-1.645v-2.175h1.645a.988.988,0,0,1,.456.1A.571.571,0,0,1,886.464,310.557Z" transform="translate(-880.736 -307.318)"/>
      <path id="路径_604" data-name="路径 604" class="cls-1" d="M900.108,307.318v4.863H897.6v-4.863h-3.38v12.463h3.38v-4.728h2.512v4.728h3.379V307.318Z" transform="translate(-881.962 -307.318)"/>
    </g>
    <path id="路径_605" data-name="路径 605" class="cls-1" d="M908.972,325.222a3.3,3.3,0,0,0-5.029,0c-.458.443-.7.655-1.253.655s-.794-.212-1.253-.655a3.3,3.3,0,0,0-5.03,0c-.458.443-.7.655-1.253.655s-.794-.212-1.252-.654a3.3,3.3,0,0,0-5.027,0c-.457.442-.7.654-1.251.654s-.794-.212-1.252-.654a3.3,3.3,0,0,0-5.028,0c-.456.442-.7.654-1.249.654s-.795-.212-1.251-.654a3.3,3.3,0,0,0-5.027,0c-.113.109-.212.2-.305.285a18.385,18.385,0,0,0,.43,1.88,4.41,4.41,0,0,0,1.14-.857c.456-.442.7-.654,1.248-.654s.795.212,1.252.654a3.293,3.293,0,0,0,5.025,0c.457-.442.7-.654,1.251-.654s.794.212,1.252.654a3.295,3.295,0,0,0,5.027,0c.457-.442.7-.654,1.251-.654s.794.212,1.252.654a3.3,3.3,0,0,0,5.03,0c.457-.443.7-.655,1.252-.655s.8.212,1.253.655a3.3,3.3,0,0,0,5.031,0c.458-.442.7-.654,1.252-.654s.794.212,1.253.655a3.681,3.681,0,0,0,1.735,1.07q.259-.865.433-1.763A1.976,1.976,0,0,1,908.972,325.222Z" transform="translate(-0.68 -2.676)"/>
    <path id="路径_606" data-name="路径 606" class="cls-1" d="M906.608,330.571a3.362,3.362,0,0,0-2.515,1.164c-.458.443-.7.655-1.253.655s-.794-.212-1.253-.655a3.3,3.3,0,0,0-5.03,0c-.458.443-.7.655-1.253.655s-.794-.212-1.252-.654a3.3,3.3,0,0,0-5.027,0c-.457.442-.7.654-1.251.654s-.794-.212-1.252-.654a3.3,3.3,0,0,0-5.028,0c-.456.442-.7.654-1.249.654s-.795-.212-1.251-.654a3.361,3.361,0,0,0-2.515-1.165,3.079,3.079,0,0,0-1.307.275q.4.832.873,1.614a1.343,1.343,0,0,1,.435-.07c.549,0,.795.212,1.252.654a3.293,3.293,0,0,0,5.025,0c.457-.442.7-.654,1.251-.654s.794.212,1.252.654a3.295,3.295,0,0,0,5.027,0c.457-.442.7-.654,1.251-.654s.794.212,1.252.654a3.3,3.3,0,0,0,5.03,0c.457-.443.7-.655,1.252-.655s.8.212,1.253.655a3.3,3.3,0,0,0,5.031,0c.458-.442.7-.654,1.252-.654a1.275,1.275,0,0,1,.916.348c.326-.517.625-1.053.9-1.6A3.036,3.036,0,0,0,906.608,330.571Z" transform="translate(-0.831 -3.269)"/>
    <path id="路径_607" data-name="路径 607" class="cls-1" d="M902.187,338.25a3.3,3.3,0,0,0-5.03,0c-.458.442-.7.655-1.253.655s-.794-.213-1.252-.655a3.3,3.3,0,0,0-5.027,0c-.457.442-.7.655-1.251.655s-.794-.213-1.252-.655a3.3,3.3,0,0,0-5.028,0c-.123.118-.229.217-.331.3a18.444,18.444,0,0,0,1.586,1.012l.007-.007c.457-.442.7-.654,1.251-.654s.794.212,1.252.654a3.295,3.295,0,0,0,5.027,0c.457-.442.7-.654,1.251-.654s.794.212,1.252.654a3.3,3.3,0,0,0,5.03,0c.457-.442.7-.654,1.252-.654s.8.212,1.253.654c.078.075.164.155.252.236a18.4,18.4,0,0,0,1.689-1.016A2.722,2.722,0,0,1,902.187,338.25Z" transform="translate(-1.43 -3.861)"/>
  </g>
</svg>
