<svg xmlns="http://www.w3.org/2000/svg" width="50" height="50" viewBox="0 0 50 50">
  <defs>
    <style>
      .cls-1 {
        fill: #fff;
      }
    </style>
  </defs>
  <g id="组_544" data-name="组 544" transform="translate(-522.38 -294.619)">
    <g id="组_543" data-name="组 543" transform="translate(542.968 327.258)">
      <path id="路径_590" data-name="路径 590" class="cls-1" d="M545.16,332.1h8.574a2.894,2.894,0,0,0,.115-.69c0-.346.086-.884-.126-.884h-8.552c-.213,0-.126.537-.126.884A2.9,2.9,0,0,0,545.16,332.1Z" transform="translate(-545.027 -330.522)"/>
      <path id="路径_591" data-name="路径 591" class="cls-1" d="M553.706,332.875h-8.492a.651.651,0,0,0-.038.214,1.271,1.271,0,0,0,.372.845,1.966,1.966,0,0,0,.411,1.661,2.707,2.707,0,0,0,1.752.744,2.082,2.082,0,0,0,.489.437,2.732,2.732,0,0,0,2.521,0,2.06,2.06,0,0,0,.488-.437,2.71,2.71,0,0,0,1.753-.744,1.963,1.963,0,0,0,.411-1.661,1.271,1.271,0,0,0,.372-.845A.651.651,0,0,0,553.706,332.875Z" transform="translate(-545.04 -330.736)"/>
    </g>
    <path id="路径_592" data-name="路径 592" class="cls-1" d="M547.367,344.619a24.853,24.853,0,1,1,.449,0Zm.023-47.273c-.133,0-.265,0-.4,0a22.273,22.273,0,1,0,22.657,21.881h0a22.271,22.271,0,0,0-22.258-21.884Z" transform="translate(0)"/>
    <path id="路径_593" data-name="路径 593" class="cls-1" d="M553,307.63a8.994,8.994,0,0,0-3.922-.9,7.465,7.465,0,0,0-4.391,1.174A7.634,7.634,0,0,0,541.5,316.8a24.211,24.211,0,0,0,1.6,3.327,15.893,15.893,0,0,1,1.554,4.381,13.08,13.08,0,0,0,.345,1.891h8.146a13.447,13.447,0,0,0,.348-1.891,15.613,15.613,0,0,1,1.557-4.381,24.7,24.7,0,0,0,1.6-3.327A7.635,7.635,0,0,0,553,307.63ZM554.1,313.4a.91.91,0,0,1-1.083-.695,3.04,3.04,0,0,0-1.628-1.9.909.909,0,0,1,.712-1.674,4.868,4.868,0,0,1,2.694,3.192A.909.909,0,0,1,554.1,313.4Z" transform="translate(-1.701 -1.101)"/>
    <path id="路径_594" data-name="路径 594" class="cls-1" d="M549.789,302.477a.909.909,0,0,1-.909-.909V299.75a.909.909,0,1,1,1.818,0v1.818A.909.909,0,0,1,549.789,302.477Z" transform="translate(-2.409 -0.384)"/>
    <path id="路径_595" data-name="路径 595" class="cls-1" d="M535.321,308.47a.908.908,0,0,1-.643-.266l-1.285-1.285a.909.909,0,1,1,1.285-1.285l1.285,1.285a.909.909,0,0,1-.643,1.552Z" transform="translate(-0.977 -0.977)"/>
    <path id="路径_596" data-name="路径 596" class="cls-1" d="M529.328,322.937H527.51a.909.909,0,1,1,0-1.818h1.818a.909.909,0,1,1,0,1.818Z" transform="translate(-0.384 -2.409)"/>
    <path id="路径_597" data-name="路径 597" class="cls-1" d="M571.885,322.937h-1.818a.909.909,0,1,1,0-1.818h1.818a.909.909,0,0,1,0,1.818Z" transform="translate(-4.252 -2.409)"/>
    <path id="路径_598" data-name="路径 598" class="cls-1" d="M564.128,308.47a.909.909,0,0,1-.643-1.552l1.285-1.285a.909.909,0,1,1,1.285,1.285l-1.285,1.285A.907.907,0,0,1,564.128,308.47Z" transform="translate(-3.712 -0.977)"/>
  </g>
</svg>
