<svg xmlns="http://www.w3.org/2000/svg" width="50" height="49.999" viewBox="0 0 50 49.999">
  <defs>
    <style>
      .cls-1 {
        fill: #fff;
      }
    </style>
  </defs>
  <g id="组_561" data-name="组 561" transform="translate(-1725.18 -294.619)">
    <path id="路径_636" data-name="路径 636" class="cls-1" d="M1769.311,320.631c0-.229.026-.455.023-.685a18.506,18.506,0,1,0-37.007.646c0,.013,0,.026,0,.039Z" transform="translate(-0.649 -0.649)"/>
    <g id="组_560" data-name="组 560" transform="translate(1725.18 294.619)">
      <path id="路径_637" data-name="路径 637" class="cls-1" d="M1750.173,344.618a25,25,0,0,1-.431-50c.147,0,.3,0,.444,0a25,25,0,0,1,.43,50Zm.012-47.272c-.132,0-.264,0-.395,0a22.259,22.259,0,1,0,.395,0Z" transform="translate(-1725.18 -294.619)"/>
      <path id="路径_638" data-name="路径 638" class="cls-1" d="M1768.115,325.222a3.3,3.3,0,0,0-5.029,0c-.458.443-.7.655-1.253.655s-.795-.212-1.253-.655a3.3,3.3,0,0,0-5.03,0c-.458.443-.7.655-1.253.655s-.794-.212-1.252-.654a3.295,3.295,0,0,0-5.027,0c-.457.442-.7.654-1.251.654s-.794-.212-1.252-.654a3.3,3.3,0,0,0-5.029,0c-.455.442-.7.654-1.249.654s-.794-.212-1.251-.654a3.294,3.294,0,0,0-5.026,0c-.113.109-.212.2-.305.284a18.388,18.388,0,0,0,.43,1.88,4.411,4.411,0,0,0,1.14-.857c.456-.442.7-.654,1.248-.654s.795.212,1.252.654a3.293,3.293,0,0,0,5.025,0c.457-.442.7-.654,1.251-.654s.794.212,1.252.654a3.3,3.3,0,0,0,5.027,0c.457-.442.7-.654,1.251-.654s.794.212,1.252.654a3.3,3.3,0,0,0,5.03,0c.457-.443.7-.655,1.252-.655s.795.212,1.253.655a3.3,3.3,0,0,0,5.031,0c.457-.442.7-.654,1.252-.654s.795.212,1.252.655a3.685,3.685,0,0,0,1.736,1.07q.259-.865.433-1.763A1.975,1.975,0,0,1,1768.115,325.222Z" transform="translate(-1725.859 -297.295)"/>
      <path id="路径_639" data-name="路径 639" class="cls-1" d="M1765.751,330.571a3.361,3.361,0,0,0-2.515,1.164c-.458.443-.7.655-1.253.655s-.794-.212-1.253-.655a3.3,3.3,0,0,0-5.03,0c-.458.443-.7.655-1.253.655s-.793-.212-1.252-.654a3.295,3.295,0,0,0-5.027,0c-.458.442-.7.654-1.251.654s-.794-.212-1.252-.654a3.3,3.3,0,0,0-5.029,0c-.456.442-.7.654-1.249.654s-.794-.212-1.251-.654a3.357,3.357,0,0,0-2.514-1.164,3.08,3.08,0,0,0-1.307.275q.4.832.873,1.614a1.339,1.339,0,0,1,.435-.07c.549,0,.794.212,1.252.654a3.293,3.293,0,0,0,5.025,0c.457-.442.7-.654,1.251-.654s.794.212,1.252.654a3.3,3.3,0,0,0,5.027,0c.457-.442.7-.654,1.251-.654s.794.212,1.252.654a3.3,3.3,0,0,0,5.03,0c.457-.443.7-.655,1.252-.655s.794.212,1.253.655a3.3,3.3,0,0,0,5.031,0c.457-.442.7-.654,1.252-.654a1.275,1.275,0,0,1,.916.348q.488-.776.9-1.6A3.036,3.036,0,0,0,1765.751,330.571Z" transform="translate(-1726.01 -297.888)"/>
      <path id="路径_640" data-name="路径 640" class="cls-1" d="M1761.33,338.25a3.3,3.3,0,0,0-5.03,0c-.458.442-.7.655-1.253.655s-.794-.213-1.252-.655a3.3,3.3,0,0,0-5.027,0c-.457.442-.7.655-1.251.655s-.794-.213-1.252-.655a3.3,3.3,0,0,0-5.029,0c-.122.118-.228.217-.33.3a18.455,18.455,0,0,0,1.586,1.012l.007-.007c.457-.442.7-.654,1.251-.654s.794.212,1.252.654a3.3,3.3,0,0,0,5.027,0c.457-.442.7-.654,1.251-.654s.794.212,1.252.654a3.3,3.3,0,0,0,5.03,0c.457-.442.7-.654,1.252-.654s.795.212,1.253.654c.078.075.164.155.252.236a18.5,18.5,0,0,0,1.689-1.016A2.722,2.722,0,0,1,1761.33,338.25Z" transform="translate(-1726.61 -298.48)"/>
    </g>
  </g>
</svg>
