<svg xmlns="http://www.w3.org/2000/svg" width="50" height="50" viewBox="0 0 50 50">
  <defs>
    <style>
      .cls-1 {
        fill: #fff;
      }
    </style>
  </defs>
  <g id="组_2100" data-name="组 2100" transform="translate(-1211.194 -645.996)">
    <path id="路径_1382" data-name="路径 1382" class="cls-1" d="M1236.183,696a25,25,0,1,1,25.007-25.436h0a25.029,25.029,0,0,1-24.56,25.432C1236.481,696,1236.332,696,1236.183,696Zm.022-47.272c-.133,0-.266,0-.4,0a22.272,22.272,0,1,0,22.657,21.88h0a22.272,22.272,0,0,0-22.258-21.883Z" transform="translate(0 0)"/>
    <g id="组_2085" data-name="组 2085" transform="translate(1225.874 659.684)">
      <path id="路径_1383" data-name="路径 1383" class="cls-1" d="M1233.287,668.25h-4.253a1.7,1.7,0,0,0-1.693,1.692V676.3a1.7,1.7,0,0,0,1.693,1.692h4.253Z" transform="translate(-1227.342 -661.707)"/>
      <path id="路径_1384" data-name="路径 1384" class="cls-1" d="M1243.907,661.342l-8.1,6.244v9.755l8.1,6.049c.722.561,1.318.275,1.335-.623l.006.009V662C1245.248,661.069,1244.638,660.774,1243.907,661.342Z" transform="translate(-1228.111 -661.053)"/>
    </g>
    <path id="路径_1385" data-name="路径 1385" class="cls-1" d="M1236.77,690.453A18.714,18.714,0,0,1,1229.5,689a.942.942,0,0,1,.726-1.738,16.957,16.957,0,1,0-10.331-17.353.942.942,0,1,1-1.875-.186,18.84,18.84,0,1,1,18.745,20.733Zm-12.868-5.476a.936.936,0,0,1-.677-.287,18.941,18.941,0,0,1-4.288-7.035.942.942,0,1,1,1.785-.6,17.048,17.048,0,0,0,3.858,6.33.942.942,0,0,1-.677,1.6Z" transform="translate(-0.621 -0.616)"/>
  </g>
</svg>
