<svg xmlns="http://www.w3.org/2000/svg" width="50" height="50" viewBox="0 0 50 50">
  <defs>
    <style>
      .cls-1 {
        fill: #fff;
      }
    </style>
  </defs>
  <g id="组_563" data-name="组 563" transform="translate(-178.722 -469.619)">
    <path id="路径_641" data-name="路径 641" class="cls-1" d="M203.71,519.619a24.988,24.988,0,1,1,.449,0C204.009,519.618,203.859,519.619,203.71,519.619Zm.016-47.271-.393,0a22.272,22.272,0,0,0-15.082,38.291,22.051,22.051,0,0,0,15.86,6.247,22.272,22.272,0,0,0-.385-44.54Z" transform="translate(0 0)"/>
    <path id="路径_642" data-name="路径 642" class="cls-1" d="M195.232,483.394a.909.909,0,0,1-.57-1.618,14.913,14.913,0,0,1,20.844-.116c.049.049.09.094.131.138a.941.941,0,0,1,.024,1.311.88.88,0,0,1-1.262.026l-.113-.121a13.1,13.1,0,0,0-18.408.109.948.948,0,0,1-.241.175A.9.9,0,0,1,195.232,483.394Z" transform="translate(-1.419 -0.714)"/>
    <path id="路径_643" data-name="路径 643" class="cls-1" d="M198.832,487.133a.909.909,0,0,1-.643-1.552l.025-.024a10.338,10.338,0,0,1,14.4-.1c.015.014.092.095.106.11a.945.945,0,0,1-.025,1.3.879.879,0,0,1-1.245.009l-.083-.087a8.515,8.515,0,0,0-11.9.082.889.889,0,0,1-.16.127A.9.9,0,0,1,198.832,487.133Z" transform="translate(-1.746 -1.179)"/>
    <path id="路径_644" data-name="路径 644" class="cls-1" d="M202.667,491.111a.909.909,0,0,1-.643-1.552,5.39,5.39,0,0,1,7.517-.065.909.909,0,1,1-1.263,1.308,3.562,3.562,0,0,0-4.969.043A.906.906,0,0,1,202.667,491.111Z" transform="translate(-2.095 -1.671)"/>
    <rect id="矩形_447" data-name="矩形 447" class="cls-1" width="1.818" height="8.409" transform="translate(202.813 491.258)"/>
    <g id="组_562" data-name="组 562" transform="translate(192.103 491.258)">
      <rect id="矩形_448" data-name="矩形 448" class="cls-1" width="1.818" height="8.409"/>
      <rect id="矩形_449" data-name="矩形 449" class="cls-1" width="1.818" height="8.409" transform="translate(21.42)"/>
    </g>
    <path id="路径_645" data-name="路径 645" class="cls-1" d="M189.764,502.5v8.778h29.923V502.5Zm27.746,3.442h-4.659v-1.1h4.659Z" transform="translate(-1.004 -2.99)"/>
  </g>
</svg>
