<svg xmlns="http://www.w3.org/2000/svg" width="50" height="50" viewBox="0 0 50 50">
  <defs>
    <style>
      .cls-1 {
        fill: #fff;
      }
    </style>
  </defs>
  <g id="组_542" data-name="组 542" transform="translate(-350.551 -294.619)">
    <path id="路径_581" data-name="路径 581" class="cls-1" d="M375.538,344.618a25,25,0,0,1-.424-50c.147,0,.3,0,.443,0a25.03,25.03,0,0,1,24.99,24.563h0a25.031,25.031,0,0,1-24.56,25.433Zm.018-47.272c-.132,0-.263,0-.395,0a22.273,22.273,0,1,0,22.658,21.88h0A22.3,22.3,0,0,0,375.556,297.346Z"/>
    <path id="路径_582" data-name="路径 582" class="cls-1" d="M381.436,338.233H371.045a2.364,2.364,0,0,1-2.2-2.495V329.1a.91.91,0,0,1,1.446-.734c.205.149,5.2,3.648,12-.065a.909.909,0,0,1,1.345.8v6.637A2.364,2.364,0,0,1,381.436,338.233Zm-10.773-7.582v5.087c0,.406.23.676.382.676h10.391c.153,0,.382-.27.382-.676v-5.176A13.3,13.3,0,0,1,370.663,330.651Z" transform="translate(-1.663 -3.052)"/>
    <path id="路径_583" data-name="路径 583" class="cls-1" d="M375.757,306.069a12.229,12.229,0,1,0,12.229,12.23A12.23,12.23,0,0,0,375.757,306.069Zm-6.687,6.124a.909.909,0,0,1-.627-1.566,10.568,10.568,0,0,1,3.231-2.113.909.909,0,0,1,.7,1.678,8.739,8.739,0,0,0-2.676,1.75A.907.907,0,0,1,369.07,312.193Zm6.687,9.93a3.824,3.824,0,1,1,3.824-3.824A3.828,3.828,0,0,1,375.757,322.122Z" transform="translate(-1.18 -1.041)"/>
    <path id="路径_584" data-name="路径 584" class="cls-1" d="M371.87,303.8a.819.819,0,0,1-.25-1.6,19.045,19.045,0,0,1,11.557-.01.819.819,0,0,1-.5,1.559,17.384,17.384,0,0,0-10.557.009A.808.808,0,0,1,371.87,303.8Z" transform="translate(-1.864 -0.607)"/>
    <path id="路径_585" data-name="路径 585" class="cls-1" d="M398.4,321.764" transform="translate(-4.351 -2.468)"/>
    <path id="路径_586" data-name="路径 586" class="cls-1" d="M384.034,334.649a.818.818,0,0,1-.346-1.56,12.242,12.242,0,0,0,7.049-11.287.818.818,0,0,1,.8-.833.8.8,0,0,1,.832.8,13.874,13.874,0,0,1-7.992,12.8A.809.809,0,0,1,384.034,334.649Z" transform="translate(-2.97 -2.396)"/>
    <path id="路径_587" data-name="路径 587" class="cls-1" d="M391.967,322.162a3.424,3.424,0,1,1,3.424-3.424A3.428,3.428,0,0,1,391.967,322.162Zm0-5.029a1.605,1.605,0,1,0,1.605,1.605A1.607,1.607,0,0,0,391.967,317.133Z" transform="translate(-3.454 -1.882)"/>
    <path id="路径_588" data-name="路径 588" class="cls-1" d="M380.219,335.514h-7.381a.818.818,0,1,1,0-1.636h7.381a.818.818,0,1,1,0,1.636Z" transform="translate(-1.952 -3.569)"/>
    <path id="路径_589" data-name="路径 589" class="cls-1" d="M381.015,302.174" transform="translate(-2.77 -0.687)"/>
  </g>
</svg>
