<svg xmlns="http://www.w3.org/2000/svg" width="50" height="49.999" viewBox="0 0 50 49.999">
  <defs>
    <style>
      .cls-1 {
        fill: #fff;
      }
    </style>
  </defs>
  <g id="组_581" data-name="组 581" transform="translate(-178.722 -644.417)">
    <path id="路径_688" data-name="路径 688" class="cls-1" d="M203.709,694.417a25,25,0,1,1,25.008-25.437h0a25.031,25.031,0,0,1-24.559,25.433C204.009,694.416,203.859,694.417,203.709,694.417Zm.016-47.271c-.131,0-.262,0-.393,0a22.272,22.272,0,0,0,.383,44.541c.132,0,.263,0,.395,0a22.3,22.3,0,0,0,21.88-22.658h0A22.3,22.3,0,0,0,203.726,647.145Z" transform="translate(0 0)"/>
    <g id="组_578" data-name="组 578" transform="translate(199.945 652.688)">
      <path id="路径_689" data-name="路径 689" class="cls-1" d="M203.069,654.01l18.388,9.681-18.388,8.449Z" transform="translate(-202.159 -653.56)"/>
      <path id="路径_690" data-name="路径 690" class="cls-1" d="M202.977,687.479a.909.909,0,0,1-.909-.909V654.424a.909.909,0,0,1,1.818,0V686.57A.909.909,0,0,1,202.977,687.479Z" transform="translate(-202.068 -653.515)"/>
    </g>
    <path id="路径_691" data-name="路径 691" class="cls-1" d="M196.376,670.611H185.693a.909.909,0,1,1,0-1.818h10.682a.909.909,0,1,1,0,1.818Z" transform="translate(-0.551 -2.217)"/>
    <path id="路径_692" data-name="路径 692" class="cls-1" d="M196.845,686.215h-5.993a.909.909,0,1,1,0-1.818h5.993a.909.909,0,0,1,0,1.818Z" transform="translate(-1.02 -3.635)"/>
    <path id="路径_693" data-name="路径 693" class="cls-1" d="M221.931,676.861H209.8a.909.909,0,0,1,0-1.818h12.129a.909.909,0,0,1,0,1.818Z" transform="translate(-2.744 -2.785)"/>
    <path id="路径_694" data-name="路径 694" class="cls-1" d="M223.144,676.3a.909.909,0,0,1,0-1.818,1.915,1.915,0,0,0,0-3.831.909.909,0,0,1,0-1.818,3.734,3.734,0,0,1,0,7.467Z" transform="translate(-3.957 -2.22)"/>
    <g id="组_579" data-name="组 579" transform="translate(185.795 671.576)">
      <path id="路径_695" data-name="路径 695" class="cls-1" d="M194,681.673h-6.592a.909.909,0,0,1,0-1.818H194a.909.909,0,0,1,0,1.818Z" transform="translate(-186.503 -674.799)"/>
      <path id="路径_696" data-name="路径 696" class="cls-1" d="M194.663,681.167a.909.909,0,0,1,0-1.818,1.619,1.619,0,1,0,0-3.238.909.909,0,1,1,0-1.818,3.437,3.437,0,1,1,0,6.874Z" transform="translate(-187.162 -674.293)"/>
    </g>
    <path id="路径_697" data-name="路径 697" class="cls-1" d="M222.466,681.736H209.8a.909.909,0,0,1,0-1.818h12.664a.909.909,0,0,1,0,1.818Z" transform="translate(-2.744 -3.228)"/>
    <g id="组_580" data-name="组 580" transform="translate(206.149 680.761)">
      <path id="路径_698" data-name="路径 698" class="cls-1" d="M215.343,686.215H209.8a.909.909,0,1,1,0-1.818h5.541a.909.909,0,0,1,0,1.818Z" transform="translate(-208.893 -684.397)"/>
      <path id="路径_699" data-name="路径 699" class="cls-1" d="M215.9,689.937a.909.909,0,1,1,0-1.818.952.952,0,0,0,0-1.9.909.909,0,1,1,0-1.818,2.77,2.77,0,0,1,0,5.54Z" transform="translate(-209.447 -684.397)"/>
    </g>
  </g>
</svg>
