<svg xmlns="http://www.w3.org/2000/svg" width="50" height="49.999" viewBox="0 0 50 49.999">
  <defs>
    <style>
      .cls-1 {
        fill: #fff;
      }
    </style>
  </defs>
  <g id="组_2090" data-name="组 2090" transform="translate(-1553.351 -643.12)">
    <path id="路径_1395" data-name="路径 1395" class="cls-1" d="M1578.339,693.119a25,25,0,1,1,25.008-25.435h0a25.028,25.028,0,0,1-24.559,25.431C1578.638,693.118,1578.488,693.119,1578.339,693.119Zm.023-47.271c-.133,0-.266,0-.4,0a22.271,22.271,0,1,0,22.658,21.879h0a22.273,22.273,0,0,0-22.259-21.883Z" transform="translate(0 0)"/>
    <g id="组_2088" data-name="组 2088" transform="translate(1561.971 654.604)">
      <path id="路径_1396" data-name="路径 1396" class="cls-1" d="M1586.7,679.91h-17.879a5.984,5.984,0,1,1,0-11.969h2.352a.909.909,0,0,1,0,1.818h-2.352a4.166,4.166,0,0,0,0,8.333H1586.7a.909.909,0,0,1,0,1.818Zm-.28-10.149h-.986a.909.909,0,0,1,0-1.818h.986a4.167,4.167,0,0,0,0-8.333h-10.927a.909.909,0,1,1,0-1.818h10.927a5.985,5.985,0,0,1,0,11.97Z" transform="translate(-1562.833 -655.938)"/>
      <rect id="矩形_836" data-name="矩形 836" class="cls-1" width="5.601" height="5.601" rx="0.948" transform="translate(8.527)"/>
      <rect id="矩形_837" data-name="矩形 837" class="cls-1" width="3.985" height="3.375" rx="0.621" transform="translate(6.387 1.113)"/>
      <rect id="矩形_838" data-name="矩形 838" class="cls-1" width="7.895" height="7.895" rx="1.336" transform="translate(28.262 27.031) rotate(-180)"/>
      <path id="路径_1397" data-name="路径 1397" class="cls-1" d="M1596.513,678.53h-4.026a.8.8,0,0,0-.8.8v3.166a.8.8,0,0,0,.8.795h4.026a.794.794,0,0,0,.8-.795v-3.166A.794.794,0,0,0,1596.513,678.53Z" transform="translate(-1565.457 -657.824)"/>
    </g>
    <g id="组_2089" data-name="组 2089" transform="translate(1572.667 661.654)">
      <path id="路径_1398" data-name="路径 1398" class="cls-1" d="M1585.115,671.421" transform="translate(-1575.555 -664.228)"/>
      <path id="路径_1399" data-name="路径 1399" class="cls-1" d="M1579.936,675.555h-.582a4.652,4.652,0,0,1-4.75-4.264h-.005v-3a1.731,1.731,0,0,1,1.756-1.7h.145a3.146,3.146,0,0,1,6.291,0h.145a1.731,1.731,0,0,1,1.756,1.7l-.006,3A4.651,4.651,0,0,1,1579.936,675.555Zm-3.519-4.493a2.818,2.818,0,0,0,2.937,2.674h.582a2.818,2.818,0,0,0,2.937-2.674v-2.654h-6.456Zm1.9-4.473h2.653a1.328,1.328,0,0,0-2.653,0Z" transform="translate(-1574.599 -663.508)"/>
      <path id="路径_1400" data-name="路径 1400" class="cls-1" d="M1581.4,671.553a1.294,1.294,0,1,1-1.294-1.295A1.293,1.293,0,0,1,1581.4,671.553Z" transform="translate(-1574.982 -664.122)"/>
    </g>
  </g>
</svg>
