<svg xmlns="http://www.w3.org/2000/svg" width="50" height="50" viewBox="0 0 50 50">
  <defs>
    <style>
      .cls-1 {
        fill: #fff;
      }
    </style>
  </defs>
  <g id="组_568" data-name="组 568" transform="translate(-522.38 -470.547)">
    <path id="路径_654" data-name="路径 654" class="cls-1" d="M547.367,520.547a25,25,0,0,1-.425-50c.147,0,.295,0,.442,0a25.032,25.032,0,0,1,24.992,24.565h0a25.029,25.029,0,0,1-24.56,25.432C547.666,520.546,547.516,520.547,547.367,520.547Zm.017-47.273c-.132,0-.263,0-.394,0a22.272,22.272,0,1,0,22.658,21.882h0A22.3,22.3,0,0,0,547.384,473.274Z" transform="translate(0 0)"/>
    <path id="路径_655" data-name="路径 655" class="cls-1" d="M528.512,496.443A19.45,19.45,0,0,1,547.6,476.681l.344,0a19.448,19.448,0,0,1,19.419,19.087l-1.818.032a17.609,17.609,0,0,0-35.212.615Z" transform="translate(-0.557 -0.557)"/>
    <rect id="矩形_452" data-name="矩形 452" class="cls-1" width="1.818" height="2.764" transform="translate(546.47 477.31)"/>
    <rect id="矩形_453" data-name="矩形 453" class="cls-1" width="1.818" height="2.65" transform="translate(546.47 477.31)"/>
    <g id="组_566" data-name="组 566" transform="translate(532.861 482.686)">
      <path id="路径_662" data-name="路径 662" class="cls-1" d="M.092.119H2.509V1.937H.092Z" transform="translate(25.754 1.69) rotate(-45)"/>
      <path id="路径_663" data-name="路径 663" class="cls-1" d="M.1.092H1.922v2.1H.1Z" transform="matrix(0.707, -0.707, 0.707, 0.707, 0, 1.295)"/>
    </g>
    <path id="路径_656" data-name="路径 656" class="cls-1" d="M549.378,515.168a4.986,4.986,0,0,1-2.347-9.395l2.347-5.854,2.349,5.854a4.986,4.986,0,0,1-2.349,9.395Z" transform="translate(-2 -2.67)"/>
    <g id="组_567" data-name="组 567" transform="translate(537.396 488.73)">
      <path id="路径_657" data-name="路径 657" class="cls-1" d="M552.225,492.343a.268.268,0,0,0-.231.1.5.5,0,0,0-.076.295v1.606a.493.493,0,0,0,.077.3.309.309,0,0,0,.46,0,.486.486,0,0,0,.077-.3v-1.606a.485.485,0,0,0-.077-.295A.269.269,0,0,0,552.225,492.343Z" transform="translate(-540.082 -490.711)"/>
      <path id="路径_658" data-name="路径 658" class="cls-1" d="M542.718,492.343a.269.269,0,0,0-.231.1.5.5,0,0,0-.076.295v1.606a.486.486,0,0,0,.078.3.308.308,0,0,0,.459,0,.486.486,0,0,0,.078-.3v-1.606a.485.485,0,0,0-.078-.295A.268.268,0,0,0,542.718,492.343Z" transform="translate(-539.217 -490.711)"/>
      <path id="路径_659" data-name="路径 659" class="cls-1" d="M547.472,492.343a.267.267,0,0,0-.231.1.492.492,0,0,0-.076.295v1.606a.486.486,0,0,0,.077.3.309.309,0,0,0,.46,0,.493.493,0,0,0,.077-.3v-1.606a.492.492,0,0,0-.077-.295A.27.27,0,0,0,547.472,492.343Z" transform="translate(-539.65 -490.711)"/>
      <path id="路径_660" data-name="路径 660" class="cls-1" d="M556.978,492.343a.269.269,0,0,0-.231.1.5.5,0,0,0-.076.295v1.606a.486.486,0,0,0,.078.3.308.308,0,0,0,.459,0,.486.486,0,0,0,.078-.3v-1.606a.485.485,0,0,0-.078-.295A.268.268,0,0,0,556.978,492.343Z" transform="translate(-540.514 -490.711)"/>
      <path id="路径_661" data-name="路径 661" class="cls-1" d="M556.273,490.548H541.489a2.591,2.591,0,0,0-2.591,2.59v.488a2.591,2.591,0,0,0,2.591,2.591h14.784a2.591,2.591,0,0,0,2.591-2.591v-.488A2.591,2.591,0,0,0,556.273,490.548Zm-12.928,3.72a.948.948,0,1,1-1.892,0v-1.775a.936.936,0,0,1,.245-.69.947.947,0,0,1,1.647.69Zm4.321,0a.948.948,0,1,1-1.892,0v-1.775a.936.936,0,0,1,.245-.69,1.125,1.125,0,0,1,1.4,0,.934.934,0,0,1,.245.692Zm4.322,0a.948.948,0,1,1-1.892,0v-1.775a.933.933,0,0,1,.245-.69.947.947,0,0,1,1.647.69Zm4.321,0a.948.948,0,1,1-1.892,0v-1.775a.936.936,0,0,1,.245-.69.947.947,0,0,1,1.647.69Z" transform="translate(-538.898 -490.548)"/>
    </g>
  </g>
</svg>
