<svg xmlns="http://www.w3.org/2000/svg" width="50" height="50" viewBox="0 0 50 50">
  <defs>
    <style>
      .cls-1 {
        fill: #fff;
      }
    </style>
  </defs>
  <g id="组_550" data-name="组 550" transform="translate(-1037.865 -294.619)">
    <g id="组_549" data-name="组 549" transform="translate(1048.066 306.044)">
      <path id="路径_608" data-name="路径 608" class="cls-1" d="M1055.826,307.65a5.963,5.963,0,0,0-4.606,0,3.619,3.619,0,0,0-1.581,1.382,3.919,3.919,0,0,0-.553,2.09v4.832a3.927,3.927,0,0,0,.553,2.085,3.6,3.6,0,0,0,1.581,1.385,5.942,5.942,0,0,0,4.606,0,3.6,3.6,0,0,0,1.58-1.385,3.927,3.927,0,0,0,.553-2.085v-4.832a3.919,3.919,0,0,0-.553-2.09A3.621,3.621,0,0,0,1055.826,307.65Zm-3.474,3.575a1.111,1.111,0,0,1,.137-.575.883.883,0,0,1,.378-.352,1.439,1.439,0,0,1,.654-.137,1.463,1.463,0,0,1,.661.138.858.858,0,0,1,.374.345,1.148,1.148,0,0,1,.136.58v4.617a1.174,1.174,0,0,1-.135.585.831.831,0,0,1-.371.341h0a1.686,1.686,0,0,1-1.322,0,.855.855,0,0,1-.375-.345,1.127,1.127,0,0,1-.137-.582Z" transform="translate(-1049.086 -307.187)"/>
      <path id="路径_609" data-name="路径 609" class="cls-1" d="M1067.481,314.594a3.19,3.19,0,0,0,1.38-1.245,3.6,3.6,0,0,0,.479-1.874V310.8a3.532,3.532,0,0,0-.481-1.853,3.148,3.148,0,0,0-1.382-1.228,4.691,4.691,0,0,0-2.018-.409h-4.834V319.78h3.186v-4.767h.362l2.243,4.767h3.654l-2.592-5.185Zm-1.5-4.116a.826.826,0,0,1,.078.377v.652a.7.7,0,0,1-.073.339.432.432,0,0,1-.189.185.752.752,0,0,1-.361.078h-1.621v-1.9h1.621a.755.755,0,0,1,.362.076A.425.425,0,0,1,1065.978,310.477Z" transform="translate(-1050.135 -307.198)"/>
      <path id="路径_610" data-name="路径 610" class="cls-1" d="M1080.281,308.963a3.225,3.225,0,0,0-1.416-1.234,4.9,4.9,0,0,0-2.074-.413H1072.1v12.464h3.205V315.3h1.487a4.947,4.947,0,0,0,2.066-.406,3.216,3.216,0,0,0,1.423-1.221,3.425,3.425,0,0,0,.5-1.855v-.985A3.477,3.477,0,0,0,1080.281,308.963Zm-2.861,1.582a.975.975,0,0,1,.091.437v.684a.865.865,0,0,1-.091.409.541.541,0,0,1-.226.232.809.809,0,0,1-.394.088h-1.5v-2.174h1.5a.8.8,0,0,1,.4.089A.531.531,0,0,1,1077.42,310.545Z" transform="translate(-1051.178 -307.199)"/>
    </g>
    <path id="路径_611" data-name="路径 611" class="cls-1" d="M1062.859,344.619a25,25,0,0,1-.43-50c.147,0,.3,0,.443,0a25,25,0,0,1,.431,50Zm.012-47.272c-.131,0-.263,0-.394,0a22.258,22.258,0,1,0,.394,0Z"/>
    <path id="路径_612" data-name="路径 612" class="cls-1" d="M1080.8,325.222a3.3,3.3,0,0,0-5.029,0c-.458.443-.7.655-1.253.655s-.795-.212-1.253-.655a3.3,3.3,0,0,0-5.031,0c-.457.443-.7.655-1.252.655s-.794-.212-1.252-.654a3.3,3.3,0,0,0-5.028,0c-.457.442-.7.654-1.251.654s-.794-.212-1.252-.654a3.3,3.3,0,0,0-5.028,0c-.456.442-.7.654-1.249.654s-.794-.212-1.251-.654a3.294,3.294,0,0,0-5.026,0c-.113.109-.212.2-.306.285a18.423,18.423,0,0,0,.431,1.88,4.4,4.4,0,0,0,1.139-.857c.456-.442.7-.654,1.249-.654s.794.212,1.251.654a3.294,3.294,0,0,0,5.026,0c.457-.442.7-.654,1.251-.654s.793.212,1.252.654a3.3,3.3,0,0,0,5.027,0c.457-.442.7-.654,1.251-.654s.794.212,1.252.654a3.3,3.3,0,0,0,5.029,0c.458-.443.7-.655,1.253-.655s.795.212,1.253.655a3.3,3.3,0,0,0,5.03,0c.458-.442.7-.654,1.252-.654s.795.212,1.253.655a3.685,3.685,0,0,0,1.736,1.07q.257-.865.433-1.763A1.974,1.974,0,0,1,1080.8,325.222Z" transform="translate(-0.68 -2.676)"/>
    <path id="路径_613" data-name="路径 613" class="cls-1" d="M1078.436,330.571a3.36,3.36,0,0,0-2.514,1.164c-.458.443-.7.655-1.253.655s-.795-.212-1.253-.655a3.3,3.3,0,0,0-5.031,0c-.457.443-.7.655-1.252.655s-.794-.212-1.252-.654a3.3,3.3,0,0,0-5.028,0c-.457.442-.7.654-1.251.654s-.794-.212-1.252-.654a3.3,3.3,0,0,0-5.028,0c-.456.442-.7.654-1.249.654s-.794-.212-1.251-.654a3.357,3.357,0,0,0-2.514-1.165,3.079,3.079,0,0,0-1.307.275,18.3,18.3,0,0,0,.872,1.614,1.348,1.348,0,0,1,.435-.07c.549,0,.794.212,1.251.654a3.294,3.294,0,0,0,5.026,0c.457-.442.7-.654,1.251-.654s.793.212,1.252.654a3.3,3.3,0,0,0,5.027,0c.457-.442.7-.654,1.251-.654s.794.212,1.252.654a3.3,3.3,0,0,0,5.029,0c.458-.443.7-.655,1.253-.655s.795.212,1.253.655a3.3,3.3,0,0,0,5.03,0c.458-.442.7-.654,1.252-.654a1.272,1.272,0,0,1,.916.348q.49-.776.9-1.6A3.037,3.037,0,0,0,1078.436,330.571Z" transform="translate(-0.831 -3.269)"/>
    <path id="路径_614" data-name="路径 614" class="cls-1" d="M1074.016,338.25a3.3,3.3,0,0,0-5.031,0c-.457.442-.7.655-1.252.655s-.794-.213-1.252-.655a3.3,3.3,0,0,0-5.028,0c-.457.442-.7.655-1.251.655s-.794-.213-1.252-.655a3.3,3.3,0,0,0-5.028,0c-.122.118-.228.217-.33.3a18.3,18.3,0,0,0,1.585,1.012l.008-.007c.457-.442.7-.654,1.251-.654s.793.212,1.252.654a3.3,3.3,0,0,0,5.027,0c.457-.442.7-.654,1.251-.654s.794.212,1.252.654a3.3,3.3,0,0,0,5.029,0c.458-.442.7-.654,1.253-.654s.795.212,1.253.654c.078.075.163.155.251.236a18.537,18.537,0,0,0,1.69-1.016A2.708,2.708,0,0,1,1074.016,338.25Z" transform="translate(-1.43 -3.861)"/>
  </g>
</svg>
