<svg xmlns="http://www.w3.org/2000/svg" width="50" height="50" viewBox="0 0 50 50">
  <defs>
    <style>
      .cls-1 {
        fill: #fff;
      }
    </style>
  </defs>
  <g id="组_570" data-name="组 570" transform="translate(-694.208 -469.621)">
    <g id="组_569" data-name="组 569" transform="translate(712.522 478.152)">
      <path id="路径_664" data-name="路径 664" class="cls-1" d="M724.432,499.5v-17.21a3.289,3.289,0,0,0-3.289-3.289h-.207a3.288,3.288,0,0,0-3.288,3.289v3.686h1.8a.87.87,0,1,1,0,1.739h-1.8v1.687h1.8a.87.87,0,1,1,0,1.739h-1.8v2.144h1.8a.87.87,0,1,1,0,1.739h-1.8V499.5a6.685,6.685,0,1,0,6.784,0Z" transform="translate(-714.354 -479.005)"/>
      <circle id="椭圆_213" data-name="椭圆 213" class="cls-1" cx="3.295" cy="3.295" r="3.295" transform="translate(3.39 22.957)"/>
    </g>
    <path id="路径_665" data-name="路径 665" class="cls-1" d="M719.2,519.621a25,25,0,0,1-.424-50l.442,0A25.03,25.03,0,0,1,744.2,494.184h0a25.031,25.031,0,0,1-24.56,25.433C719.494,519.62,719.344,519.621,719.2,519.621Zm.017-47.272-.394,0a22.273,22.273,0,1,0,22.658,21.881h0A22.3,22.3,0,0,0,719.212,472.348Z" transform="translate(0 0)"/>
    <path id="路径_666" data-name="路径 666" class="cls-1" d="M732.462,487.368a2.477,2.477,0,1,1,2.477-2.477A2.48,2.48,0,0,1,732.462,487.368Zm0-3.135a.659.659,0,1,0,.659.658A.659.659,0,0,0,732.462,484.232Z" transform="translate(-3.253 -1.163)"/>
    <path id="路径_667" data-name="路径 667" class="cls-1" d="M706.659,493.191a3.148,3.148,0,1,1,3.148-3.148A3.151,3.151,0,0,1,706.659,493.191Zm0-4.477a1.33,1.33,0,1,0,1.33,1.329A1.331,1.331,0,0,0,706.659,488.714Z" transform="translate(-0.846 -1.571)"/>
    <path id="路径_668" data-name="路径 668" class="cls-1" d="M735.471,501.271a4.216,4.216,0,1,1,4.215-4.216A4.22,4.22,0,0,1,735.471,501.271Zm0-6.614a2.4,2.4,0,1,0,2.4,2.4A2.4,2.4,0,0,0,735.471,494.656Z" transform="translate(-3.368 -2.111)"/>
  </g>
</svg>
