<svg xmlns="http://www.w3.org/2000/svg" width="50" height="49.999" viewBox="0 0 50 49.999">
  <defs>
    <style>
      .cls-1 {
        fill: #FFF
      }
    </style>
  </defs>
  <g id="组_559" data-name="组 559" transform="translate(-1553.351 -294.619)">
    <g id="组_556" data-name="组 556" transform="translate(1559.741 303.751)">
      <path id="路径_629" data-name="路径 629" class="cls-1" d="M1568.84,335.966a.908.908,0,0,1-.521-.165,18.589,18.589,0,0,1,0-30.472.909.909,0,0,1,1.043,1.488,16.773,16.773,0,0,0,0,27.5.909.909,0,0,1-.523,1.653Z" transform="translate(-1560.38 -304.71)"/>
      <path id="路径_630" data-name="路径 630" class="cls-1" d="M1591.157,336.386a.909.909,0,0,1-.488-1.677,16.763,16.763,0,0,0,0-28.367.909.909,0,0,1,.974-1.536,18.582,18.582,0,0,1,0,31.44A.907.907,0,0,1,1591.157,336.386Z" transform="translate(-1563.095 -304.664)"/>
    </g>
    <path id="路径_631" data-name="路径 631" class="cls-1" d="M1578.344,344.618a25,25,0,1,1,25-25.436h0a25,25,0,0,1-24.559,25.433Zm.017-47.272c-.133,0-.265,0-.4,0a22.273,22.273,0,1,0,22.657,21.881h0a22.27,22.27,0,0,0-22.258-21.883Z" transform="translate(0 0)"/>
    <g id="组_557" data-name="组 557" transform="translate(1564.925 308.265)">
      <path id="路径_632" data-name="路径 632" class="cls-1" d="M1588.343,332.328a.909.909,0,0,1-.5-1.667,11.593,11.593,0,0,0,0-19.363.909.909,0,0,1,1-1.516,13.411,13.411,0,0,1,0,22.4A.907.907,0,0,1,1588.343,332.328Z" transform="translate(-1568.024 -309.63)"/>
      <path id="路径_633" data-name="路径 633" class="cls-1" d="M1571.917,331.883a.9.9,0,0,1-.551-.187,13.394,13.394,0,0,1,0-21.318.909.909,0,0,1,1.1,1.444,11.578,11.578,0,0,0,0,18.431.909.909,0,0,1-.554,1.631Z" transform="translate(-1566.083 -309.681)"/>
    </g>
    <g id="组_558" data-name="组 558" transform="translate(1571.225 311.662)">
      <path id="路径_634" data-name="路径 634" class="cls-1" d="M1577.386,318.66h-3.128a1.25,1.25,0,0,0-1.245,1.244v4.679a1.251,1.251,0,0,0,1.245,1.244h3.128Z" transform="translate(-1573.013 -313.848)"/>
      <path id="路径_635" data-name="路径 635" class="cls-1" d="M1584.843,313.58l-5.959,4.591v7.174l5.959,4.449c.531.413.969.2.982-.457l0,.006V314.062C1585.829,313.379,1585.381,313.162,1584.843,313.58Z" transform="translate(-1573.547 -313.367)"/>
    </g>
  </g>
</svg>
