<svg xmlns="http://www.w3.org/2000/svg" width="50" height="50.001" viewBox="0 0 50 50.001">
  <defs>
    <style>
      .cls-1 {
        fill: #fff;
      }
    </style>
  </defs>
  <g id="组_594" data-name="组 594" transform="translate(-1553.351 -469.619)">
    <g id="组_592" data-name="组 592" transform="translate(1558.654 498.747)">
      <path id="路径_731" data-name="路径 731" class="cls-1" d="M1600.843,503.478H1595a.909.909,0,0,1,0-1.818h5.838a.909.909,0,1,1,0,1.818Z" transform="translate(-1562.358 -501.66)"/>
      <path id="路径_732" data-name="路径 732" class="cls-1" d="M1565.931,503.478h-5.838a.909.909,0,0,1,0-1.818h5.838a.909.909,0,0,1,0,1.818Z" transform="translate(-1559.184 -501.66)"/>
    </g>
    <path id="路径_733" data-name="路径 733" class="cls-1" d="M1578.338,519.62a24.968,24.968,0,1,1,.45,0C1578.638,519.619,1578.487,519.62,1578.338,519.62Zm.018-47.272-.394,0a22.273,22.273,0,0,0-15.083,38.291,22.272,22.272,0,0,0,37.74-16.411h0A22.3,22.3,0,0,0,1578.356,472.348Z" transform="translate(0 0)"/>
    <path id="路径_734" data-name="路径 734" class="cls-1" d="M1578.338,519.62a24.968,24.968,0,1,1,.45,0C1578.638,519.619,1578.487,519.62,1578.338,519.62Zm.018-47.272-.394,0a22.273,22.273,0,0,0-15.083,38.291,22.272,22.272,0,0,0,37.74-16.411h0A22.3,22.3,0,0,0,1578.356,472.348Z" transform="translate(0 0)"/>
    <g id="组_593" data-name="组 593" transform="translate(1575.077 483.631)">
      <rect id="矩形_456" data-name="矩形 456" class="cls-1" width="6.549" height="19.568" rx="3.274"/>
      <circle id="椭圆_217" data-name="椭圆 217" class="cls-1" cx="3.274" cy="3.274" r="3.274" transform="translate(0 21.055)"/>
    </g>
    <path id="路径_735" data-name="路径 735" class="cls-1" d="M1597.729,488.232a5.517,5.517,0,0,1-.289,1.743,5.426,5.426,0,0,1-5.15,3.7c-.157,0-.328-.014-.485-.026a4.245,4.245,0,0,1-.877-2.595,2.6,2.6,0,0,1,.013-.315,4.234,4.234,0,0,1,.17-.918,1,1,0,0,1,.079-.209,1.059,1.059,0,0,0-.236.249h-.013a3.943,3.943,0,0,0-.682,1.035,4.119,4.119,0,0,0-.406,1.808,1.981,1.981,0,0,0,.026.394,5.338,5.338,0,0,1-2.49-2.516,5.13,5.13,0,0,1-.458-1.481,4.593,4.593,0,0,1-.079-.865,5.446,5.446,0,0,1,2.071-4.273,3.937,3.937,0,0,0,1.717-3.236,3.347,3.347,0,0,0-.04-.512,5.423,5.423,0,0,1,3.722,2.975,5.337,5.337,0,0,1,.525,2.333,5.161,5.161,0,0,1-.157,1.285,2.519,2.519,0,0,1-.118.419,4.445,4.445,0,0,0,.223-.433,5.214,5.214,0,0,0,.5-2.267,6.5,6.5,0,0,0-.066-.878,5.474,5.474,0,0,1,2.464,3.906A5.733,5.733,0,0,1,1597.729,488.232Z" transform="translate(-3.046 -0.963)"/>
    <path id="路径_736" data-name="路径 736" class="cls-1" d="M1572.1,491.594a5.084,5.084,0,0,1-.264,1.6,4.97,4.97,0,0,1-4.717,3.384c-.144,0-.3-.012-.444-.024a3.883,3.883,0,0,1-.8-2.376,2.189,2.189,0,0,1,.013-.288,3.851,3.851,0,0,1,.155-.84.987.987,0,0,1,.072-.192.975.975,0,0,0-.215.228h-.012a3.587,3.587,0,0,0-.625.948,3.769,3.769,0,0,0-.372,1.656,1.84,1.84,0,0,0,.024.36,4.886,4.886,0,0,1-2.28-2.3,4.673,4.673,0,0,1-.42-1.356,4.2,4.2,0,0,1-.073-.792,4.987,4.987,0,0,1,1.9-3.913,3.606,3.606,0,0,0,1.573-2.964,3.15,3.15,0,0,0-.036-.468,4.966,4.966,0,0,1,3.408,2.725,4.887,4.887,0,0,1,.481,2.136,4.7,4.7,0,0,1-.145,1.176,2.322,2.322,0,0,1-.107.384,4.075,4.075,0,0,0,.2-.4,4.779,4.779,0,0,0,.456-2.075,5.952,5.952,0,0,0-.059-.8,5.013,5.013,0,0,1,2.256,3.576A5.21,5.21,0,0,1,1572.1,491.594Z" transform="translate(-0.799 -1.33)"/>
  </g>
</svg>
