<svg xmlns="http://www.w3.org/2000/svg" width="50" height="50.001" viewBox="0 0 50 50.001">
  <defs>
    <style>
      .cls-1 {
        fill: #fff;
      }
    </style>
  </defs>
  <g id="组_2087" data-name="组 2087" transform="translate(-1378.341 -644.495)">
    <path id="路径_1386" data-name="路径 1386" class="cls-1" d="M1403.335,694.5a25,25,0,0,1-.431-50,25,25,0,0,1,25.432,24.56h0a25,25,0,0,1-24.56,25.432C1403.63,694.5,1403.482,694.5,1403.335,694.5Zm.017-47.272c-.134,0-.266,0-.4,0a22.272,22.272,0,1,0,22.657,21.88h0a22.272,22.272,0,0,0-22.257-21.883Z"/>
    <path id="路径_1387" data-name="路径 1387" class="cls-1" d="M1415.092,676.875h-1.332l-2.752-15.8a2.47,2.47,0,0,0-2.308-2.308h-7.99a2.381,2.381,0,0,0-2.308,2.219l-2.841,15.891h-1.243a.986.986,0,0,0-.977.977v3.995a.985.985,0,0,0,.977.976h20.773a.985.985,0,0,0,.976-.976v-3.995A.985.985,0,0,0,1415.092,676.875ZM1404.7,672.7a3.526,3.526,0,0,1-3.64-3.551,3.656,3.656,0,0,1,3.64-3.64,3.581,3.581,0,0,1,3.64,3.552A3.655,3.655,0,0,1,1404.7,672.7Z" transform="translate(-1.364 -1.297)"/>
    <path id="路径_1388" data-name="路径 1388" class="cls-1" d="M1406.684,668.106a2.107,2.107,0,1,0,1.054,1.825A2.108,2.108,0,0,0,1406.684,668.106Z" transform="translate(-2.29 -2.121)"/>
    <path id="路径_1389" data-name="路径 1389" class="cls-1" d="M1393.778,667.829h-7.007a.909.909,0,0,1,0-1.818h7.007a.909.909,0,0,1,0,1.818Z" transform="translate(-0.684 -1.956)"/>
    <path id="路径_1390" data-name="路径 1390" class="cls-1" d="M1390.539,674.783a.909.909,0,0,1-.522-1.654l3.226-2.259a.909.909,0,1,1,1.043,1.489l-3.227,2.26A.9.9,0,0,1,1390.539,674.783Z" transform="translate(-1.026 -2.383)"/>
    <path id="路径_1391" data-name="路径 1391" class="cls-1" d="M1393.764,662.908a.9.9,0,0,1-.521-.164l-3.226-2.26a.909.909,0,1,1,1.042-1.489l3.227,2.259a.909.909,0,0,1-.522,1.654Z" transform="translate(-1.026 -1.303)"/>
    <path id="路径_1392" data-name="路径 1392" class="cls-1" d="M1424.028,667.829h-7.007a.909.909,0,1,1,0-1.818h7.007a.909.909,0,0,1,0,1.818Z" transform="translate(-3.434 -1.956)"/>
    <path id="路径_1393" data-name="路径 1393" class="cls-1" d="M1420.639,674.783a.9.9,0,0,1-.521-.164l-3.226-2.26a.909.909,0,0,1,1.042-1.489l3.227,2.259a.909.909,0,0,1-.522,1.654Z" transform="translate(-3.47 -2.383)"/>
    <path id="路径_1394" data-name="路径 1394" class="cls-1" d="M1417.414,662.908a.909.909,0,0,1-.522-1.654l3.226-2.259a.909.909,0,1,1,1.043,1.489l-3.227,2.26A.9.9,0,0,1,1417.414,662.908Z" transform="translate(-3.47 -1.303)"/>
  </g>
</svg>
