<svg xmlns="http://www.w3.org/2000/svg" width="50" height="50" viewBox="0 0 50 50">
  <defs>
    <style>
      .cls-1 {
        fill: #fff;
      }
    </style>
  </defs>
  <g id="组_591" data-name="组 591" transform="translate(-1381.522 -469.619)">
    <path id="路径_722" data-name="路径 722" class="cls-1" d="M1406.509,519.619a24.988,24.988,0,1,1,.449,0C1406.808,519.618,1406.658,519.619,1406.509,519.619Zm.016-47.271-.393,0a22.272,22.272,0,0,0-15.082,38.291,22.033,22.033,0,0,0,15.859,6.247,22.272,22.272,0,0,0-.385-44.541Z" transform="translate(0 0)"/>
    <path id="路径_723" data-name="路径 723" class="cls-1" d="M1406.509,519.619a24.988,24.988,0,1,1,.449,0C1406.808,519.618,1406.658,519.619,1406.509,519.619Zm.016-47.271-.393,0a22.272,22.272,0,0,0-15.082,38.291,22.033,22.033,0,0,0,15.859,6.247,22.272,22.272,0,0,0-.385-44.541Z" transform="translate(0 0)"/>
    <g id="组_587" data-name="组 587" transform="translate(1386.825 498.746)">
      <path id="路径_724" data-name="路径 724" class="cls-1" d="M1429.015,503.478h-5.838a.909.909,0,0,1,0-1.818h5.838a.909.909,0,1,1,0,1.818Z" transform="translate(-1390.531 -501.66)"/>
      <path id="路径_725" data-name="路径 725" class="cls-1" d="M1394.1,503.478h-5.837a.909.909,0,0,1,0-1.818h5.837a.909.909,0,0,1,0,1.818Z" transform="translate(-1387.356 -501.66)"/>
    </g>
    <g id="组_588" data-name="组 588" transform="translate(1395.528 497.394)">
      <path id="路径_726" data-name="路径 726" class="cls-1" d="M1402.678,508.452a2.384,2.384,0,0,1-.2.873.926.926,0,0,1-.354.416,1.517,1.517,0,0,1-1.239,0,.833.833,0,0,1-.362-.337,1.228,1.228,0,0,1-.135-.61v-4.538a1.247,1.247,0,0,1,.136-.612.812.812,0,0,1,.361-.343,1.478,1.478,0,0,1,1.235,0,.9.9,0,0,1,.353.412,2.658,2.658,0,0,1,.209.883l.038.413h3.449l-.035-.486a5.693,5.693,0,0,0-.642-2.4,3.554,3.554,0,0,0-1.571-1.486,5.43,5.43,0,0,0-2.375-.475,5.843,5.843,0,0,0-2.43.466,3.614,3.614,0,0,0-1.626,1.418,4.184,4.184,0,0,0-.559,2.2V508.8a4.169,4.169,0,0,0,.56,2.2,3.624,3.624,0,0,0,1.625,1.412,5.852,5.852,0,0,0,2.431.466,5.4,5.4,0,0,0,2.371-.475,3.56,3.56,0,0,0,1.564-1.484,5.771,5.771,0,0,0,.651-2.393l.038-.49h-3.458Z" transform="translate(-1396.929 -500.172)"/>
      <path id="路径_727" data-name="路径 727" class="cls-1" d="M1414.087,500.3v4.863h-2.511V500.3h-3.38v12.463h3.38v-4.728h2.511v4.728h3.379V500.3Z" transform="translate(-1397.953 -500.184)"/>
    </g>
    <g id="组_589" data-name="组 589" transform="translate(1416.214 502.764)">
      <path id="路径_728" data-name="路径 728" class="cls-1" d="M1419.684,511l2-4.92h1.519l-1.936,4.86h3.1v1.253h-4.679Zm2.786-1.81h1.375v4.116h-1.375Z" transform="translate(-1419.684 -506.079)"/>
    </g>
    <path id="路径_729" data-name="路径 729" class="cls-1" d="M1410.7,488.425a7.258,7.258,0,0,1-.379,2.29,7.128,7.128,0,0,1-6.765,4.854c-.206,0-.43-.017-.636-.035a5.577,5.577,0,0,1-1.154-3.408,3.3,3.3,0,0,1,.017-.414,5.555,5.555,0,0,1,.224-1.2,1.273,1.273,0,0,1,.1-.275,1.392,1.392,0,0,0-.31.326h-.017a5.2,5.2,0,0,0-.895,1.36,5.4,5.4,0,0,0-.535,2.376,2.6,2.6,0,0,0,.035.516,7.009,7.009,0,0,1-3.27-3.305,6.692,6.692,0,0,1-.6-1.945,6.054,6.054,0,0,1-.1-1.136,7.151,7.151,0,0,1,2.72-5.612,5.174,5.174,0,0,0,2.255-4.252,4.52,4.52,0,0,0-.052-.672,7.125,7.125,0,0,1,4.888,3.908,7.009,7.009,0,0,1,.689,3.064,6.777,6.777,0,0,1-.206,1.686,3.357,3.357,0,0,1-.155.551,5.735,5.735,0,0,0,.292-.568,6.848,6.848,0,0,0,.654-2.978,8.409,8.409,0,0,0-.086-1.153,7.192,7.192,0,0,1,3.236,5.13A7.521,7.521,0,0,1,1410.7,488.425Z" transform="translate(-1.354 -0.752)"/>
    <path id="路径_730" data-name="路径 730" class="cls-1" d="M1423.686,487.412a4.448,4.448,0,0,1-.233,1.405,4.378,4.378,0,0,1-4.154,2.982c-.127,0-.265-.011-.392-.021a3.428,3.428,0,0,1-.708-2.094,1.959,1.959,0,0,1,.011-.254,3.4,3.4,0,0,1,.137-.74.773.773,0,0,1,.064-.169.852.852,0,0,0-.191.2h-.01a3.164,3.164,0,0,0-.55.835,3.312,3.312,0,0,0-.327,1.458,1.608,1.608,0,0,0,.021.317,4.3,4.3,0,0,1-2.008-2.03,4.138,4.138,0,0,1-.371-1.195,3.766,3.766,0,0,1-.063-.7,4.392,4.392,0,0,1,1.67-3.446,3.177,3.177,0,0,0,1.385-2.612,2.736,2.736,0,0,0-.032-.412,4.374,4.374,0,0,1,3,2.4,4.3,4.3,0,0,1,.423,1.882,4.151,4.151,0,0,1-.126,1.035,1.96,1.96,0,0,1-.1.338,3.542,3.542,0,0,0,.18-.348,4.21,4.21,0,0,0,.4-1.829,5.312,5.312,0,0,0-.053-.708,4.414,4.414,0,0,1,1.987,3.15A4.715,4.715,0,0,1,1423.686,487.412Z" transform="translate(-3.036 -1.03)"/>
  </g>
</svg>
