<svg xmlns="http://www.w3.org/2000/svg" width="50" height="50.001" viewBox="0 0 50 50.001">
  <defs>
    <style>
      .cls-1 {
        fill: #fff;
      }
    </style>
  </defs>
  <g id="组_2136" data-name="组 2136" transform="translate(-350.551 -821.774)">
    <path id="路径_1418" data-name="路径 1418" class="cls-1" d="M375.545,871.775a25,25,0,0,1-.432-50,25,25,0,0,1,.874,49.992C375.84,871.774,375.693,871.775,375.545,871.775Zm.016-47.272c-.134,0-.266,0-.4,0a22.272,22.272,0,0,0,.385,44.541c.132,0,.262,0,.394,0a22.272,22.272,0,0,0-.378-44.541Z"/>
    <g id="组_2135" data-name="组 2135" transform="translate(359.031 833.477)">
      <path id="路径_1419" data-name="路径 1419" class="cls-1" d="M384.33,838.782H370.039a1.522,1.522,0,0,0-1.522,1.523v1.684h0v12.9h0v1.685a1.522,1.522,0,0,0,1.522,1.522H384.33a1.522,1.522,0,0,0,1.522-1.522V840.3A1.522,1.522,0,0,0,384.33,838.782Zm-6.246,12.764v-2.632a.413.413,0,0,1,.413-.413h3.437a.414.414,0,0,1,.413.413v2.632h1.145a.412.412,0,0,1,.413.413v1.084a.413.413,0,0,1-.413.413H370.878a.413.413,0,0,1-.413-.413v-1.084a.412.412,0,0,1,.413-.413h1.169v-2.632a.413.413,0,0,1,.413-.413H375.9a.414.414,0,0,1,.413.413v2.632Z" transform="translate(-360.664 -835.023)"/>
      <path id="路径_1420" data-name="路径 1420" class="cls-1" d="M363.884,861.229a.911.911,0,0,1-.6-.223l-3.1-2.694a.909.909,0,0,1,1.193-1.373l1.591,1.385V849.7a.909.909,0,0,1,1.818,0V860.32a.907.907,0,0,1-.532.827A.9.9,0,0,1,363.884,861.229Zm25.029-14.139a.908.908,0,0,1-.909-.909V835.557a.909.909,0,0,1,1.505-.685l3.1,2.694a.909.909,0,1,1-1.193,1.372l-1.591-1.385v8.629A.909.909,0,0,1,388.913,847.091Z" transform="translate(-359.879 -834.647)"/>
      <path id="路径_1421" data-name="路径 1421" class="cls-1" d="M384.869,836.721H369.557a.909.909,0,1,1,0-1.818h15.312a.909.909,0,1,1,0,1.818Z" transform="translate(-360.676 -834.671)"/>
      <path id="路径_1422" data-name="路径 1422" class="cls-1" d="M384.869,863.721H369.557a.909.909,0,1,1,0-1.818h15.312a.909.909,0,1,1,0,1.818Z" transform="translate(-360.676 -837.125)"/>
    </g>
  </g>
</svg>
