<svg xmlns="http://www.w3.org/2000/svg" width="50" height="50.001" viewBox="0 0 50 50.001">
  <defs>
    <style>
      .cls-1 {
        fill: #fff;
      }
    </style>
  </defs>
  <g id="组_598" data-name="组 598" transform="translate(-1725.18 -469.619)">
    <path id="路径_737" data-name="路径 737" class="cls-1" d="M1750.167,519.62a24.97,24.97,0,1,1,.449,0C1750.466,519.619,1750.316,519.62,1750.167,519.62Zm.018-47.272-.394,0a22.273,22.273,0,0,0-15.083,38.291,22.273,22.273,0,0,0,37.74-16.411h0A22.3,22.3,0,0,0,1750.185,472.348Z" transform="translate(0 0)"/>
    <path id="路径_738" data-name="路径 738" class="cls-1" d="M1750.167,519.62a24.97,24.97,0,1,1,.449,0C1750.466,519.619,1750.316,519.62,1750.167,519.62Zm.018-47.272-.394,0a22.273,22.273,0,0,0-15.083,38.291,22.273,22.273,0,0,0,37.74-16.411h0A22.3,22.3,0,0,0,1750.185,472.348Z" transform="translate(0 0)"/>
    <g id="组_595" data-name="组 595" transform="translate(1730.483 498.747)">
      <path id="路径_739" data-name="路径 739" class="cls-1" d="M1772.672,503.478h-5.838a.909.909,0,0,1,0-1.818h5.838a.909.909,0,1,1,0,1.818Z" transform="translate(-1734.187 -501.66)"/>
      <path id="路径_740" data-name="路径 740" class="cls-1" d="M1737.76,503.478h-5.838a.909.909,0,0,1,0-1.818h5.838a.909.909,0,0,1,0,1.818Z" transform="translate(-1731.013 -501.66)"/>
    </g>
    <g id="组_596" data-name="组 596" transform="translate(1739.186 497.394)">
      <path id="路径_741" data-name="路径 741" class="cls-1" d="M1746.336,508.452a2.384,2.384,0,0,1-.2.873.925.925,0,0,1-.354.416,1.514,1.514,0,0,1-1.238,0,.829.829,0,0,1-.363-.337,1.228,1.228,0,0,1-.135-.61v-4.538a1.247,1.247,0,0,1,.136-.612.809.809,0,0,1,.362-.343,1.476,1.476,0,0,1,1.235,0,.9.9,0,0,1,.353.412,2.662,2.662,0,0,1,.209.883l.038.413h3.449l-.035-.486a5.693,5.693,0,0,0-.642-2.4,3.554,3.554,0,0,0-1.571-1.486,5.428,5.428,0,0,0-2.375-.475,5.843,5.843,0,0,0-2.43.466,3.613,3.613,0,0,0-1.626,1.418,4.184,4.184,0,0,0-.559,2.2V508.8a4.169,4.169,0,0,0,.56,2.2,3.623,3.623,0,0,0,1.625,1.412,5.852,5.852,0,0,0,2.431.466,5.4,5.4,0,0,0,2.371-.475,3.562,3.562,0,0,0,1.565-1.485,5.773,5.773,0,0,0,.651-2.393l.038-.49h-3.458Z" transform="translate(-1740.587 -500.172)"/>
      <path id="路径_742" data-name="路径 742" class="cls-1" d="M1760.578,502a3.809,3.809,0,0,0-1.69-1.374,6.783,6.783,0,0,0-4.9,0A3.785,3.785,0,0,0,1752.3,502a3.732,3.732,0,0,0-.6,2.1v4.832a3.638,3.638,0,0,0,2.288,3.476,6.777,6.777,0,0,0,4.9,0,3.791,3.791,0,0,0,1.691-1.378,3.739,3.739,0,0,0,.6-2.1v-4.832A3.739,3.739,0,0,0,1760.578,502Zm-5.435,2.207a1.024,1.024,0,0,1,.145-.562.947.947,0,0,1,.416-.358,1.709,1.709,0,0,1,.732-.144,1.748,1.748,0,0,1,.739.145.914.914,0,0,1,.413.354,1.06,1.06,0,0,1,.143.565v4.617a1.08,1.08,0,0,1-.142.573.9.9,0,0,1-.41.348h0a2,2,0,0,1-1.476,0,.918.918,0,0,1-.415-.352,1.044,1.044,0,0,1-.144-.569Z" transform="translate(-1741.597 -500.172)"/>
    </g>
    <g id="组_597" data-name="组 597" transform="translate(1759.818 502.684)">
      <path id="路径_743" data-name="路径 743" class="cls-1" d="M1763.351,512.114l2.114-2.893a3.884,3.884,0,0,0,.4-.74,1.707,1.707,0,0,0,.133-.612v-.054a.543.543,0,0,0-.156-.423.66.66,0,0,0-.458-.145.615.615,0,0,0-.484.194.9.9,0,0,0-.2.563v.134h-1.423V508a2.385,2.385,0,0,1,.273-1.1,1.642,1.642,0,0,1,.711-.681,2.424,2.424,0,0,1,1.1-.232,2.762,2.762,0,0,1,1.129.206,1.487,1.487,0,0,1,.7.608,1.949,1.949,0,0,1,.235.995v.05a2.738,2.738,0,0,1-.187.945,5.116,5.116,0,0,1-.541,1.033l-1.577,2.2h2.321v1.263h-4.092Z" transform="translate(-1763.282 -505.991)"/>
    </g>
    <path id="路径_744" data-name="路径 744" class="cls-1" d="M1752.43,491.057a2.229,2.229,0,0,0-.457.047,4.392,4.392,0,0,0-3.533-4.044,3.461,3.461,0,0,0-3.366-3.007,3.5,3.5,0,0,0-3.421,3.567c0,.087.018.169.025.255a3.692,3.692,0,0,0-.524-.055,4.055,4.055,0,0,0,0,8.1,3.832,3.832,0,0,0,3.174-1.725,4.218,4.218,0,0,0,3.383,1.747,4.172,4.172,0,0,0,2.852-1.151,2.25,2.25,0,0,0,1.868,1.019,2.38,2.38,0,0,0,0-4.755Z" transform="translate(-1.099 -1.312)"/>
    <path id="路径_745" data-name="路径 745" class="cls-1" d="M1764.089,483.58a1.469,1.469,0,0,0-.305.032,2.935,2.935,0,0,0-2.36-2.7,2.312,2.312,0,0,0-2.249-2.008,2.335,2.335,0,0,0-2.285,2.383c0,.058.012.113.016.17a2.471,2.471,0,0,0-.35-.036,2.708,2.708,0,0,0,0,5.412,2.561,2.561,0,0,0,2.12-1.152,2.819,2.819,0,0,0,2.26,1.166,2.78,2.78,0,0,0,1.9-.769,1.5,1.5,0,0,0,1.248.681,1.59,1.59,0,0,0,0-3.176Z" transform="translate(-2.617 -0.844)"/>
  </g>
</svg>
