<svg xmlns="http://www.w3.org/2000/svg" width="50" height="50" viewBox="0 0 50 50">
  <defs>
    <style>
      .cls-1 {
        fill: #fff;
      }
    </style>
  </defs>
  <g id="组_553" data-name="组 553" transform="translate(-1209.694 -294.619)">
    <g id="组_551" data-name="组 551" transform="translate(1221.218 306.044)">
      <path id="路径_615" data-name="路径 615" class="cls-1" d="M1228.842,314.033a8.586,8.586,0,0,0,.942-1.747,4.773,4.773,0,0,0,.34-1.752,3.479,3.479,0,0,0-.454-1.825,2.878,2.878,0,0,0-1.356-1.155,5.136,5.136,0,0,0-2.045-.367,4.583,4.583,0,0,0-2.016.415,3.118,3.118,0,0,0-1.369,1.27,4.208,4.208,0,0,0-.512,1.987v.669h3.257v-.641a.992.992,0,0,1,.2-.616.574.574,0,0,1,.466-.165.736.736,0,0,1,.454.116c.026.024.107.095.107.423a2.241,2.241,0,0,1-.188.808,5.667,5.667,0,0,1-.6,1.08l-3.579,4.746v2.49h7.664v-2.927h-3.385Z" transform="translate(-1222.371 -307.187)"/>
      <path id="路径_616" data-name="路径 616" class="cls-1" d="M1237.9,312.181h-2.27v-4.863h-3.2v12.463h3.2v-4.728h2.27v4.728h3.2V307.318h-3.2Z" transform="translate(-1223.285 -307.199)"/>
      <path id="路径_617" data-name="路径 617" class="cls-1" d="M1247.855,316.842l2.077-2.809a8.574,8.574,0,0,0,.941-1.747,4.771,4.771,0,0,0,.34-1.752,3.479,3.479,0,0,0-.455-1.825,2.875,2.875,0,0,0-1.356-1.155,5.136,5.136,0,0,0-2.044-.367,4.586,4.586,0,0,0-2.017.415,3.12,3.12,0,0,0-1.368,1.27,4.2,4.2,0,0,0-.512,1.987v.669h3.257v-.641a.993.993,0,0,1,.2-.616.574.574,0,0,1,.465-.165.733.733,0,0,1,.454.116c.027.024.108.095.108.423a2.241,2.241,0,0,1-.188.808,5.673,5.673,0,0,1-.6,1.08l-3.579,4.746v2.49h7.663v-2.927Z" transform="translate(-1224.288 -307.187)"/>
    </g>
    <g id="组_552" data-name="组 552" transform="translate(1209.694 294.619)">
      <path id="路径_618" data-name="路径 618" class="cls-1" d="M1234.687,344.619a25,25,0,0,1-.431-50c.148,0,.3,0,.444,0a25,25,0,0,1,.43,50Zm.012-47.272c-.132,0-.263,0-.395,0a22.259,22.259,0,1,0,.395,0Z" transform="translate(-1209.694 -294.619)"/>
      <path id="路径_619" data-name="路径 619" class="cls-1" d="M1252.629,325.222a3.3,3.3,0,0,0-5.029,0c-.458.443-.7.655-1.253.655s-.795-.212-1.253-.655a3.3,3.3,0,0,0-5.03,0c-.458.443-.7.655-1.253.655s-.794-.212-1.252-.654a3.3,3.3,0,0,0-5.027,0c-.457.442-.7.654-1.251.654s-.794-.212-1.252-.654a3.3,3.3,0,0,0-5.028,0c-.456.442-.7.654-1.249.654s-.794-.212-1.251-.654a3.3,3.3,0,0,0-5.027,0c-.112.109-.211.2-.305.285a18.133,18.133,0,0,0,.431,1.88,4.417,4.417,0,0,0,1.139-.857c.456-.442.7-.654,1.248-.654s.794.212,1.252.654a3.293,3.293,0,0,0,5.025,0c.457-.442.7-.654,1.251-.654s.794.212,1.252.654a3.3,3.3,0,0,0,5.028,0c.457-.442.7-.654,1.251-.654s.794.212,1.252.654a3.3,3.3,0,0,0,5.029,0c.458-.443.7-.655,1.253-.655s.795.212,1.253.655a3.3,3.3,0,0,0,5.03,0c.458-.442.7-.654,1.252-.654s.794.212,1.253.655a3.681,3.681,0,0,0,1.735,1.07q.259-.865.433-1.763A1.98,1.98,0,0,1,1252.629,325.222Z" transform="translate(-1210.373 -297.295)"/>
      <path id="路径_620" data-name="路径 620" class="cls-1" d="M1250.265,330.571a3.362,3.362,0,0,0-2.515,1.164c-.458.443-.7.655-1.253.655s-.795-.212-1.253-.655a3.3,3.3,0,0,0-5.03,0c-.458.443-.7.655-1.253.655s-.794-.212-1.252-.654a3.3,3.3,0,0,0-5.027,0c-.457.442-.7.654-1.251.654s-.794-.212-1.252-.654a3.3,3.3,0,0,0-5.028,0c-.456.442-.7.654-1.249.654s-.794-.212-1.251-.654a3.359,3.359,0,0,0-2.515-1.165,3.075,3.075,0,0,0-1.306.275,18.331,18.331,0,0,0,.872,1.614,1.342,1.342,0,0,1,.435-.07c.55,0,.794.212,1.252.654a3.293,3.293,0,0,0,5.025,0c.457-.442.7-.654,1.251-.654s.794.212,1.252.654a3.3,3.3,0,0,0,5.028,0c.457-.442.7-.654,1.251-.654s.794.212,1.252.654a3.3,3.3,0,0,0,5.029,0c.458-.443.7-.655,1.253-.655s.795.212,1.253.655a3.3,3.3,0,0,0,5.03,0c.458-.442.7-.654,1.252-.654a1.273,1.273,0,0,1,.916.348q.49-.776.9-1.6A3.041,3.041,0,0,0,1250.265,330.571Z" transform="translate(-1210.525 -297.888)"/>
      <path id="路径_621" data-name="路径 621" class="cls-1" d="M1245.844,338.25a3.3,3.3,0,0,0-5.03,0c-.458.442-.7.655-1.253.655s-.794-.213-1.252-.655a3.3,3.3,0,0,0-5.027,0c-.457.442-.7.655-1.251.655s-.793-.213-1.252-.655a3.3,3.3,0,0,0-5.028,0c-.123.118-.229.217-.331.3a18.445,18.445,0,0,0,1.586,1.012l.007-.007c.457-.442.7-.654,1.251-.654s.793.212,1.252.654a3.3,3.3,0,0,0,5.028,0c.457-.442.7-.654,1.251-.654s.794.212,1.252.654a3.3,3.3,0,0,0,5.029,0c.458-.442.7-.654,1.253-.654s.795.212,1.253.654c.078.075.163.155.251.236a18.426,18.426,0,0,0,1.689-1.016A2.736,2.736,0,0,1,1245.844,338.25Z" transform="translate(-1211.124 -298.48)"/>
    </g>
  </g>
</svg>
