<svg xmlns="http://www.w3.org/2000/svg" width="50" height="50" viewBox="0 0 50 50">
  <defs>
    <style>
      .cls-1 {
        fill: #fff;
      }
    </style>
  </defs>
  <g id="组_2093" data-name="组 2093" transform="translate(-1725.18 -641.573)">
    <path id="路径_1401" data-name="路径 1401" class="cls-1" d="M1750.174,691.573a24.97,24.97,0,1,1,.442,0C1750.469,691.572,1750.322,691.573,1750.174,691.573Zm.016-47.272c-.133,0-.266,0-.4,0a22.272,22.272,0,0,0,.384,44.541c.131,0,.262,0,.393,0a22.273,22.273,0,0,0,21.881-22.658h0a22.272,22.272,0,0,0-22.258-21.883Z"/>
    <g id="组_2091" data-name="组 2091" transform="translate(1736.686 650.182)">
      <path id="路径_1402" data-name="路径 1402" class="cls-1" d="M1764.024,682.959h-25.386a.8.8,0,0,1,0-1.6h25.386a.8.8,0,0,1,0,1.6Z" transform="translate(-1737.837 -653.799)"/>
      <path id="路径_1403" data-name="路径 1403" class="cls-1" d="M1759.005,679.94a.849.849,0,0,1-.621-.269l-6.5-6.964-6.5,6.964a.849.849,0,0,1-1.455-.734l4.5-24.412a.847.847,0,0,1,.834-.695h5.248a.849.849,0,0,1,.834.695l4.5,24.412a.849.849,0,0,1-.834,1Zm-7.123-11.3a.491.491,0,0,1,.358.156l3.478,4.267-3.344-16.558-.951.025-3.243,16.483,3.344-4.217A.488.488,0,0,1,1751.883,668.64Z" transform="translate(-1738.389 -651.297)"/>
      <rect id="矩形_839" data-name="矩形 839" class="cls-1" width="13.907" height="1.601" rx="0.8" transform="translate(6.54 9.097)"/>
      <rect id="矩形_840" data-name="矩形 840" class="cls-1" width="13.907" height="1.601" rx="0.8" transform="translate(6.54 31.181)"/>
      <rect id="矩形_841" data-name="矩形 841" class="cls-1" width="22.078" height="1.601" rx="0.8" transform="translate(2.455 14.934)"/>
      <path id="路径_1404" data-name="路径 1404" class="cls-1" d="M1754.023,653.995h-3.3l.8-2.951h1.7Z" transform="translate(-1739.008 -651.043)"/>
    </g>
  </g>
</svg>
