<svg xmlns="http://www.w3.org/2000/svg" width="50" height="49.999" viewBox="0 0 50 49.999">
  <defs>
    <style>
      .cls-1 {
        fill: #FFF;
      }
    </style>
  </defs>
  <g id="组_540" data-name="组 540" transform="translate(-1725.18 -119.491)">
    <path id="路径_573" data-name="路径 573" class="cls-1" d="M1750.167,169.49a25,25,0,0,1-.425-50l.444,0a25.029,25.029,0,0,1,24.99,24.562h0a25.031,25.031,0,0,1-24.561,25.432C1750.466,169.489,1750.316,169.49,1750.167,169.49Zm.018-47.272-.395,0a22.273,22.273,0,1,0,22.658,21.88h0A22.3,22.3,0,0,0,1750.185,122.218Z" transform="translate(0 0)"/>
    <path id="路径_574" data-name="路径 574" class="cls-1" d="M1769.606,146.015c.019-.412.048-.822.041-1.24,0-.2-.03-.385-.039-.578h-7.386v-8.7h4.784a18.816,18.816,0,0,0-1.237-1.818h-3.546v-3.555a18.879,18.879,0,0,0-1.818-1.22v4.775h-8.7v-7.386c-.412-.019-.821-.048-1.239-.041-.2,0-.385.03-.579.04v7.387h-8.7v-4.784a18.922,18.922,0,0,0-1.818,1.237v3.547h-3.554a18.746,18.746,0,0,0-1.22,1.818h4.774v8.7h-7.385c-.019.411-.048.82-.041,1.236,0,.2.031.387.04.582h7.385v8.7h-4.782a18.814,18.814,0,0,0,1.237,1.818h3.545v3.554a19.036,19.036,0,0,0,1.818,1.22v-4.774h8.7v7.384c.411.019.82.047,1.238.04.2,0,.385-.03.58-.039v-7.385h8.7v4.782a18.806,18.806,0,0,0,1.818-1.236v-3.545h3.553a18.8,18.8,0,0,0,1.221-1.818h-4.774v-8.7Zm-9.2-1.818h-1.373a8.535,8.535,0,0,1,.052.907,8.369,8.369,0,0,1-.053.911h1.374v8.7h-8.7v-1.374a8,8,0,0,1-1.818,0v1.374h-8.7v-8.7h1.374a8.01,8.01,0,0,1,0-1.818h-1.374v-8.7h8.7v1.372a7.864,7.864,0,0,1,1.818,0V135.5h8.7Z" transform="translate(-0.615 -0.615)"/>
    <circle id="椭圆_202" data-name="椭圆 202" class="cls-1" cx="5.751" cy="5.751" r="5.751" transform="translate(1744.429 138.74)"/>
  </g>
</svg>
