<svg xmlns="http://www.w3.org/2000/svg" width="50" height="50" viewBox="0 0 50 50">
  <defs>
    <style>
      .cls-1 {
        fill: #fff;
      }
    </style>
  </defs>
  <g id="组_2097" data-name="组 2097" transform="translate(-1039.107 -644.495)">
    <path id="路径_1376" data-name="路径 1376" class="cls-1" d="M1064.1,694.5a25,25,0,1,1,25-25.436h0a25.03,25.03,0,0,1-24.56,25.432C1064.4,694.495,1064.247,694.5,1064.1,694.5Zm.016-47.271c-.133,0-.266,0-.4,0a22.272,22.272,0,0,0,.384,44.541c.131,0,.262,0,.393,0a22.3,22.3,0,0,0,21.881-22.658h0a22.273,22.273,0,0,0-22.259-21.883Z"/>
    <g id="组_2083" data-name="组 2083" transform="translate(1049.562 655.837)">
      <path id="路径_1377" data-name="路径 1377" class="cls-1" d="M1051.517,665.19a.909.909,0,0,1-.909-.909v-6.4a.909.909,0,0,1,.909-.909h6.4a.909.909,0,0,1,0,1.818h-5.492v5.491A.909.909,0,0,1,1051.517,665.19Z" transform="translate(-1050.608 -656.972)"/>
      <path id="路径_1378" data-name="路径 1378" class="cls-1" d="M1080.874,665.19a.909.909,0,0,1-.909-.909V658.79h-5.491a.909.909,0,0,1,0-1.818h6.4a.908.908,0,0,1,.909.909v6.4A.909.909,0,0,1,1080.874,665.19Z" transform="translate(-1052.696 -656.972)"/>
    </g>
    <path id="路径_1379" data-name="路径 1379" class="cls-1" d="M1080.874,687.15h-6.4a.909.909,0,0,1,0-1.818h5.491v-5.491a.909.909,0,1,1,1.818,0v6.4A.909.909,0,0,1,1080.874,687.15Z" transform="translate(-3.133 -3.131)"/>
    <path id="路径_1380" data-name="路径 1380" class="cls-1" d="M1057.918,687.15h-6.4a.909.909,0,0,1-.909-.909v-6.4a.909.909,0,0,1,1.818,0v5.491h5.492a.909.909,0,0,1,0,1.818Z" transform="translate(-1.046 -3.131)"/>
    <path id="路径_1381" data-name="路径 1381" class="cls-1" d="M1073.989,664.3h-16.563a.71.71,0,0,0-.71.71v2.576a.71.71,0,0,0,.71.71h1.784V678.82a.785.785,0,0,0,.785.785h11.427a.785.785,0,0,0,.785-.785V668.3h1.784a.71.71,0,0,0,.71-.71v-2.576A.71.71,0,0,0,1073.989,664.3Z" transform="translate(-1.601 -1.801)"/>
  </g>
</svg>
