<svg xmlns="http://www.w3.org/2000/svg" width="50" height="50.002" viewBox="0 0 50 50.002">
  <defs>
    <style>
      .cls-1 {
        fill: #fff;
      }
    </style>
  </defs>
  <g id="组_575" data-name="组 575" transform="translate(-1037.866 -469.619)">
    <g id="组_573" data-name="组 573" transform="translate(1055.328 479.135)">
      <path id="路径_674" data-name="路径 674" class="cls-1" d="M1066.417,493.7l5.5-5.119.234-.218-.236-.216-8.293-7.6-.5-.455V490.6l-3.886-3.93-.2-.2-.21.2-1.531,1.432-.221.207.213.216,5.176,5.273-5.128,5.271-.207.213.214.207,1.481,1.431.215.208.205-.217,3.883-4.1v10.844l.5-.462,8.293-7.7.228-.212-.224-.217Zm-.676-7.853,2.39,2.275-2.39,2.39Zm0,15.646v-4.665l2.39,2.389Z" transform="translate(-1057.074 -480.086)"/>
    </g>
    <path id="路径_675" data-name="路径 675" class="cls-1" d="M1062.853,519.621a25,25,0,1,1,25.009-25.437h0a25,25,0,0,1-24.56,25.434C1063.152,519.62,1063,519.621,1062.853,519.621Zm.018-47.273-.394,0a22.273,22.273,0,1,0,22.657,21.881h0A22.3,22.3,0,0,0,1062.871,472.348Z"/>
    <path id="路径_676" data-name="路径 676" class="cls-1" d="M1071.5,515.606h-13.468a.909.909,0,0,1,0-1.818H1071.5a.909.909,0,1,1,0,1.818Z" transform="translate(-1.75 -4.015)"/>
    <path id="路径_677" data-name="路径 677" class="cls-1" d="M1054.536,508.564h-6.44a.909.909,0,1,1,0-1.818h6.44a.909.909,0,1,1,0,1.818Z" transform="translate(-0.847 -3.375)"/>
    <path id="路径_678" data-name="路径 678" class="cls-1" d="M1082.466,508.564H1074.8a.909.909,0,0,1,0-1.818h7.666a.909.909,0,1,1,0,1.818Z" transform="translate(-3.275 -3.375)"/>
    <g id="组_574" data-name="组 574" transform="translate(1042.953 496.25)">
      <path id="路径_679" data-name="路径 679" class="cls-1" d="M1085.911,500.731h-5.952a.909.909,0,0,1,0-1.818h5.952a.909.909,0,1,1,0,1.818Z" transform="translate(-1046.697 -498.913)"/>
      <path id="路径_680" data-name="路径 680" class="cls-1" d="M1050.322,500.731h-5.951a.909.909,0,0,1,0-1.818h5.951a.909.909,0,0,1,0,1.818Z" transform="translate(-1043.462 -498.913)"/>
    </g>
  </g>
</svg>
