<svg xmlns="http://www.w3.org/2000/svg" width="50" height="50" viewBox="0 0 50 50">
  <defs>
    <style>
      .cls-1 {
        fill: #fff;
      }
    </style>
  </defs>
  <g id="组_2099" data-name="组 2099" transform="translate(-863.194 -471.121)">
    <g id="组_2098" data-name="组 2098" transform="translate(887.871 483.205)">
      <path id="路径_1413" data-name="路径 1413" class="cls-1" d="M891.248,489a.909.909,0,0,1-.643-1.552l.025-.024a10.361,10.361,0,0,1,14.5-.1l.1.11a.946.946,0,0,1-.025,1.3.879.879,0,0,1-1.242.011c-.011-.011-.077-.081-.087-.093a8.539,8.539,0,0,0-11.984.085l-.123.1A.9.9,0,0,1,891.248,489Z" transform="translate(-890.339 -484.414)"/>
      <path id="路径_1414" data-name="路径 1414" class="cls-1" d="M893.677,491.519a.908.908,0,0,1-.643-1.551,7.271,7.271,0,0,1,10.145-.088l.087.091a.934.934,0,0,1-.035,1.285.887.887,0,0,1-1.25,0c-.013-.012-.06-.062-.07-.075a5.447,5.447,0,0,0-7.591.071A.9.9,0,0,1,893.677,491.519Z" transform="translate(-890.56 -484.727)"/>
      <path id="路径_1415" data-name="路径 1415" class="cls-1" d="M896.263,494.2a.909.909,0,0,1-.643-1.552,3.93,3.93,0,0,1,5.484-.047.909.909,0,0,1-1.263,1.307,2.1,2.1,0,0,0-2.936.025A.907.907,0,0,1,896.263,494.2Z" transform="translate(-890.795 -485.059)"/>
    </g>
    <path id="路径_1416" data-name="路径 1416" class="cls-1" d="M888.187,521.121a25,25,0,0,1-.43-50c.147,0,.3,0,.443,0a25.029,25.029,0,0,1,24.99,24.563h0a25.029,25.029,0,0,1-24.559,25.433C888.484,521.119,888.335,521.121,888.187,521.121Zm.012-47.272c-.132,0-.263,0-.395,0a22.272,22.272,0,0,0,.384,44.541c.132,0,.263,0,.395,0a22.3,22.3,0,0,0,21.88-22.658h0A22.3,22.3,0,0,0,888.2,473.848Z"/>
    <rect id="矩形_842" data-name="矩形 842" class="cls-1" width="11.364" height="30.571" rx="5.682" transform="translate(874.267 480.835)"/>
    <rect id="矩形_843" data-name="矩形 843" class="cls-1" width="6.263" height="16.849" rx="3.131" transform="translate(892.309 494.557)"/>
  </g>
</svg>
