<svg xmlns="http://www.w3.org/2000/svg" width="50" height="50" viewBox="0 0 50 50">
  <defs>
    <style>
      .cls-1, .cls-2 {
        fill: #fff;
      }

      .cls-2 {
        fill-rule: evenodd;
      }
    </style>
  </defs>
  <g id="组_555" data-name="组 555" transform="translate(-1381.523 -294.619)">
    <path id="路径_622" data-name="路径 622" class="cls-1" d="M1406.51,344.619a25,25,0,1,1,25.008-25.437h0a25,25,0,0,1-24.559,25.434Zm.023-47.273c-.133,0-.266,0-.4,0a22.273,22.273,0,1,0,22.657,21.881h0a22.271,22.271,0,0,0-22.258-21.884Z"/>
    <path id="路径_623" data-name="路径 623" class="cls-2" d="M1416.23,319.825c-.377-5.408-6.447-9.335-8.109-16.2-.08-.439,0-.456-.09,0-1.755,6.994-7.356,10.134-7.809,15.976-.416,5.365,4.156,8.142,8.3,8.118S1416.524,324.045,1416.23,319.825Zm-5.114,5.556a.909.909,0,1,1-.667-1.692,2.751,2.751,0,0,0,1.918-2.673.91.91,0,0,1,1.814-.137A4.612,4.612,0,0,1,1411.116,325.381Z" transform="translate(-1.697 -0.788)"/>
    <g id="组_554" data-name="组 554" transform="translate(1388.318 321.381)">
      <path id="路径_624" data-name="路径 624" class="cls-1" d="M1417.673,338.25a3.3,3.3,0,0,0-5.03,0c-.458.442-.7.655-1.253.655s-.794-.213-1.252-.655a3.3,3.3,0,0,0-5.028,0c-.456.441-.7.654-1.249.654s-.795-.213-1.253-.655a3.3,3.3,0,0,0-5.027,0c-.123.119-.229.218-.331.3a18.438,18.438,0,0,0,1.586,1.012l.008-.007c.456-.442.7-.654,1.249-.654s.794.212,1.252.654a3.3,3.3,0,0,0,5.028,0c.457-.442.7-.654,1.251-.654s.794.212,1.252.654a3.3,3.3,0,0,0,5.029,0c.458-.442.7-.654,1.253-.654s.795.212,1.253.654c.078.075.163.155.252.236a18.634,18.634,0,0,0,1.689-1.016A2.725,2.725,0,0,1,1417.673,338.25Z" transform="translate(-1389.747 -325.241)"/>
      <path id="路径_625" data-name="路径 625" class="cls-1" d="M1389.428,327.386a4.392,4.392,0,0,0,1.14-.858c.456-.441.7-.653,1.248-.653s.794.212,1.251.654a3.362,3.362,0,0,0,2.515,1.165,3.054,3.054,0,0,0,2.007-.711,8.982,8.982,0,0,1-.622-1.892l-.136.13c-.456.442-.7.655-1.249.655s-.795-.213-1.252-.655a3.294,3.294,0,0,0-5.026,0c-.113.109-.213.2-.307.285A18.391,18.391,0,0,0,1389.428,327.386Z" transform="translate(-1388.997 -324.057)"/>
      <path id="路径_626" data-name="路径 626" class="cls-1" d="M1399.495,332.389c.55,0,.794.213,1.252.655a3.364,3.364,0,0,0,2.515,1.164,3.228,3.228,0,0,0,2.379-1.037,11.423,11.423,0,0,1-5.6-2.551,3.274,3.274,0,0,0-3.064,1.116c-.456.442-.7.654-1.249.654s-.794-.212-1.252-.654a3.36,3.36,0,0,0-2.514-1.165,3.081,3.081,0,0,0-1.307.275,18.306,18.306,0,0,0,.873,1.614,1.342,1.342,0,0,1,.435-.07c.55,0,.794.213,1.251.655a3.3,3.3,0,0,0,5.027,0C1398.7,332.6,1398.947,332.389,1399.495,332.389Z" transform="translate(-1389.148 -324.649)"/>
      <path id="路径_627" data-name="路径 627" class="cls-1" d="M1415.1,333.044c.458-.442.7-.655,1.253-.655s.795.213,1.253.655a3.3,3.3,0,0,0,5.03,0c.458-.442.7-.655,1.253-.655a1.275,1.275,0,0,1,.915.348q.489-.776.9-1.6a3.03,3.03,0,0,0-1.815-.565,3.363,3.363,0,0,0-2.516,1.165c-.458.442-.7.654-1.253.654s-.795-.212-1.253-.654a3.364,3.364,0,0,0-2.489-1.163,10.371,10.371,0,0,1-6.033,2.728,3.143,3.143,0,0,0,2.239.906A3.363,3.363,0,0,0,1415.1,333.044Z" transform="translate(-1390.937 -324.649)"/>
      <path id="路径_628" data-name="路径 628" class="cls-1" d="M1420.931,325.875a1.271,1.271,0,0,1-.9-.338,9.164,9.164,0,0,1-.712,1.721,3.029,3.029,0,0,0,1.615.435,3.363,3.363,0,0,0,2.516-1.165c.458-.442.7-.654,1.253-.654s.794.212,1.252.654a3.674,3.674,0,0,0,1.737,1.071q.257-.865.433-1.763a1.981,1.981,0,0,1-.907-.616,3.3,3.3,0,0,0-5.029,0C1421.726,325.662,1421.482,325.875,1420.931,325.875Z" transform="translate(-1391.753 -324.057)"/>
    </g>
  </g>
</svg>
