<svg xmlns="http://www.w3.org/2000/svg" width="50" height="50" viewBox="0 0 50 50">
  <defs>
    <style>
      .cls-1 {
        fill: #fff;
      }
    </style>
  </defs>
  <g id="组_586" data-name="组 586" transform="translate(-522.38 -644.418)">
    <path id="路径_706" data-name="路径 706" class="cls-1" d="M561.2,686.291H535.836a.909.909,0,0,1,0-1.818H561.2a.909.909,0,0,1,0,1.818Z" transform="translate(-1.141 -3.642)"/>
    <path id="路径_707" data-name="路径 707" class="cls-1" d="M555.681,690.628h-13.1a.909.909,0,0,1,0-1.818h13.1a.909.909,0,1,1,0,1.818Z" transform="translate(-1.754 -4.036)"/>
    <path id="路径_708" data-name="路径 708" class="cls-1" d="M566.389,661.677a4.521,4.521,0,0,1-.236,1.43,4.453,4.453,0,0,1-4.227,3.034c-.128,0-.268-.011-.4-.022a3.483,3.483,0,0,1-.721-2.13,2.039,2.039,0,0,1,.011-.257,3.468,3.468,0,0,1,.14-.754.756.756,0,0,1,.065-.172.863.863,0,0,0-.194.2h-.011a3.222,3.222,0,0,0-.559.849,3.38,3.38,0,0,0-.334,1.484,1.609,1.609,0,0,0,.022.323A4.377,4.377,0,0,1,557.9,663.6a4.224,4.224,0,0,1-.376-1.215,3.748,3.748,0,0,1-.065-.71,4.467,4.467,0,0,1,1.7-3.506,3.233,3.233,0,0,0,1.409-2.657,2.723,2.723,0,0,0-.033-.419,4.449,4.449,0,0,1,3.055,2.442,4.381,4.381,0,0,1,.431,1.914,4.25,4.25,0,0,1-.129,1.054,2.137,2.137,0,0,1-.1.345,3.655,3.655,0,0,0,.183-.355,4.282,4.282,0,0,0,.409-1.86,5.351,5.351,0,0,0-.054-.721,4.492,4.492,0,0,1,2.022,3.205A4.663,4.663,0,0,1,566.389,661.677Z" transform="translate(-3.19 -0.971)"/>
    <path id="路径_709" data-name="路径 709" class="cls-1" d="M547.366,694.418a25,25,0,0,1-.424-50c.147,0,.3,0,.442,0a25.03,25.03,0,0,1,24.992,24.563h0a25.032,25.032,0,0,1-24.561,25.433C547.665,694.417,547.515,694.418,547.366,694.418Zm.018-47.272c-.132,0-.263,0-.394,0a22.272,22.272,0,1,0,22.658,21.88h0A22.3,22.3,0,0,0,547.384,647.145Z" transform="translate(0)"/>
    <g id="组_583" data-name="组 583" transform="translate(536.264 653.152)">
      <path id="路径_710" data-name="路径 710" class="cls-1" d="M543.294,659.831l5.806-5.806,6.167,6.167Z" transform="translate(-538.166 -654.025)"/>
      <path id="路径_711" data-name="路径 711" class="cls-1" d="M540.954,666.711l7.869-7.869,8.358,8.358Z" transform="translate(-537.953 -654.463)"/>
      <path id="路径_712" data-name="路径 712" class="cls-1" d="M537.653,675.342l10.78-10.78,11.449,11.449Z" transform="translate(-537.653 -654.983)"/>
      <path id="路径_713" data-name="路径 713" class="cls-1" d="M549.789,685.4a.908.908,0,0,1-.909-.909v-8.955a.909.909,0,0,1,1.818,0v8.955A.909.909,0,0,1,549.789,685.4Z" transform="translate(-538.674 -655.898)"/>
    </g>
    <g id="组_584" data-name="组 584" transform="translate(531.065 665.906)">
      <path id="路径_714" data-name="路径 714" class="cls-1" d="M535.058,671.271l3.216-3.216,3.415,3.415Z" transform="translate(-532.217 -668.055)"/>
      <path id="路径_715" data-name="路径 715" class="cls-1" d="M533.762,675.081l4.358-4.358,4.629,4.629Z" transform="translate(-532.099 -668.298)"/>
      <path id="路径_716" data-name="路径 716" class="cls-1" d="M531.933,679.862l5.971-5.971,6.341,6.341Z" transform="translate(-531.933 -668.586)"/>
      <path id="路径_717" data-name="路径 717" class="cls-1" d="M538.614,685.8a.908.908,0,0,1-.909-.909v-4.961a.909.909,0,0,1,1.818,0v4.961A.908.908,0,0,1,538.614,685.8Z" transform="translate(-532.458 -669.052)"/>
    </g>
    <g id="组_585" data-name="组 585" transform="translate(552.583 668.892)">
      <path id="路径_718" data-name="路径 718" class="cls-1" d="M558.13,673.94l2.6-2.6,2.762,2.762Z" transform="translate(-555.833 -671.339)"/>
      <path id="路径_719" data-name="路径 719" class="cls-1" d="M557.082,677.021l3.524-3.524,3.743,3.743Z" transform="translate(-555.737 -671.536)"/>
      <path id="路径_720" data-name="路径 720" class="cls-1" d="M555.6,680.887l4.828-4.828,5.128,5.128Z" transform="translate(-555.603 -671.769)"/>
      <path id="路径_721" data-name="路径 721" class="cls-1" d="M560.988,685.841a.909.909,0,0,1-.909-.909V680.92a.909.909,0,0,1,1.818,0v4.012A.909.909,0,0,1,560.988,685.841Z" transform="translate(-556.01 -672.128)"/>
    </g>
  </g>
</svg>
