<svg xmlns="http://www.w3.org/2000/svg" width="50" height="50.001" viewBox="0 0 50 50.001">
  <defs>
    <style>
      .cls-1 {
        fill: #FFF;
      }
    </style>
  </defs>
  <g id="组_2240" data-name="组 2240" transform="translate(-1037.865 -645.996)">
    <path id="路径_1484" data-name="路径 1484" class="cls-1" d="M1079.183,686.136h-30.909a.909.909,0,0,1,0-1.818h30.909a.909.909,0,1,1,0,1.818Z" transform="translate(-0.864 -3.484)"/>
    <path id="路径_1485" data-name="路径 1485" class="cls-1" d="M1072.229,690.386h-15.454a.909.909,0,0,1,0-1.818h15.454a.909.909,0,0,1,0,1.818Z" transform="translate(-1.637 -3.871)"/>
    <path id="路径_1486" data-name="路径 1486" class="cls-1" d="M1062.858,696a25,25,0,1,1,25-25.436h0a25,25,0,0,1-24.56,25.433Zm.018-47.272c-.133,0-.266,0-.4,0a22.272,22.272,0,0,0,.382,44.541l.395,0a22.273,22.273,0,0,0,21.881-22.658h0a22.272,22.272,0,0,0-22.258-21.884Z" transform="translate(0 0)"/>
    <path id="路径_1487" data-name="路径 1487" class="cls-1" d="M1056,672.761a2.323,2.323,0,1,0-.681,1.637,2.234,2.234,0,0,0,.681-1.637Zm.521-4.634h14.714l-1.289-5.17a.7.7,0,0,0-.506-.391h-11.122a.522.522,0,0,0-.3.137.531.531,0,0,0-.2.254Zm19.869,4.634a2.322,2.322,0,1,0-.68,1.637,2.233,2.233,0,0,0,.68-1.637Zm2.317-1.39v5.561a.445.445,0,0,1-.464.464h-1.39v1.854a2.78,2.78,0,1,1-5.561,0V677.4h-14.829v1.854a2.78,2.78,0,1,1-5.561,0V677.4h-1.391a.445.445,0,0,1-.463-.464v-5.561a3.237,3.237,0,0,1,3.244-3.244h.405l1.521-6.068a4.314,4.314,0,0,1,4.1-3.2h11.122a4.316,4.316,0,0,1,4.1,3.2l1.521,6.068h.406a3.237,3.237,0,0,1,3.244,3.244Zm0,0" transform="translate(-1.017 -1.169)"/>
  </g>
</svg>
