<svg xmlns="http://www.w3.org/2000/svg" width="55" height="55" viewBox="0 0 55 55">
  <defs>
    <style>
      .cls-1 {
        fill: #fff;
      }
    </style>
  </defs>
  <g id="组_2160" data-name="组 2160" transform="translate(-352.051 -819.218)">
    <path id="路径_1431" data-name="路径 1431" class="cls-1" d="M379.543,874.218a27.476,27.476,0,1,1,.488,0C379.868,874.217,379.706,874.218,379.543,874.218Zm.02-52c-.146,0-.292,0-.439,0a24.5,24.5,0,1,0,24.923,24.068h0a24.5,24.5,0,0,0-24.484-24.072Z"/>
    <path id="路径_1432" data-name="路径 1432" class="cls-1" d="M379.551,855.646a3,3,0,0,1-3-3v-2.884a7.9,7.9,0,0,1,4.9-7.32,4.971,4.971,0,0,0-1.7-9.561,4.97,4.97,0,0,0-5.166,4.966,3,3,0,0,1-6,0,10.969,10.969,0,0,1,11.394-10.962,10.971,10.971,0,0,1,3.772,21.1,1.921,1.921,0,0,0-1.2,1.777v2.884A3,3,0,0,1,379.551,855.646Z"/>
    <circle id="椭圆_256" data-name="椭圆 256" class="cls-1" cx="4.417" cy="4.417" r="4.417" transform="translate(375.397 857.055)"/>
    <g id="组_2159" data-name="组 2159">
      <path id="路径_1433" data-name="路径 1433" class="cls-1" d="M369.707,851.965h-8.063a1,1,0,0,1,0-2h8.063a1,1,0,0,1,0,2Z"/>
      <path id="路径_1434" data-name="路径 1434" class="cls-1" d="M397.458,851.965h-8.063a1,1,0,0,1,0-2h8.063a1,1,0,0,1,0,2Z"/>
    </g>
  </g>
</svg>
